<svg width="40" height="40" viewBox="0 0 40 40" fill="none" xmlns="http://www.w3.org/2000/svg">
<rect width="40" height="40" fill="white" fill-opacity="0.01"/>
<path fill-rule="evenodd" clip-rule="evenodd" d="M22.7998 13.5447C18.5088 13.5447 15.0298 12.8967 15.0298 12.0977V15.0977V18.0977V21.0977V24.0977V24.7897C15.0298 25.5897 18.5088 26.2377 22.7998 26.2377C27.0918 26.2377 30.5708 25.5897 30.5708 24.7897V24.0977V21.0977V18.0977V15.0977V12.0977C30.5708 12.8967 27.0918 13.5447 22.7998 13.5447Z" fill="#F7C301"/>
<path fill-rule="evenodd" clip-rule="evenodd" d="M19.6083 26.0564L15.5093 25.0564V12.5944L19.6083 13.5944V26.0564Z" fill="white"/>
<path d="M24.024 19.5271C23.626 19.5391 23.216 19.5451 22.799 19.5451C18.508 19.5451 15.03 18.8971 15.03 18.0971" stroke="#3F4A54" stroke-linecap="round" stroke-linejoin="round"/>
<path d="M30.5702 18.0974C30.5702 18.6704 28.7822 19.1654 26.1882 19.4004" stroke="#3F4A54" stroke-linecap="round" stroke-linejoin="round"/>
<path d="M29.1308 11.2581C30.0368 11.4951 30.5698 11.7841 30.5698 12.0971C30.5698 12.8971 27.0918 13.5451 22.7998 13.5451C18.5088 13.5451 15.0298 12.8971 15.0298 12.0971C15.0298 11.7791 15.5818 11.4841 16.5188 11.2451C16.9258 11.1411 17.4048 11.0481 17.9428 10.9671C18.1098 10.9431 18.2798 10.9191 18.4558 10.8971C19.6958 10.7411 21.1918 10.6501 22.7998 10.6501C24.3308 10.6501 25.7578 10.7321 26.9608 10.8751" stroke="#3F4A54" stroke-linecap="round" stroke-linejoin="round"/>
<path d="M26.3673 16.3836C25.2993 16.4866 24.0863 16.5446 22.8003 16.5446" stroke="#3F4A54" stroke-linecap="round" stroke-linejoin="round"/>
<path d="M30.5701 15.0974C30.5701 15.4754 29.7921 15.8204 28.5161 16.0774" stroke="#3F4A54" stroke-linecap="round" stroke-linejoin="round"/>
<path d="M21.026 22.5071C17.589 22.3581 15.03 21.7831 15.03 21.0971" stroke="#3F4A54" stroke-linecap="round" stroke-linejoin="round"/>
<path d="M30.5703 21.0974C30.5703 21.8964 27.0913 22.5444 22.7993 22.5444" stroke="#3F4A54" stroke-linecap="round" stroke-linejoin="round"/>
<path d="M21.19 25.5139C17.67 25.3759 15.03 24.7939 15.03 24.0969" stroke="#3F4A54" stroke-linecap="round" stroke-linejoin="round"/>
<path d="M30.5703 24.0974C30.5703 24.8194 27.7343 25.4174 24.0243 25.5274C23.8143 25.5334 23.6003 25.5374 23.3843 25.5404" stroke="#3F4A54" stroke-linecap="round" stroke-linejoin="round"/>
<path d="M30.5701 24.0974V24.0974V21.0974V18.0974V15.3684" stroke="#3F4A54" stroke-linecap="round" stroke-linejoin="round"/>
<path d="M15.03 12.0974V15.0974V18.0974V21.0974V24.0974" stroke="#3F4A54" stroke-linecap="round" stroke-linejoin="round"/>
<path fill-rule="evenodd" clip-rule="evenodd" d="M21.2598 24.7688C20.7558 28.2328 17.5388 30.6318 14.0748 30.1278C10.6118 29.6238 8.21178 26.4078 8.71578 22.9438C9.22078 19.4798 12.4368 17.0808 15.9008 17.5838C19.3638 18.0888 21.7638 21.3048 21.2598 24.7688Z" fill="white"/>
<path d="M10.1951 28.0032C9.23215 26.8922 8.65015 25.4422 8.65015 23.8562C8.65015 20.3562 11.4871 17.5182 14.9881 17.5182C15.5521 17.5182 16.1001 17.5922 16.6221 17.7312" stroke="#3F4A54" stroke-linecap="round" stroke-linejoin="round"/>
<path d="M18.5132 18.5886C20.2092 19.7256 21.3262 21.6606 21.3262 23.8566C21.3262 27.3566 18.4882 30.1936 14.9882 30.1936C13.7432 30.1936 12.5832 29.8356 11.6042 29.2166" stroke="#3F4A54" stroke-linecap="round" stroke-linejoin="round"/>
<path d="M14.9878 20.6101C13.3998 20.6081 12.0108 21.7721 11.7758 23.3891C11.7478 23.5841 11.7438 23.7771 11.7508 23.9671" stroke="#3F4A54" stroke-linecap="round" stroke-linejoin="round"/>
<path d="M17.8437 25.4021C18.0207 25.0751 18.1437 24.7131 18.1997 24.3231C18.2307 24.1121 18.2377 23.9031 18.2277 23.6981" stroke="#3F4A54" stroke-linecap="round" stroke-linejoin="round"/>
<path d="M12.4626 25.8816C12.9586 26.5006 13.6736 26.9446 14.5206 27.0686C15.2336 27.1726 15.9276 27.0356 16.5186 26.7186" stroke="#3F4A54" stroke-linecap="round" stroke-linejoin="round"/>
<path d="M22.2999 30.1951H15.0259" stroke="#3F4A54" stroke-linecap="round" stroke-linejoin="round"/>
</svg>
