<svg width="26" height="26" viewBox="0 0 26 26" fill="none" xmlns="http://www.w3.org/2000/svg">
<rect width="26" height="26" fill="white" fill-opacity="0.01"/>
<path d="M19.5041 20.7094H12.1104" stroke="#3F4A54" stroke-width="0.8" stroke-linecap="round" stroke-linejoin="round"/>
<path fill-rule="evenodd" clip-rule="evenodd" d="M13.9855 12.4397C14.0628 12.519 14.1395 12.5983 14.2162 12.6776C14.2838 12.7484 14.3222 12.9012 14.2975 12.9974C14.1174 13.7254 13.9231 14.4495 13.719 15.171C13.693 15.2626 13.6 15.379 13.5142 15.4037C12.768 15.6175 12.0166 15.8119 11.2659 16.0127C11.2399 16.0192 11.2132 16.0231 11.1398 16.0374C11.106 16.0134 11.039 15.977 10.987 15.925C10.4417 15.3835 9.89505 14.8421 9.3601 14.2915C9.30225 14.2317 9.2717 14.0998 9.29185 14.0172C9.48035 13.273 9.67795 12.5313 9.8879 11.7929C9.91325 11.7052 10.0192 11.6025 10.1082 11.5771C10.8375 11.3691 11.5707 11.1728 12.3065 10.9882C12.3962 10.9648 12.5392 11.0019 12.6049 11.0662C12.7934 11.2482 12.9812 11.4315 13.1671 11.6161" fill="#FE6A56"/>
<path fill-rule="evenodd" clip-rule="evenodd" d="M8.58559 6.79916C8.55309 6.81736 8.52384 6.83946 8.48224 6.84986C7.06394 7.21776 6.21439 8.97276 5.72559 10.2468C5.73014 10.2455 5.73664 10.2442 5.74119 10.2429C6.49129 10.0427 7.24334 9.84701 7.98954 9.63381C8.07534 9.60976 8.16764 9.49341 8.19364 9.40111C8.39839 8.68026 8.59274 7.95551 8.77279 7.22751C8.79684 7.13196 8.75914 6.97856 8.69154 6.90836C8.65579 6.87131 8.62134 6.83556 8.58559 6.79916Z" fill="#FE6A56"/>
<path fill-rule="evenodd" clip-rule="evenodd" d="M11.7278 5.21161C11.5991 5.68676 11.4665 6.16191 11.3456 6.63901C11.3248 6.72156 11.3554 6.85351 11.4132 6.91331C11.9488 7.46451 12.4948 8.00596 13.0408 8.54741C13.0928 8.59941 13.1598 8.63581 13.1936 8.65986C13.2664 8.64491 13.293 8.64101 13.319 8.63516C14.0698 8.43431 14.8218 8.23931 15.568 8.02546C15.6532 8.00141 15.7468 7.88441 15.7728 7.79341C15.9249 7.25391 16.0653 6.71116 16.205 6.16841C14.7744 5.56391 13.3067 5.26621 11.7278 5.21161Z" fill="#FE6A56"/>
<path fill-rule="evenodd" clip-rule="evenodd" d="M17.3443 18.9181C17.9657 18.352 18.4915 17.7371 18.9829 17.0741L18.8477 16.9382C18.6605 16.7536 18.4727 16.5703 18.2842 16.3877C18.2192 16.324 18.0755 16.2869 17.9858 16.3097C17.25 16.4943 16.5175 16.6906 15.7875 16.8992C15.6991 16.9246 15.5932 17.0273 15.5685 17.115C15.3572 17.8528 15.1603 18.5951 14.9724 19.3387C14.951 19.4212 14.9815 19.5538 15.0394 19.613C15.2344 19.8132 15.4346 20.0095 15.6309 20.2071C16.2724 20.1505 16.9081 19.3146 17.3443 18.9181Z" fill="#FE6A56"/>
<path fill-rule="evenodd" clip-rule="evenodd" d="M9.76072 20.5983C10.5336 20.9252 11.3669 20.9701 12.1995 20.9649C12.2255 20.8622 12.2561 20.7608 12.2814 20.6574C12.3055 20.5612 12.2671 20.4085 12.1995 20.3383C12.1235 20.259 12.0461 20.179 11.9688 20.0997L11.1511 19.2762C10.9645 19.0916 10.7767 18.9076 10.5882 18.7256C10.5225 18.6619 10.3795 18.6255 10.2898 18.6476C9.55467 18.8322 8.82147 19.0292 8.09152 19.2372C8.00312 19.2619 7.89652 19.3652 7.87182 19.4523C7.85232 19.5199 7.83672 19.5875 7.81787 19.6551C8.50492 19.8969 9.08797 20.3142 9.76072 20.5983Z" fill="#FE6A56"/>
<path d="M16.3569 6.99285C16.4137 6.77937 16.2867 6.56024 16.0733 6.5034C15.8598 6.44656 15.6407 6.57354 15.5838 6.78702L16.3569 6.99285ZM15.8189 7.47754L15.4248 7.40917L15.4247 7.40953L15.8189 7.47754ZM15.4134 7.40141C15.1994 7.45626 15.0704 7.67421 15.1253 7.8882C15.1801 8.1022 15.3981 8.23121 15.6121 8.17636L15.4134 7.40141ZM14.5274 8.45677C14.7408 8.39972 14.8676 8.18046 14.8105 7.96704C14.7535 7.75362 14.5342 7.62686 14.3208 7.68391L14.5274 8.45677ZM13.4413 8.34139L13.3326 7.95643L13.331 7.95688L13.4413 8.34139ZM12.9986 8.22829L12.7097 8.5049L12.71 8.50519L12.9986 8.22829ZM11.6135 6.84249L11.8895 6.55296L11.8887 6.55221L11.6135 6.84249ZM11.3886 6.18339L11.7517 6.35122L11.7518 6.35101L11.3886 6.18339ZM11.6883 5.90951C11.5657 5.7257 11.3174 5.67603 11.1336 5.79857C10.9498 5.92111 10.9001 6.16946 11.0226 6.35327L11.6883 5.90951ZM9.1344 7.13209C9.15721 6.91236 8.99758 6.71574 8.77785 6.69292C8.55811 6.67011 8.36149 6.82974 8.33868 7.04948L9.1344 7.13209ZM8.70079 7.40994L9.08762 7.51173L9.08775 7.51122L8.70079 7.40994ZM8.13009 9.55884L7.7427 9.45918L7.74253 9.45985L8.13009 9.55884ZM7.87269 9.81884L7.97221 10.2063L7.97366 10.2059L7.87269 9.81884ZM6.03514 10.3187L5.92487 9.93418L5.92378 9.9345L6.03514 10.3187ZM5.43361 10.3374C5.34559 10.54 5.43849 10.7756 5.64111 10.8637C5.84373 10.9517 6.07934 10.8588 6.16736 10.6562L5.43361 10.3374ZM5.61428 13.2027C5.61428 12.9818 5.4352 12.8027 5.21428 12.8027C4.99337 12.8027 4.81428 12.9818 4.81428 13.2027H5.61428ZM5.34038 13.5017L5.62916 13.2249L5.62827 13.224L5.34038 13.5017ZM6.53573 14.6977L6.26084 14.9883L6.26116 14.9886L6.53573 14.6977ZM6.64298 15.1202L6.25821 15.0109L6.25804 15.0115L6.64298 15.1202ZM6.21008 16.7498L5.82138 16.6554L5.82121 16.6561L6.21008 16.7498ZM5.90914 17.3026C6.02202 17.4925 6.26747 17.5549 6.45736 17.442C6.64726 17.3291 6.7097 17.0837 6.59683 16.8938L5.90914 17.3026ZM8.28142 18.7959C8.10584 18.6618 7.85482 18.6955 7.72075 18.871C7.58669 19.0466 7.62034 19.2976 7.79592 19.4317L8.28142 18.7959ZM8.42932 19.1788L8.32191 18.7935L8.32102 18.7937L8.42932 19.1788ZM10.3143 18.664L10.2054 18.2791L10.2053 18.2791L10.3143 18.664ZM10.7323 18.7764L10.4439 19.0537L10.4445 19.0543L10.7323 18.7764ZM12.226 20.2818L11.9402 20.5617L11.9413 20.5628L12.226 20.2818ZM12.1659 20.8789C12.2949 21.0582 12.5449 21.0989 12.7242 20.9698C12.9035 20.8408 12.9442 20.5908 12.8152 20.4115L12.1659 20.8789ZM14.8189 20.322C14.9265 20.5149 15.1701 20.5841 15.3631 20.4765C15.556 20.3689 15.6252 20.1252 15.5176 19.9323L14.8189 20.322ZM14.9349 19.613L15.3173 19.7303L15.3174 19.7299L14.9349 19.613ZM15.5173 17.4667L15.9045 17.567L15.905 17.5649L15.5173 17.4667ZM15.8721 17.5904C16.0858 17.5345 16.2137 17.3159 16.1577 17.1021C16.1018 16.8884 15.8832 16.7605 15.6695 16.8165L15.8721 17.5904ZM16.838 16.506C16.6247 16.5635 16.4985 16.7831 16.556 16.9964C16.6136 17.2097 16.8332 17.3359 17.0464 17.2783L16.838 16.506ZM17.9471 16.6295L17.8507 16.2413L17.8503 16.2414L17.9471 16.6295ZM18.2643 16.727L18.0087 17.0347L18.0093 17.0352L18.2643 16.727ZM18.448 17.4886C18.6008 17.6481 18.854 17.6536 19.0135 17.5008C19.1731 17.3481 19.1786 17.0948 19.0258 16.9353L18.448 17.4886ZM19.9252 14.0963C20.1391 14.041 20.2676 13.8228 20.2123 13.6089C20.1569 13.395 19.9387 13.2665 19.7248 13.3218L19.9252 14.0963ZM19.0099 13.9255L19.1329 14.3061L19.1338 14.3059L19.0099 13.9255ZM18.6609 13.8352L18.3755 14.1155L18.3763 14.1163L18.6609 13.8352ZM18.5095 13.1136C18.3533 12.9574 18.1 12.9574 17.9438 13.1136C17.7876 13.2698 17.7876 13.523 17.9438 13.6793L18.5095 13.1136ZM17.2805 13.0192C17.438 13.1742 17.6913 13.1721 17.8462 13.0146C18.0011 12.8571 17.999 12.6038 17.8415 12.4489L17.2805 13.0192ZM17.0807 12.2654L16.8025 12.5528L16.8025 12.5529L17.0807 12.2654ZM16.9845 11.8878L17.3696 11.9959L17.37 11.9944L16.9845 11.8878ZM17.5519 9.76552L17.9398 9.86312L17.9402 9.86186L17.5519 9.76552ZM17.8477 9.47822L17.7662 9.0866L17.766 9.08664L17.8477 9.47822ZM18.7078 9.67241C18.9216 9.61706 19.0501 9.39881 18.9948 9.18494C18.9394 8.97108 18.7212 8.84258 18.5073 8.89793L18.7078 9.67241ZM18.1018 7.52673C17.9445 7.37166 17.6912 7.37351 17.5361 7.53085C17.3811 7.6882 17.3829 7.94146 17.5403 8.09652L18.1018 7.52673ZM18.3319 8.36738L18.6396 8.11172L18.6395 8.11161L18.3319 8.36738ZM20.059 13.1715L19.659 13.17V13.17L20.059 13.1715ZM12.5209 20.7096L12.5224 21.1096H12.5225L12.5209 20.7096ZM4.98614 13.165L5.38613 13.1665L5.38614 13.1665L4.98614 13.165ZM12.5411 5.63608L12.5395 6.03607L12.5396 6.03607L12.5411 5.63608ZM16.4894 7.24078C16.6731 7.36346 16.9215 7.31397 17.0441 7.13026C17.1668 6.94654 17.1173 6.69815 16.9336 6.57547L16.4894 7.24078ZM15.5838 6.78702C15.5367 6.96407 15.4619 7.19533 15.4248 7.40917L16.213 7.5459C16.2422 7.37754 16.2922 7.2357 16.3569 6.99285L15.5838 6.78702ZM15.4247 7.40953C15.4215 7.42839 15.4187 7.43214 15.4211 7.42711C15.4223 7.42444 15.4247 7.42006 15.4284 7.41472C15.4322 7.40934 15.4367 7.40407 15.4416 7.39929C15.4518 7.3893 15.459 7.3861 15.4565 7.38733C15.4549 7.38808 15.4509 7.3899 15.4437 7.39244C15.4364 7.39499 15.4266 7.39804 15.4134 7.40141L15.6121 8.17636C15.7355 8.14471 15.8805 8.08918 16.0012 7.97097C16.1275 7.84738 16.1873 7.69521 16.2131 7.54554L15.4247 7.40953ZM14.3208 7.68391C13.9901 7.77231 13.6606 7.86385 13.3326 7.95644L13.55 8.72634C13.8759 8.63433 14.2016 8.54387 14.5274 8.45677L14.3208 7.68391ZM13.331 7.95688C13.3017 7.9653 13.2867 7.96724 13.2816 7.96765C13.2779 7.96794 13.2843 7.96708 13.296 7.96991C13.3014 7.97122 13.3063 7.97294 13.3103 7.9747C13.3143 7.97642 13.3163 7.97769 13.3162 7.97762C13.3154 7.97716 13.306 7.9709 13.2873 7.95139L12.71 8.50519C12.811 8.6105 12.9389 8.70661 13.1079 8.74748C13.273 8.78744 13.4261 8.76187 13.5515 8.7259L13.331 7.95688ZM13.2876 7.95168C12.8324 7.47616 12.3672 7.0083 11.8895 6.55296L11.3375 7.13202C11.8049 7.57758 12.2614 8.03662 12.7097 8.5049L13.2876 7.95168ZM11.8887 6.55221C11.8402 6.50624 11.8053 6.47141 11.7785 6.44014C11.7521 6.40935 11.7421 6.39166 11.7386 6.38419C11.7366 6.37973 11.7386 6.38318 11.7385 6.38897C11.7384 6.39347 11.7372 6.38262 11.7517 6.35122L11.0255 6.01556C10.9123 6.26054 10.9115 6.50055 11.0119 6.71872C11.0966 6.90269 11.2434 7.04278 11.3383 7.13277L11.8887 6.55221ZM11.7518 6.35101C11.7932 6.26135 11.7933 6.1766 11.7842 6.11834C11.7757 6.06335 11.7577 6.02198 11.747 5.99994C11.7267 5.95843 11.7028 5.9277 11.6984 5.92184C11.6942 5.9163 11.6902 5.91131 11.6883 5.90882C11.6857 5.90551 11.6849 5.90458 11.684 5.90336C11.6824 5.90136 11.6847 5.90417 11.6883 5.90951L11.0226 6.35327C11.0395 6.37855 11.0729 6.42097 11.0612 6.40561C11.0604 6.40454 11.0567 6.3996 11.0518 6.39229C11.0473 6.38559 11.0378 6.37095 11.0279 6.35059C11.0188 6.33185 11.0019 6.29348 10.9937 6.2412C10.9851 6.18565 10.985 6.10332 11.0254 6.01577L11.7518 6.35101ZM8.33868 7.04948C8.33209 7.11292 8.32749 7.19329 8.32481 7.22675C8.32114 7.27261 8.31747 7.29474 8.31382 7.30865L9.08775 7.51122C9.10946 7.42828 9.11748 7.35031 9.12226 7.29055C9.12804 7.21838 9.12864 7.1876 9.1344 7.13209L8.33868 7.04948ZM8.31396 7.30814C8.12769 8.01596 7.92712 8.74228 7.7427 9.45918L8.51748 9.65849C8.70226 8.94019 8.89689 8.23651 9.08762 7.51173L8.31396 7.30814ZM7.74253 9.45985C7.73807 9.47732 7.73545 9.4814 7.73728 9.47777C7.73972 9.47291 7.74633 9.46172 7.75856 9.44936C7.77081 9.43695 7.78218 9.42997 7.78765 9.42715C7.79188 9.42498 7.78848 9.42742 7.77172 9.43179L7.97366 10.2059C8.0899 10.1756 8.21906 10.1215 8.32758 10.0117C8.43575 9.90222 8.48825 9.77293 8.51765 9.65782L7.74253 9.45985ZM7.77317 9.43141C7.15449 9.59033 6.53796 9.75836 5.92487 9.93419L6.14541 10.7032C6.75172 10.5293 7.36108 10.3632 7.97221 10.2063L7.77317 9.43141ZM5.92378 9.9345C5.83084 9.96144 5.73933 10.0079 5.6619 10.0642C5.59001 10.1165 5.49081 10.2057 5.43361 10.3374L6.16736 10.6562C6.15445 10.6859 6.14029 10.7024 6.1359 10.7073C6.13083 10.7129 6.12905 10.7137 6.13229 10.7113C6.13521 10.7092 6.13944 10.7066 6.14393 10.7043C6.14868 10.702 6.14997 10.7019 6.1465 10.7029L5.92378 9.9345ZM4.81428 13.2027C4.81428 13.4186 4.91818 13.6402 5.05249 13.7794L5.62827 13.224C5.63128 13.2271 5.63047 13.2269 5.62746 13.2222C5.62461 13.2178 5.62137 13.2118 5.61851 13.2051C5.61562 13.1984 5.61416 13.1933 5.61361 13.191C5.61297 13.1882 5.61428 13.1923 5.61428 13.2027H4.81428ZM5.05161 13.7785C5.44395 14.1879 5.84477 14.5947 6.26084 14.9883L6.81063 14.4072C6.4077 14.026 6.01681 13.6294 5.62916 13.225L5.05161 13.7785ZM6.26116 14.9886C6.2772 15.0038 6.28091 15.0103 6.27958 15.0082C6.27883 15.007 6.27705 15.004 6.27504 14.9992C6.273 14.9944 6.27121 14.9889 6.2699 14.9832C6.26712 14.971 6.26796 14.9643 6.26772 14.9673C6.26737 14.9715 6.26566 14.9847 6.25821 15.0109L7.02776 15.2295C7.06103 15.1124 7.08645 14.965 7.04971 14.8046C7.01161 14.6382 6.91898 14.5094 6.8103 14.4069L6.26116 14.9886ZM6.25804 15.0115C6.10465 15.5546 5.95563 16.1026 5.82138 16.6554L6.59878 16.8442C6.72974 16.305 6.87581 15.7675 7.02792 15.229L6.25804 15.0115ZM5.82121 16.6561C5.7759 16.8441 5.79036 17.1027 5.90914 17.3026L6.59683 16.8938C6.60256 16.9035 6.60333 16.9077 6.6022 16.904C6.6012 16.9007 6.59959 16.8939 6.59849 16.8843C6.5974 16.8747 6.59713 16.8651 6.59755 16.8565C6.59799 16.8477 6.59901 16.8433 6.59895 16.8435L5.82121 16.6561ZM7.79592 19.4317C7.90557 19.5154 8.02992 19.5756 8.17367 19.5956C8.31224 19.6149 8.43669 19.5922 8.53762 19.5639L8.32102 18.7937C8.27636 18.8063 8.27145 18.8015 8.28409 18.8033C8.29064 18.8042 8.29578 18.806 8.2978 18.8069C8.29911 18.8075 8.29384 18.8054 8.28142 18.7959L7.79592 19.4317ZM8.53673 19.5641C9.14386 19.3949 9.80555 19.2238 10.4233 19.0489L10.2053 18.2791C9.56989 18.4591 8.96928 18.613 8.32191 18.7935L8.53673 19.5641ZM10.4233 19.0489C10.4465 19.0423 10.4569 19.0414 10.4583 19.0413C10.4587 19.0413 10.4568 19.0415 10.453 19.0411C10.449 19.0408 10.4441 19.04 10.4386 19.0386C10.4331 19.0371 10.4283 19.0354 10.4244 19.0336C10.4226 19.0328 10.4211 19.0321 10.4201 19.0315C10.4191 19.031 10.4186 19.0306 10.4187 19.0307C10.419 19.0309 10.4273 19.0364 10.4439 19.0537L11.0206 18.4992C10.924 18.3988 10.8012 18.3063 10.6402 18.2644C10.4802 18.2227 10.3309 18.2436 10.2054 18.2791L10.4233 19.0489ZM10.4445 19.0543C10.9297 19.5568 11.4624 20.0739 11.9402 20.5617L12.5117 20.002C12.0002 19.4797 11.5164 19.0127 11.02 18.4986L10.4445 19.0543ZM11.9413 20.5628C11.9645 20.5863 11.99 20.6192 12.0279 20.675C12.0589 20.7208 12.114 20.8068 12.1659 20.8789L12.8152 20.4115C12.7702 20.3491 12.7425 20.3034 12.6901 20.2262C12.6446 20.159 12.5863 20.0775 12.5107 20.0009L11.9413 20.5628ZM15.5176 19.9323C15.4686 19.8445 15.4072 19.7787 15.3709 19.7406C15.324 19.6915 15.3136 19.6822 15.3011 19.6661C15.2951 19.6585 15.3071 19.6716 15.3133 19.6995C15.3199 19.7293 15.3131 19.744 15.3173 19.7303L14.5525 19.4957C14.5144 19.6198 14.5042 19.7472 14.5325 19.8739C14.5603 19.9984 14.6188 20.0922 14.6704 20.1584C14.7154 20.2159 14.7735 20.2734 14.7921 20.2929C14.8213 20.3235 14.8223 20.3282 14.8189 20.322L15.5176 19.9323ZM15.3174 19.7299C15.5371 19.0109 15.7199 18.2797 15.9045 17.567L15.1301 17.3664C14.9429 18.0889 14.7656 18.7981 14.5523 19.4961L15.3174 19.7299ZM15.905 17.5649C15.9097 17.5464 15.9127 17.5408 15.9117 17.5427C15.9103 17.5458 15.9047 17.5561 15.8933 17.5683C15.8816 17.5808 15.8699 17.5887 15.8626 17.5927C15.8565 17.596 15.8578 17.5942 15.8721 17.5904L15.6695 16.8165C15.5449 16.8491 15.4152 16.9083 15.309 17.0219C15.2055 17.1326 15.1569 17.2604 15.1295 17.3685L15.905 17.5649ZM17.0464 17.2783C17.3801 17.1883 17.7114 17.1006 18.044 17.0176L17.8503 16.2414C17.5107 16.3262 17.1739 16.4153 16.838 16.506L17.0464 17.2783ZM18.0435 17.0178C18.0266 17.0219 18.013 17.0234 18.0039 17.0238C17.9946 17.0242 17.9882 17.0238 17.9849 17.0235C17.979 17.0229 17.9795 17.0223 17.9856 17.0243C17.9914 17.0262 17.9981 17.0291 18.0041 17.0323C18.0105 17.0358 18.0118 17.0373 18.0087 17.0347L18.5199 16.4193C18.4366 16.3501 18.3352 16.2972 18.236 16.2645C18.1439 16.2341 18.0013 16.2039 17.8507 16.2413L18.0435 17.0178ZM18.0093 17.0352C18.148 17.15 18.2395 17.2709 18.448 17.4886L19.0258 16.9353C18.8819 16.7851 18.7043 16.5719 18.5193 16.4188L18.0093 17.0352ZM19.7248 13.3218C19.4472 13.3936 19.155 13.4576 18.8861 13.5452L19.1338 14.3059C19.3718 14.2283 19.6048 14.1792 19.9252 14.0963L19.7248 13.3218ZM18.8869 13.5449C18.8718 13.5498 18.8701 13.5487 18.8782 13.5481C18.888 13.5474 18.9048 13.5479 18.9247 13.5533C18.9651 13.5642 18.9745 13.5834 18.9454 13.554L18.3763 14.1163C18.4552 14.1961 18.5646 14.2845 18.7154 14.3254C18.8699 14.3673 19.0134 14.3448 19.1329 14.3061L18.8869 13.5449ZM18.9462 13.5549C18.8016 13.4076 18.6557 13.2597 18.5095 13.1136L17.9438 13.6793C18.0876 13.823 18.2316 13.9689 18.3755 14.1155L18.9462 13.5549ZM17.8415 12.4489C17.6815 12.2915 17.5202 12.1341 17.3588 11.978L16.8025 12.5529C16.9623 12.7075 17.122 12.8633 17.2805 13.0192L17.8415 12.4489ZM17.3589 11.978C17.3463 11.9658 17.3447 11.9619 17.3475 11.9663C17.3489 11.9687 17.3513 11.9729 17.3538 11.9788C17.3563 11.9848 17.3585 11.9914 17.3602 11.9985C17.3618 12.0056 17.3626 12.0118 17.363 12.0168C17.3633 12.0217 17.3631 12.0246 17.3631 12.025C17.3631 12.0251 17.3637 12.0167 17.3696 11.9959L16.5994 11.7796C16.5686 11.8894 16.5456 12.0284 16.5812 12.1805C16.6177 12.337 16.7042 12.4577 16.8025 12.5528L17.3589 11.978ZM17.37 11.9944C17.565 11.2891 17.7598 10.5785 17.9398 9.86312L17.164 9.66792C16.9865 10.3734 16.7939 11.076 16.5989 11.7812L17.37 11.9944ZM17.9402 9.86186C17.9456 9.83975 17.9496 9.83249 17.9488 9.83397C17.9483 9.83498 17.9465 9.83819 17.9432 9.84278C17.9398 9.84744 17.9353 9.85268 17.9299 9.85793C17.9244 9.86319 17.9189 9.86748 17.9139 9.8708C17.9091 9.87405 17.9055 9.8758 17.9042 9.87642C17.9021 9.8774 17.9085 9.87415 17.9293 9.8698L17.766 9.08664C17.6396 9.113 17.4969 9.16476 17.3762 9.28051C17.2555 9.39624 17.1962 9.53808 17.1637 9.66918L17.9402 9.86186ZM17.9291 9.86984C18.1852 9.81657 18.4492 9.73934 18.7078 9.67241L18.5073 8.89793C18.2134 8.97401 17.9976 9.03847 17.7662 9.0866L17.9291 9.86984ZM17.5403 8.09652C17.7103 8.26413 17.8724 8.44032 18.0244 8.62314L18.6395 8.11161C18.4704 7.90833 18.2905 7.71272 18.1018 7.52673L17.5403 8.09652ZM18.0243 8.62303C19.0504 9.8578 19.6658 11.4413 19.659 13.17L20.459 13.1731C20.4665 11.2487 19.7806 9.48475 18.6396 8.11172L18.0243 8.62303ZM19.659 13.17C19.6442 17.1522 16.5121 20.2936 12.5193 20.3096L12.5225 21.1096C16.9551 21.0918 20.4426 17.5941 20.459 13.173L19.659 13.17ZM12.5194 20.3096C8.5759 20.3243 5.37137 17.0884 5.38613 13.1665L4.58614 13.1635C4.56971 17.5265 8.13168 21.126 12.5224 21.1096L12.5194 20.3096ZM5.38614 13.1665C5.4003 9.22784 8.62087 6.0207 12.5395 6.03607L12.5427 5.23608C8.17901 5.21896 4.60188 8.78611 4.58614 13.1636L5.38614 13.1665ZM12.5396 6.03607C13.9983 6.04161 15.3571 6.48474 16.4894 7.24078L16.9336 6.57547C15.6751 5.73512 14.1636 5.24224 12.5426 5.23608L12.5396 6.03607Z" fill="#3F4A54"/>
<path d="M13.9855 12.4397C14.0628 12.519 14.1395 12.5983 14.2162 12.6776C14.2838 12.7484 14.3222 12.9012 14.2975 12.9974C14.1174 13.7254 13.9231 14.4495 13.719 15.171C13.693 15.2626 13.6 15.379 13.5142 15.4037C12.768 15.6175 12.0166 15.8119 11.2659 16.0127C11.2399 16.0192 11.2132 16.0231 11.1398 16.0374C11.106 16.0134 11.039 15.977 10.987 15.925C10.4417 15.3835 9.89505 14.8421 9.3601 14.2915C9.30225 14.2317 9.2717 14.0998 9.29185 14.0172C9.48035 13.273 9.67795 12.5313 9.8879 11.7929C9.91325 11.7052 10.0192 11.6025 10.1082 11.5771C10.8375 11.3691 11.5707 11.1728 12.3065 10.9882C12.3962 10.9648 12.5392 11.0019 12.6049 11.0662C12.7934 11.2482 12.9812 11.4315 13.1671 11.6161" stroke="#3F4A54" stroke-width="0.8" stroke-linecap="round" stroke-linejoin="round"/>
</svg>
