<svg width="40" height="40" viewBox="0 0 40 40" fill="none" xmlns="http://www.w3.org/2000/svg">
<rect width="40" height="40" fill="white" fill-opacity="0.01"/>
<path d="M20.6035 4.64951V9.40651" stroke="#3F4A54" stroke-linecap="round" stroke-linejoin="round"/>
<path fill-rule="evenodd" clip-rule="evenodd" d="M19.0565 29.2549C19.2795 29.3199 19.4135 29.5529 19.3495 29.7759L18.7305 32.0359L18.3815 33.3009L18.1215 34.2399C18.0465 34.5249 17.7535 34.6919 17.4705 34.6119L15.2935 34.0179V34.0129L16.7685 28.6269L19.0565 29.2549Z" fill="#FDE897"/>
<path fill-rule="evenodd" clip-rule="evenodd" d="M16.7684 28.627L15.2934 34.013L11.5784 32.994C11.3174 32.925 11.1684 32.654 11.2384 32.399L12.4944 27.841C12.5454 27.642 12.7544 27.525 12.9504 27.576L16.7684 28.627Z" fill="#FDE897"/>
<path d="M18.3817 33.3038L18.1227 34.2418C18.0457 34.5258 17.7537 34.6918 17.4707 34.6138L11.5767 32.9928C11.3197 32.9228 11.1677 32.6568 11.2387 32.3988L12.4917 27.8388C12.5467 27.6408 12.7527 27.5238 12.9507 27.5778L19.0557 29.2568C19.2807 29.3188 19.4127 29.5508 19.3517 29.7768L18.7307 32.0338" stroke="#3F4A54" stroke-linecap="round" stroke-linejoin="round"/>
<path d="M13.7627 22.7559V25.8089C13.7627 26.5389 14.1037 27.2319 14.6967 27.6589C15.2157 28.0329 15.9417 28.3979 16.8467 28.4599C17.7347 28.5219 18.5337 28.2929 19.1777 27.9389C20.1467 27.4059 20.7227 26.3619 20.7227 25.2569V20.7979C20.7227 19.9409 20.0797 19.1729 19.2247 19.1279C18.3117 19.0799 17.5567 19.8059 17.5567 20.7089V24.1479" stroke="#3F4A54" stroke-linecap="round" stroke-linejoin="round"/>
<path d="M14.6445 20.9434L18.3795 12.8234" stroke="#3F4A54" stroke-linecap="round" stroke-linejoin="round"/>
<path d="M20.6035 13.8848L17.6265 20.1198" stroke="#3F4A54" stroke-linecap="round" stroke-linejoin="round"/>
<path d="M20.6054 13.8858C20.6804 13.7288 20.7224 13.5538 20.7224 13.3678C20.7224 12.7048 20.1844 12.1668 19.5214 12.1668C19.0244 12.1668 18.5624 12.3928 18.3794 12.8238" stroke="#3F4A54" stroke-linecap="round" stroke-linejoin="round"/>
<path d="M15.2939 7.67191L16.5129 9.85091" stroke="#3F4A54" stroke-linecap="round" stroke-linejoin="round"/>
<path d="M8.65039 8.3838L14.6444 12.3398" stroke="#3F4A54" stroke-linecap="round" stroke-linejoin="round"/>
<path d="M9.85059 15.3174L13.2286 14.8284" stroke="#3F4A54" stroke-linecap="round" stroke-linejoin="round"/>
<path fill-rule="evenodd" clip-rule="evenodd" d="M22.4072 29.2549C22.1842 29.3199 22.0502 29.5529 22.1142 29.7759L22.7332 32.0359L23.0822 33.3009L23.3432 34.2399C23.4172 34.5249 23.7102 34.6919 23.9932 34.6119L26.1702 34.0179V34.0129L24.6962 28.6269L22.4072 29.2549Z" fill="#FDE897"/>
<path fill-rule="evenodd" clip-rule="evenodd" d="M24.696 28.627L26.17 34.013L29.885 32.994C30.146 32.925 30.295 32.654 30.225 32.399L28.969 27.841C28.919 27.642 28.709 27.525 28.513 27.576L24.696 28.627Z" fill="#FDE897"/>
<path d="M29.0204 33.2315L29.8864 32.9935C30.1444 32.9225 30.2954 32.6565 30.2254 32.3985L28.9714 27.8385C28.9164 27.6405 28.7114 27.5235 28.5124 27.5785L22.4084 29.2565C22.1834 29.3185 22.0504 29.5505 22.1124 29.7765L22.7334 32.0345" stroke="#3F4A54" stroke-linecap="round" stroke-linejoin="round"/>
<path d="M23.082 33.3038L23.341 34.2418C23.418 34.5258 23.711 34.6918 23.993 34.6138L27.702 33.5938" stroke="#3F4A54" stroke-linecap="round" stroke-linejoin="round"/>
<path d="M27.7022 22.7559V25.8089C27.7022 26.5389 27.3602 27.2319 26.7672 27.6589C26.2482 28.0329 25.5222 28.3979 24.6172 28.4599C23.7292 28.5219 22.9312 28.2929 22.2862 27.9389C21.3172 27.4059 20.7422 26.3619 20.7422 25.2569V20.7979C20.7422 19.9409 21.3842 19.1729 22.2402 19.1279C23.1522 19.0799 23.9082 19.8059 23.9082 20.7089V24.1479" stroke="#3F4A54" stroke-linecap="round" stroke-linejoin="round"/>
<path d="M26.8195 20.9434L23.0845 12.8234" stroke="#3F4A54" stroke-linecap="round" stroke-linejoin="round"/>
<path d="M20.8604 13.8848L23.8384 20.1198" stroke="#3F4A54" stroke-linecap="round" stroke-linejoin="round"/>
<path d="M20.8582 13.8858C20.7842 13.7288 20.7422 13.5538 20.7422 13.3678C20.7422 12.7048 21.2792 12.1668 21.9422 12.1668C22.4392 12.1668 22.9012 12.3928 23.0842 12.8238" stroke="#3F4A54" stroke-linecap="round" stroke-linejoin="round"/>
<path d="M26.1697 7.67191L24.9507 9.85091" stroke="#3F4A54" stroke-linecap="round" stroke-linejoin="round"/>
<path d="M32.8143 8.3838L26.8193 12.3398" stroke="#3F4A54" stroke-linecap="round" stroke-linejoin="round"/>
<path d="M31.6143 15.3174L28.2363 14.8284" stroke="#3F4A54" stroke-linecap="round" stroke-linejoin="round"/>
</svg>
