<svg width="40" height="40" viewBox="0 0 40 40" fill="none" xmlns="http://www.w3.org/2000/svg">
<rect width="40" height="40" fill="white" fill-opacity="0.01"/>
<path fill-rule="evenodd" clip-rule="evenodd" d="M22.4507 20.5651H10.9507L13.0907 33.4051C13.1827 33.9601 13.6627 34.3661 14.2247 34.3661H26.0767C26.6387 34.3661 27.1187 33.9601 27.2117 33.4051L29.3507 20.5651H22.4507Z" fill="#CB93A6"/>
<path fill-rule="evenodd" clip-rule="evenodd" d="M21.4134 23.608L19.9094 27.465H8.64941L10.9504 20.565L22.6944 20.516" fill="white"/>
<path d="M21.4134 23.608L19.9094 27.465H8.64941L10.9504 20.565L29.1384 20.483L27.2114 33.405C27.2114 33.405 27.0454 34.405 25.9004 34.366H14.2254C14.2254 34.366 13.1424 34.514 13.0904 33.405L12.3824 29.577" stroke="#3F4A54" stroke-linecap="round" stroke-linejoin="round"/>
<path d="M30.9028 24.0348L32.0218 27.4208" stroke="#3F4A54" stroke-linecap="round" stroke-linejoin="round"/>
<path d="M29.3511 34.3727H14.9761" stroke="#3F4A54" stroke-linecap="round" stroke-linejoin="round"/>
<path d="M22.4507 29.567V34.108" stroke="#3F4A54" stroke-linecap="round" stroke-linejoin="round"/>
<path d="M24.8088 6.65001L22.6948 18.577" stroke="#3F4A54" stroke-linecap="round" stroke-linejoin="round"/>
<path d="M17.9048 6.65001C18.4148 9.26601 18.8788 11.649 19.3868 14.264" stroke="#3F4A54" stroke-linecap="round" stroke-linejoin="round"/>
<path d="M24.9878 16.4225C25.4308 16.5985 26.7168 17.0275 27.3828 18.5765" stroke="#3F4A54" stroke-linecap="round" stroke-linejoin="round"/>
<path d="M12.353 18.5768C12.353 18.5768 13.522 16.7498 16.423 17.0128C16.423 17.0128 17.942 17.3788 19.254 16.5418C19.752 16.2228 20.57 15.5768 21.405 15.7138" stroke="#3F4A54" stroke-linecap="round" stroke-linejoin="round"/>
</svg>
