<svg width="40" height="40" viewBox="0 0 40 40" fill="none" xmlns="http://www.w3.org/2000/svg">
<rect width="40" height="40" fill="white" fill-opacity="0.01"/>
<path d="M26.3179 17.2018H28.7089" stroke="#F85F5F" stroke-linecap="round" stroke-linejoin="round"/>
<path d="M14.8569 17.2018H24.3489" stroke="#F85F5F" stroke-linecap="round" stroke-linejoin="round"/>
<path d="M14.8569 20.2018H28.7089" stroke="#F85F5F" stroke-linecap="round" stroke-linejoin="round"/>
<path d="M14.8569 23.2018H28.7089" stroke="#F85F5F" stroke-linecap="round" stroke-linejoin="round"/>
<path d="M19.4429 26.2018H28.7089" stroke="#F85F5F" stroke-linecap="round" stroke-linejoin="round"/>
<path d="M14.8569 26.2018H16.7549" stroke="#F85F5F" stroke-linecap="round" stroke-linejoin="round"/>
<path d="M14.8569 29.2018H28.7089" stroke="#F85F5F" stroke-linecap="round" stroke-linejoin="round"/>
<path d="M14.2749 7.79307C14.0182 7.89482 13.8926 8.18541 13.9943 8.44212C14.0961 8.69884 14.3866 8.82446 14.6434 8.72272L14.2749 7.79307ZM14.9501 8.0619L15.1344 8.52672L15.1348 8.52654L14.9501 8.0619ZM15.8871 7.6999L16.0059 8.18558L16.0073 8.18524L15.8871 7.6999ZM16.8621 7.6039L16.7833 8.09764L16.784 8.09775L16.8621 7.6039ZM24.7261 7.6039L24.6486 7.10995L24.6474 7.11013L24.7261 7.6039ZM25.6971 7.7159L25.8782 7.24983L25.8768 7.2493L25.6971 7.7159ZM34.1971 11.0659L34.3813 10.601L34.381 10.6009L34.1971 11.0659ZM34.8621 12.2579L34.3727 12.1555L34.3726 12.1561L34.8621 12.2579ZM33.8031 17.1679L34.2918 17.2736L34.2919 17.2733L33.8031 17.1679ZM33.0451 17.5979L32.9436 18.0875L32.9439 18.0875L33.0451 17.5979ZM32.1649 16.9054C31.8946 16.8491 31.6298 17.0227 31.5736 17.2931C31.5174 17.5635 31.691 17.8282 31.9613 17.8844L32.1649 16.9054ZM30.2113 17.5268C30.4818 17.5819 30.7459 17.4072 30.801 17.1366C30.856 16.8661 30.6813 16.602 30.4108 16.547L30.2113 17.5268ZM29.811 16.9349L29.7124 17.4251L29.7135 17.4253L29.811 16.9349ZM29.228 16.8359L29.3109 16.3428C29.1658 16.3184 29.0174 16.3592 28.9051 16.4542C28.7928 16.5492 28.728 16.6888 28.728 16.8359H29.228ZM28.382 32.4189L28.3821 32.9189H28.3827L28.382 32.4189ZM13.145 32.4189L13.1451 31.9189H13.145V32.4189ZM12.856 31.6149C12.856 31.3388 12.6321 31.1149 12.356 31.1149C12.0799 31.1149 11.856 31.3388 11.856 31.6149H12.856ZM11.8522 29.7399C11.8522 30.016 12.0761 30.2399 12.3522 30.2399C12.6284 30.2399 12.8522 30.016 12.8522 29.7399H11.8522ZM12.3532 16.8189H12.8532C12.8532 16.6688 12.7859 16.5267 12.6697 16.4318C12.5535 16.3368 12.4008 16.299 12.2537 16.3289L12.3532 16.8189ZM10.0212 17.2939L9.92155 16.8039L9.92136 16.804L10.0212 17.2939ZM8.47525 17.6079L8.57331 18.0982L8.57422 18.098L8.47525 17.6079ZM7.77025 17.1739L7.28167 17.2802L7.28174 17.2805L7.77025 17.1739ZM6.60225 11.8969L6.11366 12.0031L6.11387 12.0041L6.60225 11.8969ZM7.08125 11.1889L6.89748 10.7239L6.89745 10.7239L7.08125 11.1889ZM12.0872 9.20089L11.9034 8.73591L11.9021 8.73645L12.0872 9.20089ZM13.0456 9.35726C13.3021 9.25487 13.427 8.96397 13.3246 8.70751C13.2222 8.45105 12.9313 8.32615 12.6749 8.42853L13.0456 9.35726ZM14.6434 8.72272C14.7264 8.68982 14.809 8.65673 14.8906 8.62404C14.9725 8.59123 15.0534 8.55882 15.1344 8.52672L14.7659 7.59707C14.6829 7.62997 14.6003 7.66306 14.5187 7.69576C14.4368 7.72856 14.3559 7.76097 14.2749 7.79307L14.6434 8.72272ZM15.1348 8.52654C15.516 8.37506 15.726 8.25405 16.0059 8.18558L15.7683 7.21421C15.4023 7.30374 15.0083 7.50074 14.7655 7.59725L15.1348 8.52654ZM16.0073 8.18524C16.3215 8.10743 16.5801 8.06519 16.7833 8.09764L16.941 7.11016C16.5181 7.0426 16.0827 7.13636 15.767 7.21455L16.0073 8.18524ZM16.784 8.09775C19.4584 8.52088 22.1293 8.52403 24.8048 8.09766L24.6474 7.11013C22.077 7.51976 19.5119 7.51691 16.9403 7.11004L16.784 8.09775ZM24.8037 8.09784C25.0206 8.06378 25.2949 8.09679 25.5174 8.18249L25.8768 7.2493C25.5073 7.107 25.0557 7.04601 24.6486 7.10995L24.8037 8.09784ZM25.5161 8.18196C28.3532 9.28423 31.1797 10.4102 34.0133 11.5309L34.381 10.6009C31.5506 9.48155 28.7191 8.35356 25.8782 7.24983L25.5161 8.18196ZM34.013 11.5308C34.2269 11.6155 34.3527 11.6664 34.4379 11.7114C34.521 11.7553 34.4956 11.7589 34.4689 11.7121C34.4401 11.6617 34.4564 11.636 34.4499 11.7191C34.443 11.8073 34.4189 11.9349 34.3727 12.1555L35.3515 12.3603C35.3944 12.1554 35.4339 11.9617 35.4468 11.7973C35.4601 11.6278 35.4524 11.418 35.3374 11.2164C35.2244 11.0185 35.0505 10.904 34.9045 10.8269C34.7605 10.751 34.5764 10.6783 34.3813 10.601L34.013 11.5308ZM34.3726 12.1561C34.032 13.794 33.6685 15.4203 33.3144 17.0625L34.2919 17.2733C34.6438 15.6415 35.0102 14.0018 35.3517 12.3597L34.3726 12.1561ZM33.3144 17.0622C33.3013 17.123 33.2871 17.1445 33.2865 17.1453C33.2864 17.1454 33.289 17.1417 33.2948 17.1366C33.3007 17.1315 33.3072 17.1274 33.3129 17.1246C33.3243 17.119 33.322 17.1238 33.2932 17.1248C33.2632 17.126 33.2158 17.1226 33.1464 17.1083L32.9439 18.0875C33.1745 18.1352 33.4738 18.1591 33.7521 18.023C34.0599 17.8724 34.2238 17.5883 34.2918 17.2736L33.3144 17.0622ZM33.1466 17.1083C32.816 17.0398 32.4928 16.9736 32.1649 16.9054L31.9613 17.8844C32.2874 17.9522 32.6182 18.02 32.9436 18.0875L33.1466 17.1083ZM30.4108 16.547C30.2479 16.5138 30.0756 16.4777 29.9085 16.4445L29.7135 17.4253C29.8784 17.4581 30.0401 17.492 30.2113 17.5268L30.4108 16.547ZM29.9096 16.4447C29.7306 16.4087 29.5379 16.381 29.3109 16.3428L29.1451 17.329C29.4061 17.3728 29.5534 17.3931 29.7124 17.4251L29.9096 16.4447ZM28.728 16.8359V17.3919H29.728V16.8359H28.728ZM28.728 17.3919V31.5629H29.728V17.3919H28.728ZM28.728 31.5629C28.728 31.7594 28.7226 31.8734 28.7109 31.9457C28.6996 32.015 28.6921 31.9792 28.739 31.9318C28.7866 31.8836 28.824 31.8903 28.7575 31.9014C28.6874 31.9131 28.5757 31.9186 28.3814 31.9189L28.3827 32.9189C28.5743 32.9187 28.7614 32.9146 28.9222 32.8877C29.0868 32.8603 29.2874 32.7994 29.45 32.635C29.6119 32.4713 29.6712 32.2706 29.6979 32.1063C29.7241 31.945 29.728 31.7569 29.728 31.5629H28.728ZM28.3819 31.9189C23.303 31.9199 18.224 31.9199 13.1451 31.9189L13.1449 32.9189C18.224 32.9199 23.303 32.9199 28.3821 32.9189L28.3819 31.9189ZM13.145 31.9189C12.9645 31.9189 12.8638 31.9135 12.8024 31.903C12.7453 31.8933 12.7877 31.8893 12.8383 31.941C12.8875 31.9913 12.8819 32.0308 12.8717 31.9683C12.8611 31.9031 12.856 31.7984 12.856 31.6149H11.856C11.856 31.7964 11.8596 31.9747 11.8846 32.1286C11.9101 32.2853 11.9668 32.4802 12.1235 32.6403C12.2814 32.8018 12.4762 32.8619 12.6344 32.8888C12.7884 32.9151 12.966 32.9189 13.145 32.9189V31.9189ZM12.8522 29.7399C12.8522 27.8464 12.8525 25.6222 12.8527 23.4585C12.853 21.2947 12.8532 19.1914 12.8532 17.5399H11.8532C11.8532 19.1914 11.853 21.2946 11.8527 23.4583C11.8525 25.6221 11.8522 27.8464 11.8522 29.7399H12.8522ZM12.8532 17.5399V16.8189H11.8532V17.5399H12.8532ZM12.2537 16.3289C11.4169 16.4989 10.6676 16.6521 9.92155 16.8039L10.1209 17.7839C10.8689 17.6317 11.6156 17.4789 12.4528 17.3089L12.2537 16.3289ZM9.92136 16.804C9.40646 16.909 8.89082 17.0139 8.37628 17.1178L8.57422 18.098C9.08968 17.9939 9.60604 17.8888 10.1211 17.7838L9.92136 16.804ZM8.37719 17.1176C8.31432 17.1302 8.276 17.1313 8.25636 17.1299C8.23881 17.1287 8.24531 17.1262 8.26218 17.1357C8.281 17.1462 8.28949 17.1585 8.28886 17.1576C8.2861 17.1532 8.27208 17.1284 8.25876 17.0673L7.28174 17.2805C7.34415 17.5666 7.48569 17.8465 7.77257 18.0076C8.04328 18.1596 8.33921 18.145 8.57331 18.0982L8.37719 17.1176ZM8.25883 17.0676C7.87646 15.3096 7.47481 13.5405 7.09063 11.7897L6.11387 12.0041C6.50169 13.7713 6.89804 15.5162 7.28167 17.2802L8.25883 17.0676ZM7.09084 11.7907C7.081 11.7454 7.08536 11.7305 7.08437 11.7356C7.08283 11.7435 7.07809 11.7527 7.07507 11.7565C7.07446 11.7573 7.08354 11.7456 7.11626 11.7252C7.14937 11.7045 7.19713 11.6807 7.26505 11.6539L6.89745 10.7239C6.70584 10.7996 6.4625 10.9188 6.29043 11.1365C6.09421 11.3849 6.04511 11.6878 6.11366 12.0031L7.09084 11.7907ZM7.26502 11.6539C8.93562 10.9937 10.6041 10.3305 12.2724 9.66534L11.9021 8.73645C10.2344 9.40132 8.56688 10.0641 6.89748 10.7239L7.26502 11.6539ZM12.2711 9.66588C12.5301 9.56347 12.7885 9.45992 13.0456 9.35726L12.6749 8.42853C12.416 8.53186 12.1604 8.63432 11.9034 8.73591L12.2711 9.66588Z" fill="#3F4A54"/>
<path d="M16.0052 7.91582C15.9907 7.64006 15.7554 7.42823 15.4797 7.44269C15.2039 7.45715 14.9921 7.69242 15.0065 7.96818L16.0052 7.91582ZM21.1469 12.573L21.1188 12.0738L21.1185 12.0738L21.1469 12.573ZM23.0924 12.5863C23.3444 12.4733 23.4571 12.1775 23.3441 11.9255C23.2312 11.6735 22.9353 11.5608 22.6834 11.6737L23.0924 12.5863ZM24.3517 10.5222C24.1564 10.7174 24.1562 11.034 24.3513 11.2293C24.5465 11.4247 24.863 11.4249 25.0584 11.2298L24.3517 10.5222ZM26.5186 7.92318C26.4978 7.64783 26.2576 7.44155 25.9823 7.46243C25.7069 7.48332 25.5006 7.72346 25.5215 7.99881L26.5186 7.92318ZM15.0065 7.96818C15.1643 10.9776 18.0786 13.2483 21.1753 13.0722L21.1185 12.0738C18.4831 12.2237 16.1294 10.2844 16.0052 7.91582L15.0065 7.96818ZM21.1749 13.0722C21.8328 13.0353 22.4854 12.8583 23.0924 12.5863L22.6834 11.6737C22.1703 11.9037 21.6369 12.0447 21.1188 12.0738L21.1749 13.0722ZM25.0584 11.2298C25.9689 10.3203 26.6098 9.12461 26.5186 7.92318L25.5215 7.99881C25.5824 8.80139 25.1472 9.72769 24.3517 10.5222L25.0584 11.2298Z" fill="#3F4A54"/>
</svg>
