<svg width="40" height="40" viewBox="0 0 40 40" fill="none" xmlns="http://www.w3.org/2000/svg">
<rect width="40" height="40" fill="white" fill-opacity="0.01"/>
<path fill-rule="evenodd" clip-rule="evenodd" d="M11.0633 20.0715C12.8273 20.0715 14.2693 21.5145 14.2693 23.2775V28.2405H26.1883V23.2775C26.1883 21.5145 27.6313 20.0715 29.3943 20.0715L28.9563 17.2375C28.9563 17.2375 18.4063 14.7635 10.7043 17.9515L11.0633 20.0715Z" fill="#6D70B6"/>
<path fill-rule="evenodd" clip-rule="evenodd" d="M20.3147 26.0451H18.4387C18.0307 26.0451 17.6987 25.7341 17.6987 25.3501V22.2791C17.6987 21.0661 18.7567 20.0711 20.0497 20.0711C21.3437 20.0711 22.4017 21.0661 22.4017 22.2791V25.3501" fill="white"/>
<path fill-rule="evenodd" clip-rule="evenodd" d="M19.7857 26.0451H21.6617C22.0707 26.0451 22.4017 25.7341 22.4017 25.3501V22.2791C22.4017 21.0661 21.3447 20.0711 20.0507 20.0711C18.7577 20.0711 17.6987 21.0661 17.6987 22.2791V25.3501" fill="white"/>
<path d="M28.2778 12.3849C28.6748 12.9929 28.9058 13.7199 28.9058 14.4969L29.5538 19.6809" stroke="#3F4A54" stroke-linecap="round" stroke-linejoin="round"/>
<path d="M10.7036 19.6808L11.3506 14.4968C11.3506 12.3578 13.1016 10.6078 15.2406 10.6078H25.0166C25.6336 10.6078 26.2176 10.7528 26.7366 11.0108" stroke="#3F4A54" stroke-linecap="round" stroke-linejoin="round"/>
<path d="M20.0503 8.6496H21.2443C21.7333 8.6496 22.1323 8.8946 22.1323 9.1946L22.2803 9.7916" stroke="#3F4A54" stroke-linecap="round" stroke-linejoin="round"/>
<path d="M17.977 9.79121L18.125 9.19421" stroke="#3F4A54" stroke-linecap="round" stroke-linejoin="round"/>
<path d="M7.85693 27.9406V22.9776C7.85693 21.2136 9.29993 19.7716 11.0629 19.7716C12.8269 19.7716 14.2689 21.2136 14.2689 22.9776V27.9406" stroke="#3F4A54" stroke-linecap="round" stroke-linejoin="round"/>
<path d="M26.188 27.9406V22.9776C26.188 21.2136 27.631 19.7716 29.394 19.7716C31.158 19.7716 32.6 21.2136 32.6 22.9776V27.9406" stroke="#3F4A54" stroke-linecap="round" stroke-linejoin="round"/>
<path d="M20.3147 26.0451H18.4387C18.0307 26.0451 17.6987 25.7341 17.6987 25.3501V22.2791C17.6987 21.0661 18.7567 20.0711 20.0497 20.0711C21.3437 20.0711 22.4017 21.0661 22.4017 22.2791V25.3501" stroke="#3F4A54" stroke-linecap="round" stroke-linejoin="round"/>
<path d="M23.9683 28.217H33.8073" stroke="#3F4A54" stroke-linecap="round" stroke-linejoin="round"/>
<path d="M6.6499 28.217H21.6559" stroke="#3F4A54" stroke-linecap="round" stroke-linejoin="round"/>
<path d="M15.8364 16.9162C18.8844 16.6332 23.4244 16.6182 29.3094 17.7212" stroke="#3F4A54" stroke-linecap="round" stroke-linejoin="round"/>
<path d="M11.3208 17.7209C11.3208 17.7209 12.0298 17.4799 13.4058 17.2379" stroke="#3F4A54" stroke-linecap="round" stroke-linejoin="round"/>
<path fill-rule="evenodd" clip-rule="evenodd" d="M12.5006 23.3117C12.5006 24.1897 11.7886 24.9017 10.9106 24.9017C10.0326 24.9017 9.32056 24.1897 9.32056 23.3117C9.32056 22.4337 10.0326 21.7217 10.9106 21.7217C11.7886 21.7217 12.5006 22.4337 12.5006 23.3117Z" fill="white"/>
<path d="M31.4058 31.0412H10.0308" stroke="#3F4A54" stroke-linecap="round" stroke-linejoin="round"/>
<path d="M12.7213 28.217V29.89C12.7213 30.508 11.9933 31.013 11.1033 31.013H10.6673C9.77734 31.013 9.04834 30.508 9.04834 29.89V28.217" stroke="#3F4A54" stroke-linecap="round" stroke-linejoin="round"/>
<path d="M31.0524 28.217V29.89C31.0524 30.508 30.3244 31.013 29.4344 31.013H28.9984C28.1084 31.013 27.3794 30.508 27.3794 29.89V28.217" stroke="#3F4A54" stroke-linecap="round" stroke-linejoin="round"/>
<path d="M12.3306 22.9865C12.3546 23.0905 12.3676 23.1995 12.3676 23.3115C12.3676 24.1165 11.7156 24.7675 10.9106 24.7675C10.1056 24.7675 9.45361 24.1165 9.45361 23.3115C9.45361 22.5075 10.1056 21.8545 10.9106 21.8545" stroke="#3F4A54" stroke-linecap="round" stroke-linejoin="round"/>
<path fill-rule="evenodd" clip-rule="evenodd" d="M31.1441 23.2531C31.1441 24.1311 30.4321 24.8431 29.5541 24.8431C28.6761 24.8431 27.9641 24.1311 27.9641 23.2531C27.9641 22.3751 28.6761 21.6631 29.5541 21.6631C30.4321 21.6631 31.1441 22.3751 31.1441 23.2531Z" fill="white"/>
<path d="M30.9742 22.9279C30.9982 23.0319 31.0112 23.1409 31.0112 23.2529C31.0112 24.0579 30.3592 24.7089 29.5542 24.7089C28.7492 24.7089 28.0972 24.0579 28.0972 23.2529C28.0972 22.4489 28.7492 21.7959 29.5542 21.7959" stroke="#3F4A54" stroke-linecap="round" stroke-linejoin="round"/>
</svg>
