<svg width="40" height="40" viewBox="0 0 40 40" fill="none" xmlns="http://www.w3.org/2000/svg">
<rect width="40" height="40" fill="white" fill-opacity="0.01"/>
<path fill-rule="evenodd" clip-rule="evenodd" d="M16.1841 12.6374L16.5041 10.3784L23.5771 11.3814" fill="white"/>
<path d="M16.1841 12.6374L16.5041 10.3784L23.5771 11.3814" stroke="#3F4A54" stroke-linecap="round" stroke-linejoin="round"/>
<path fill-rule="evenodd" clip-rule="evenodd" d="M26.7465 12.6403L28.0555 16.3823L22.5805 18.2973L20.6655 12.8233L26.1405 10.9083" fill="white"/>
<path d="M26.7465 12.6403L28.0555 16.3823L22.5805 18.2973L20.6655 12.8233L26.1405 10.9083" stroke="#3F4A54" stroke-linecap="round" stroke-linejoin="round"/>
<path fill-rule="evenodd" clip-rule="evenodd" d="M17.0015 14.4154L18.1745 22.4814H27.2605L31.2675 14.4174V14.4154H17.0015Z" fill="#69D1D2"/>
<path d="M29.7906 31.0485H17.4146" stroke="#3F4A54" stroke-linecap="round" stroke-linejoin="round"/>
<path d="M26.2515 24.8405H27.2605" stroke="#3F4A54" stroke-linecap="round" stroke-linejoin="round"/>
<path d="M8.65015 9.6501H10.4071C11.0711 9.6501 11.6481 10.1051 11.8011 10.7511L14.8111 23.3721C15.0161 24.2331 15.7861 24.8401 16.6711 24.8401H24.2111" stroke="#3F4A54" stroke-linecap="round" stroke-linejoin="round"/>
<path d="M20.1357 28.7389C20.1657 28.8749 20.1827 29.0159 20.1827 29.1609C20.1827 30.2029 19.3377 31.0489 18.2947 31.0489C17.2527 31.0489 16.4077 30.2029 16.4077 29.1609C16.4077 28.1179 17.2527 27.2729 18.2947 27.2729C18.5557 27.2729 18.8037 27.3259 19.0307 27.4219" stroke="#3F4A54" stroke-linecap="round" stroke-linejoin="round"/>
<path d="M27.1357 28.7389C27.1657 28.8749 27.1827 29.0159 27.1827 29.1609C27.1827 30.2029 26.3377 31.0489 25.2947 31.0489C24.2527 31.0489 23.4077 30.2029 23.4077 29.1609C23.4077 28.1179 24.2527 27.2729 25.2947 27.2729C25.5557 27.2729 25.8037 27.3259 26.0307 27.4219" stroke="#3F4A54" stroke-linecap="round" stroke-linejoin="round"/>
<path d="M29.5993 16.1901L27.2603 22.4811H15.3523" stroke="#3F4A54" stroke-linecap="round" stroke-linejoin="round"/>
<path d="M12.6755 14.4157H30.2685" stroke="#3F4A54" stroke-linecap="round" stroke-linejoin="round"/>
<path d="M23.7468 18.7086H25.2368" stroke="#3F4A54" stroke-linecap="round" stroke-linejoin="round"/>
<path d="M14.4148 18.7086H21.0928" stroke="#3F4A54" stroke-linecap="round" stroke-linejoin="round"/>
</svg>
