<svg width="40" height="40" viewBox="0 0 40 40" fill="none" xmlns="http://www.w3.org/2000/svg">
<rect width="40" height="40" fill="white" fill-opacity="0.01"/>
<path d="M30.0063 31.8605H18.6313" stroke="#3F4A54" stroke-linecap="round" stroke-linejoin="round"/>
<path fill-rule="evenodd" clip-rule="evenodd" d="M21.5162 19.1379C21.6352 19.2599 21.7532 19.3819 21.8712 19.5039C21.9752 19.6129 22.0342 19.8479 21.9962 19.9959C21.7192 21.1159 21.4202 22.2299 21.1062 23.3399C21.0662 23.4809 20.9232 23.6599 20.7912 23.6979C19.6432 24.0269 18.4872 24.3259 17.3322 24.6349C17.2922 24.6449 17.2512 24.6509 17.1382 24.6729C17.0862 24.6359 16.9832 24.5799 16.9032 24.4999C16.0642 23.6669 15.2232 22.8339 14.4002 21.9869C14.3112 21.8949 14.2642 21.6919 14.2952 21.5649C14.5852 20.4199 14.8892 19.2789 15.2122 18.1429C15.2512 18.0079 15.4142 17.8499 15.5512 17.8109C16.6732 17.4909 17.8012 17.1889 18.9332 16.9049C19.0712 16.8689 19.2912 16.9259 19.3922 17.0249C19.6822 17.3049 19.9712 17.5869 20.2572 17.8709" fill="#FFB0A6"/>
<path fill-rule="evenodd" clip-rule="evenodd" d="M13.2086 10.4602C13.1586 10.4882 13.1136 10.5222 13.0496 10.5382C10.8676 11.1042 9.56059 13.8042 8.80859 15.7642C8.81559 15.7622 8.82559 15.7602 8.83259 15.7582C9.98659 15.4502 11.1436 15.1492 12.2916 14.8212C12.4236 14.7842 12.5656 14.6052 12.6056 14.4632C12.9206 13.3542 13.2196 12.2392 13.4966 11.1192C13.5336 10.9722 13.4756 10.7362 13.3716 10.6282C13.3166 10.5712 13.2636 10.5162 13.2086 10.4602Z" fill="#FFB0A6"/>
<path fill-rule="evenodd" clip-rule="evenodd" d="M18.0429 8.01781C17.8449 8.74881 17.6409 9.47981 17.4549 10.2138C17.4229 10.3408 17.4699 10.5438 17.5589 10.6358C18.3829 11.4838 19.2229 12.3168 20.0629 13.1498C20.1429 13.2298 20.2459 13.2858 20.2979 13.3228C20.4099 13.2998 20.4509 13.2938 20.4909 13.2848C21.6459 12.9758 22.8029 12.6758 23.9509 12.3468C24.0819 12.3098 24.2259 12.1298 24.2659 11.9898C24.4999 11.1598 24.7159 10.3248 24.9309 9.48981C22.7299 8.55981 20.4719 8.10181 18.0429 8.01781Z" fill="#FFB0A6"/>
<path fill-rule="evenodd" clip-rule="evenodd" d="M26.6835 29.1047C27.6395 28.2337 28.4485 27.2877 29.2045 26.2677L28.9965 26.0587C28.7085 25.7747 28.4195 25.4927 28.1295 25.2117C28.0295 25.1137 27.8085 25.0567 27.6705 25.0917C26.5385 25.3757 25.4115 25.6777 24.2885 25.9987C24.1525 26.0377 23.9895 26.1957 23.9515 26.3307C23.6265 27.4657 23.3235 28.6077 23.0345 29.7517C23.0015 29.8787 23.0485 30.0827 23.1375 30.1737C23.4375 30.4817 23.7455 30.7837 24.0475 31.0877C25.0345 31.0007 26.0125 29.7147 26.6835 29.1047Z" fill="#FFB0A6"/>
<path fill-rule="evenodd" clip-rule="evenodd" d="M15.0163 31.6896C16.2053 32.1926 17.4873 32.2616 18.7683 32.2536C18.8083 32.0956 18.8553 31.9396 18.8943 31.7806C18.9313 31.6326 18.8723 31.3976 18.7683 31.2896C18.6513 31.1676 18.5323 31.0446 18.4133 30.9226L17.1553 29.6556C16.8683 29.3716 16.5793 29.0886 16.2893 28.8086C16.1883 28.7106 15.9683 28.6546 15.8303 28.6886C14.6993 28.9726 13.5713 29.2756 12.4483 29.5956C12.3123 29.6336 12.1483 29.7926 12.1103 29.9266C12.0803 30.0306 12.0563 30.1346 12.0273 30.2386C13.0843 30.6106 13.9813 31.2526 15.0163 31.6896Z" fill="#FFB0A6"/>
<path d="M25.0529 10.7285C25.124 10.4616 24.9653 10.1877 24.6984 10.1167C24.4316 10.0456 24.1577 10.2043 24.0866 10.4712L25.0529 10.7285ZM24.3368 11.5038L23.8441 11.4184L23.8441 11.4188L24.3368 11.5038ZM23.7416 11.4985C23.4741 11.5671 23.3129 11.8395 23.3814 12.107C23.45 12.3745 23.7224 12.5357 23.9899 12.4672L23.7416 11.4985ZM22.3199 12.8989C22.5867 12.8276 22.7452 12.5535 22.6739 12.2867C22.6025 12.0199 22.3285 11.8615 22.0617 11.9328L22.3199 12.8989ZM20.6788 12.8328L20.543 12.3516L20.541 12.3522L20.6788 12.8328ZM19.9978 12.6588L19.6366 13.0046L19.637 13.005L19.9978 12.6588ZM17.8668 10.5268L18.2118 10.1649L18.2108 10.164L17.8668 10.5268ZM17.5208 9.51284L17.9747 9.72263L17.9748 9.72237L17.5208 9.51284ZM17.8858 9.15549C17.7327 8.92573 17.4222 8.86364 17.1925 9.01682C16.9627 9.17 16.9006 9.48043 17.0538 9.71019L17.8858 9.15549ZM13.9382 10.9605C13.9667 10.6858 13.7671 10.44 13.4925 10.4115C13.2178 10.383 12.972 10.5825 12.9435 10.8572L13.9382 10.9605ZM13.3858 11.3998L13.8694 11.5271L13.8695 11.5264L13.3858 11.3998ZM12.5078 14.7058L12.0236 14.5813L12.0234 14.5821L12.5078 14.7058ZM12.1118 15.1058L12.2362 15.5901L12.238 15.5896L12.1118 15.1058ZM9.28483 15.8748L9.14699 15.3942L9.14563 15.3946L9.28483 15.8748ZM8.46523 15.9496C8.3552 16.2029 8.47133 16.4974 8.7246 16.6074C8.97788 16.7175 9.27239 16.6013 9.38242 16.3481L8.46523 15.9496ZM8.52187 20.3118C8.52187 20.0357 8.29802 19.8118 8.02187 19.8118C7.74573 19.8118 7.52187 20.0357 7.52187 20.3118H8.52187ZM8.21587 20.7718L8.57685 20.4258L8.57574 20.4247L8.21587 20.7718ZM10.0549 22.6118L9.71126 22.975L9.71166 22.9754L10.0549 22.6118ZM10.2199 23.2618L9.73891 23.1252L9.7387 23.1259L10.2199 23.2618ZM9.55387 25.7688L9.068 25.6508L9.06779 25.6517L9.55387 25.7688ZM9.19007 26.5603C9.33117 26.7977 9.63798 26.8757 9.87535 26.7346C10.1127 26.5935 10.1908 26.2867 10.0497 26.0493L9.19007 26.5603ZM12.6706 29.0084C12.4511 28.8409 12.1374 28.8829 11.9698 29.1024C11.8022 29.3219 11.8443 29.6357 12.0638 29.8032L12.6706 29.0084ZM12.9682 29.5058L12.8339 29.0242L12.8328 29.0245L12.9682 29.5058ZM15.8682 28.7138L15.732 28.2327L15.7319 28.2328L15.8682 28.7138ZM16.5112 28.8868L16.1507 29.2334L16.1515 29.2341L16.5112 28.8868ZM18.8092 31.2028L18.452 31.5527L18.4533 31.5541L18.8092 31.2028ZM18.8104 32.0539C18.9717 32.2781 19.2842 32.329 19.5083 32.1676C19.7324 32.0063 19.7833 31.6939 19.622 31.4697L18.8104 32.0539ZM22.8991 31.2084C23.0336 31.4495 23.3381 31.536 23.5793 31.4015C23.8205 31.267 23.9069 30.9624 23.7724 30.7213L22.8991 31.2084ZM22.9767 30.1738L23.4548 30.3204L23.4549 30.3199L22.9767 30.1738ZM23.8727 26.8718L24.3568 26.9972L24.3574 26.9946L23.8727 26.8718ZM24.3894 26.9505C24.6565 26.8806 24.8164 26.6073 24.7464 26.3402C24.6765 26.073 24.4032 25.9132 24.1361 25.9831L24.3894 26.9505ZM25.9346 25.5051C25.668 25.5771 25.5102 25.8515 25.5821 26.1181C25.6541 26.3847 25.9285 26.5425 26.1951 26.4706L25.9346 25.5051ZM27.6108 25.5838L27.4904 25.0986L27.4898 25.0987L27.6108 25.5838ZM28.0988 25.7338L27.7794 26.1185L27.7801 26.1191L28.0988 25.7338ZM28.4647 26.8257C28.6557 27.0251 28.9722 27.032 29.1717 26.841C29.3711 26.65 29.378 26.3335 29.187 26.134L28.4647 26.8257ZM30.6252 21.5749C30.8926 21.5057 31.0532 21.233 30.9841 20.9656C30.9149 20.6983 30.6421 20.5376 30.3748 20.6068L30.6252 21.5749ZM29.246 21.4238L29.3998 21.8996L29.4008 21.8993L29.246 21.4238ZM28.709 21.2848L28.3523 21.6352L28.3534 21.6363L28.709 21.2848ZM28.3946 20.2563C28.1993 20.061 27.8827 20.061 27.6875 20.2563C27.4922 20.4516 27.4922 20.7681 27.6875 20.9634L28.3946 20.2563ZM26.6664 19.9473C26.8633 20.1409 27.1799 20.1383 27.3735 19.9415C27.5672 19.7446 27.5646 19.428 27.3677 19.2344L26.6664 19.9473ZM26.2781 18.8698L25.9303 19.2291L25.9304 19.2292L26.2781 18.8698ZM26.1301 18.2888L26.6114 18.424L26.612 18.4221L26.1301 18.2888ZM27.0031 15.0238L27.488 15.1458L27.4884 15.1443L27.0031 15.0238ZM27.4581 14.5818L27.3562 14.0923L27.356 14.0924L27.4581 14.5818ZM28.7524 14.7689C29.0197 14.6997 29.1803 14.4269 29.1111 14.1596C29.0419 13.8922 28.7691 13.7316 28.5018 13.8008L28.7524 14.7689ZM27.7679 11.6617C27.5713 11.4679 27.2547 11.4702 27.0609 11.6668C26.867 11.8635 26.8693 12.1801 27.066 12.3739L27.7679 11.6617ZM28.203 12.8728L28.5875 12.5532L28.5874 12.5531L28.203 12.8728ZM30.86 20.2638L30.36 20.2619V20.262L30.86 20.2638ZM19.263 31.8608L19.2649 32.3608L19.265 32.3608L19.263 31.8608ZM7.67098 20.2538L8.17098 20.2557L8.17098 20.2556L7.67098 20.2538ZM19.294 8.67081L19.292 9.17081L19.2921 9.17081L19.294 8.67081ZM25.4323 11.0436C25.662 11.197 25.9725 11.1351 26.1258 10.9055C26.2792 10.6758 26.2173 10.3653 25.9876 10.212L25.4323 11.0436ZM24.0866 10.4712C24.0116 10.7531 23.9001 11.096 23.8441 11.4184L24.8294 11.5893C24.8755 11.3237 24.956 11.0926 25.0529 10.7285L24.0866 10.4712ZM23.8441 11.4188C23.8377 11.4557 23.8308 11.4718 23.8291 11.4754C23.8283 11.4772 23.8308 11.472 23.837 11.4659C23.8484 11.4548 23.8383 11.4737 23.7416 11.4985L23.9899 12.4672C24.1702 12.421 24.3712 12.3424 24.5365 12.1805C24.7088 12.0119 24.7926 11.8026 24.8295 11.5888L23.8441 11.4188ZM22.0617 11.9328C21.5536 12.0686 21.0472 12.2093 20.543 12.3517L20.8147 13.314C21.3164 13.1724 21.818 13.0331 22.3199 12.8989L22.0617 11.9328ZM20.541 12.3522C20.4386 12.3816 20.4174 12.3709 20.4281 12.3735C20.4436 12.3772 20.4245 12.3814 20.3586 12.3127L19.637 13.005C19.7831 13.1573 19.9615 13.2895 20.193 13.3455C20.4197 13.4003 20.633 13.3661 20.8166 13.3135L20.541 12.3522ZM20.359 12.3131C19.6597 11.5826 18.9452 10.864 18.2118 10.1649L17.5218 10.8888C18.2424 11.5756 18.946 12.2831 19.6366 13.0046L20.359 12.3131ZM18.2108 10.164C18.0503 10.0119 17.9828 9.9314 17.9545 9.87001C17.945 9.84937 17.9436 9.83768 17.9438 9.82743C17.9439 9.81554 17.9468 9.78297 17.9747 9.72263L17.067 9.30306C16.9059 9.65147 16.9067 9.98532 17.0461 10.2882C17.1659 10.5483 17.3753 10.7498 17.5228 10.8897L18.2108 10.164ZM17.9748 9.72237C18.0267 9.60999 18.0269 9.50371 18.0155 9.43048C18.0047 9.36136 17.9821 9.30921 17.9684 9.28119C17.9427 9.22836 17.9121 9.18882 17.9055 9.18024C17.8998 9.17267 17.8943 9.16576 17.8913 9.16195C17.8875 9.1571 17.886 9.1552 17.8842 9.1529C17.881 9.14884 17.8826 9.15065 17.8858 9.15549L17.0538 9.71019C17.07 9.73454 17.0852 9.75448 17.095 9.76704C17.0997 9.77305 17.1045 9.77909 17.1066 9.78178C17.1095 9.78552 17.1097 9.78576 17.1091 9.78495C17.1086 9.78424 17.1043 9.77866 17.0986 9.77008C17.0933 9.76226 17.0818 9.74447 17.0696 9.7195C17.0584 9.69654 17.0374 9.64902 17.0273 9.58407C17.0166 9.51501 17.0165 9.41245 17.0668 9.30332L17.9748 9.72237ZM12.9435 10.8572C12.9335 10.9537 12.927 11.0702 12.9224 11.1272C12.9166 11.1998 12.9103 11.2419 12.9021 11.2732L13.8695 11.5264C13.9003 11.4088 13.912 11.2969 13.9192 11.207C13.9277 11.1015 13.9292 11.047 13.9382 10.9605L12.9435 10.8572ZM12.9023 11.2726C12.6151 12.364 12.3074 13.4781 12.0236 14.5813L12.9921 14.8304C13.2763 13.7255 13.5766 12.6397 13.8694 11.5271L12.9023 11.2726ZM12.0234 14.5821C12.015 14.6148 12.0084 14.6293 12.0066 14.6329C12.0056 14.635 12.0089 14.628 12.0183 14.6185C12.0277 14.609 12.035 14.6052 12.0338 14.6059C12.0309 14.6073 12.0173 14.6137 11.9856 14.622L12.238 15.5896C12.4049 15.5461 12.5821 15.4706 12.7296 15.3214C12.8766 15.1727 12.95 14.9951 12.9923 14.8296L12.0234 14.5821ZM11.9874 14.6216C11.0367 14.8658 10.0892 15.124 9.14699 15.3942L9.42266 16.3555C10.3564 16.0877 11.2949 15.8319 12.2362 15.5901L11.9874 14.6216ZM9.14563 15.3946C9.01652 15.432 8.8877 15.4972 8.77846 15.5766C8.67615 15.651 8.5417 15.7736 8.46523 15.9496L9.38242 16.3481C9.37527 16.3645 9.36819 16.3762 9.36346 16.3832C9.35869 16.3903 9.35524 16.3942 9.35422 16.3953C9.35268 16.397 9.35617 16.393 9.36645 16.3855C9.37632 16.3783 9.38832 16.371 9.40072 16.3648C9.41344 16.3585 9.4219 16.3557 9.42403 16.3551L9.14563 15.3946ZM7.52187 20.3118C7.52187 20.6108 7.66768 20.9237 7.85601 21.119L8.57574 20.4247C8.57439 20.4233 8.56855 20.4168 8.56041 20.4041C8.55249 20.3917 8.54453 20.3769 8.53768 20.3609C8.5308 20.3448 8.52634 20.3306 8.52385 20.3199C8.52124 20.3087 8.52187 20.306 8.52187 20.3118H7.52187ZM7.8549 21.1178C8.45784 21.7469 9.07305 22.3713 9.71126 22.975L10.3985 22.2486C9.7767 21.6604 9.17391 21.0488 8.57685 20.4258L7.8549 21.1178ZM9.71166 22.9754C9.74174 23.0038 9.7542 23.0213 9.75843 23.028C9.76166 23.0331 9.75976 23.0313 9.75837 23.0252C9.75571 23.0136 9.76529 23.0323 9.73891 23.1252L10.7008 23.3985C10.7495 23.2273 10.7835 23.0221 10.7331 22.802C10.681 22.5745 10.554 22.3954 10.3981 22.2482L9.71166 22.9754ZM9.7387 23.1259C9.5029 23.9607 9.27406 24.8023 9.068 25.6508L10.0398 25.8868C10.2417 25.0553 10.4668 24.2269 10.701 23.3977L9.7387 23.1259ZM9.06779 25.6517C9.00364 25.9179 9.02565 26.2837 9.19007 26.5603L10.0497 26.0493C10.0529 26.0547 10.0506 26.0523 10.0467 26.0394C10.0429 26.027 10.0392 26.0098 10.0368 25.9888C10.0316 25.9433 10.0355 25.9046 10.04 25.886L9.06779 25.6517ZM12.0638 29.8032C12.2198 29.9224 12.393 30.0052 12.5908 30.0328C12.7822 30.0595 12.9564 30.0285 13.1036 29.9872L12.8328 29.0245C12.756 29.0461 12.7312 29.0427 12.7288 29.0424C12.7279 29.0422 12.7254 29.042 12.7189 29.039C12.7114 29.0357 12.6957 29.0276 12.6706 29.0084L12.0638 29.8032ZM13.1024 29.9875C14.0423 29.7255 15.0515 29.4648 16.0044 29.1949L15.7319 28.2328C14.7569 28.5089 13.8241 28.7482 12.8339 29.0242L13.1024 29.9875ZM16.0043 29.1949C16.0876 29.1714 16.1022 29.182 16.0885 29.1785C16.0734 29.1745 16.0911 29.1714 16.1507 29.2334L16.8716 28.5403C16.7322 28.3953 16.561 28.2681 16.3404 28.2107C16.1212 28.1537 15.9138 28.1813 15.732 28.2327L16.0043 29.1949ZM16.1515 29.2341C16.8995 30.0089 17.7121 30.7972 18.452 31.5527L19.1664 30.853C18.3843 30.0544 17.6328 29.3287 16.8709 28.5395L16.1515 29.2341ZM18.4533 31.5541C18.4966 31.5979 18.5406 31.6554 18.5999 31.743C18.6507 31.8179 18.7315 31.9444 18.8104 32.0539L19.622 31.4697C19.5518 31.3723 19.5052 31.2963 19.4277 31.182C19.3588 31.0802 19.2738 30.9618 19.165 30.8516L18.4533 31.5541ZM23.7724 30.7213C23.7047 30.5998 23.6189 30.5073 23.5641 30.4498C23.496 30.3785 23.4732 30.3573 23.4491 30.3265C23.4334 30.3064 23.4416 30.3112 23.4463 30.332C23.4515 30.3554 23.4434 30.3575 23.4548 30.3204L22.4987 30.0272C22.4451 30.2022 22.4319 30.3778 22.4703 30.55C22.5082 30.7197 22.588 30.8486 22.6609 30.9419C22.7253 31.0244 22.8079 31.1059 22.8405 31.1401C22.8622 31.1628 22.8761 31.1783 22.8862 31.1908C22.891 31.1967 22.8942 31.201 22.8962 31.204C22.8983 31.207 22.8991 31.2084 22.8991 31.2084L23.7724 30.7213ZM23.4549 30.3199C23.7919 29.2168 24.0724 28.0951 24.3568 26.9972L23.3887 26.7464C23.1011 27.8566 22.8276 28.9508 22.4986 30.0277L23.4549 30.3199ZM24.3574 26.9946C24.366 26.9609 24.3728 26.9446 24.3756 26.9388C24.3777 26.9344 24.3755 26.9402 24.3669 26.9493C24.363 26.9536 24.3589 26.9572 24.3551 26.96C24.3515 26.9629 24.3492 26.9641 24.3492 26.9641C24.3496 26.9639 24.3606 26.9581 24.3894 26.9505L24.1361 25.9831C23.9586 26.0296 23.7808 26.112 23.6365 26.2663C23.4957 26.4169 23.4276 26.5928 23.388 26.749L24.3574 26.9946ZM26.1951 26.4706C26.7087 26.332 27.2193 26.1969 27.7319 26.069L27.4898 25.0987C26.9684 25.2288 26.451 25.3657 25.9346 25.5051L26.1951 26.4706ZM27.7313 26.0691C27.7137 26.0735 27.7003 26.0748 27.6926 26.0751C27.6848 26.0755 27.6807 26.0751 27.6806 26.0751C27.6804 26.0751 27.6828 26.0753 27.6877 26.0764C27.6925 26.0775 27.6987 26.0791 27.7062 26.0816C27.7217 26.0867 27.7382 26.0938 27.7533 26.102C27.7688 26.1103 27.7774 26.1169 27.7794 26.1185L28.4183 25.3492C28.3025 25.253 28.1598 25.1782 28.0192 25.1318C27.8875 25.0884 27.6922 25.0485 27.4904 25.0986L27.7313 26.0691ZM27.7801 26.1191C28.0002 26.3012 28.1533 26.5005 28.4647 26.8257L29.187 26.134C28.9564 25.8932 28.6955 25.5785 28.4176 25.3486L27.7801 26.1191ZM30.3748 20.6068C29.9415 20.7189 29.5005 20.8151 29.0912 20.9484L29.4008 21.8993C29.7715 21.7786 30.1386 21.7008 30.6252 21.5749L30.3748 20.6068ZM29.0923 20.9481C29.0626 20.9576 29.0508 20.9584 29.0519 20.9583C29.0528 20.9583 29.0568 20.9581 29.0632 20.9586C29.0696 20.9592 29.077 20.9604 29.0847 20.9625C29.0923 20.9646 29.0985 20.967 29.1028 20.969C29.1071 20.971 29.1086 20.9721 29.1071 20.9712C29.1034 20.9687 29.0898 20.9589 29.0647 20.9334L28.3534 21.6363C28.4675 21.7518 28.6187 21.8723 28.8231 21.9277C29.0322 21.9843 29.2289 21.9548 29.3998 21.8996L29.0923 20.9481ZM29.0657 20.9345C28.8433 20.708 28.6191 20.4808 28.3946 20.2563L27.6875 20.9634C27.9089 21.1849 28.1308 21.4097 28.3523 21.6352L29.0657 20.9345ZM27.3677 19.2344C27.1217 18.9924 26.8738 18.7505 26.6258 18.5105L25.9304 19.2292C26.1764 19.4672 26.4224 19.7072 26.6664 19.9473L27.3677 19.2344ZM26.6258 18.5106C26.6012 18.4868 26.5924 18.4735 26.5906 18.4707C26.5897 18.4694 26.5933 18.4751 26.5957 18.4855C26.6007 18.5068 26.5902 18.4998 26.6114 18.424L25.6487 18.1536C25.604 18.3129 25.5734 18.5054 25.6219 18.7129C25.6717 18.926 25.7899 19.0931 25.9303 19.2291L26.6258 18.5106ZM26.612 18.4221C26.912 17.337 27.2114 16.245 27.488 15.1458L26.5182 14.9018C26.2447 15.9886 25.9481 17.0707 25.6482 18.1556L26.612 18.4221ZM27.4884 15.1443C27.5084 15.0634 27.5232 15.0649 27.5046 15.0827C27.4861 15.1005 27.4835 15.0873 27.5601 15.0713L27.356 14.0924C27.1737 14.1304 26.9771 14.2031 26.8125 14.3609C26.648 14.5187 26.5647 14.7142 26.5178 14.9034L27.4884 15.1443ZM27.5599 15.0714C27.9503 14.9902 28.3494 14.8732 28.7524 14.7689L28.5018 13.8008C28.0547 13.9165 27.7158 14.0175 27.3562 14.0923L27.5599 15.0714ZM27.066 12.3739C27.3304 12.6344 27.5822 12.9083 27.8186 13.1925L28.5874 12.5531C28.3298 12.2433 28.0556 11.9452 27.7679 11.6617L27.066 12.3739ZM27.8184 13.1924C29.4136 15.112 30.3705 17.5742 30.36 20.2619L31.36 20.2658C31.3715 17.3334 30.3263 14.6457 28.5875 12.5532L27.8184 13.1924ZM30.36 20.262C30.337 26.4516 25.4671 31.3359 19.261 31.3608L19.265 32.3608C26.0209 32.3337 31.335 27.004 31.36 20.2657L30.36 20.262ZM19.2611 31.3608C13.1296 31.3838 8.14802 26.353 8.17098 20.2557L7.17098 20.2519C7.14595 26.9006 12.5743 32.3859 19.2649 32.3608L19.2611 31.3608ZM8.17098 20.2556C8.19299 14.1329 13.1991 9.1469 19.292 9.17081L19.2959 8.17082C12.6468 8.14473 7.19497 13.5807 7.17098 20.252L8.17098 20.2556ZM19.2921 9.17081C21.5596 9.17942 23.6722 9.86832 25.4323 11.0436L25.9876 10.212C24.0697 8.9313 21.7663 8.1802 19.2959 8.17082L19.2921 9.17081Z" fill="#3F4A54"/>
<path d="M21.5162 19.1379C21.6352 19.2599 21.7532 19.3819 21.8712 19.5039C21.9752 19.6129 22.0342 19.8479 21.9962 19.9959C21.7192 21.1159 21.4202 22.2299 21.1062 23.3399C21.0662 23.4809 20.9232 23.6599 20.7912 23.6979C19.6432 24.0269 18.4872 24.3259 17.3322 24.6349C17.2922 24.6449 17.2512 24.6509 17.1382 24.6729C17.0862 24.6359 16.9832 24.5799 16.9032 24.4999C16.0642 23.6669 15.2232 22.8339 14.4002 21.9869C14.3112 21.8949 14.2642 21.6919 14.2952 21.5649C14.5852 20.4199 14.8892 19.2789 15.2122 18.1429C15.2512 18.0079 15.4142 17.8499 15.5512 17.8109C16.6732 17.4909 17.8012 17.1889 18.9332 16.9049C19.0712 16.8689 19.2912 16.9259 19.3922 17.0249C19.6822 17.3049 19.9712 17.5869 20.2572 17.8709" stroke="#3F4A54" stroke-linecap="round" stroke-linejoin="round"/>
</svg>
