<svg width="40" height="40" viewBox="0 0 40 40" fill="none" xmlns="http://www.w3.org/2000/svg">
<rect width="40" height="40" fill="white" fill-opacity="0.01"/>
<path fill-rule="evenodd" clip-rule="evenodd" d="M24.5693 17.7156C23.7023 18.6936 22.8923 19.5856 22.1143 20.5046C21.9923 20.6496 21.9483 20.9276 21.9823 21.1226C22.0983 21.7676 22.2783 22.4016 22.4123 23.0436C22.5753 23.8246 22.2923 24.4626 21.7043 24.6986C21.0693 24.9546 20.4393 24.6866 20.0013 23.9736C19.9663 23.9186 19.9203 23.8696 19.8993 23.8126C19.2313 21.9516 17.8653 20.9276 15.9983 20.4176C15.1183 20.1766 14.7623 19.5486 14.9233 18.8896C15.1063 18.1506 15.7503 17.7646 16.6423 17.8616C17.0213 17.9026 17.4153 17.8976 17.7763 18.0006C18.6543 18.2536 19.2323 17.9536 19.7303 17.2076C20.2323 16.4556 20.8563 15.7836 21.4733 15.0206C20.0533 14.3256 18.6683 13.6536 17.2893 12.9686C16.8543 12.7526 16.4223 12.5286 16.0163 12.2646C15.4783 11.9126 15.3863 11.3816 15.5803 10.8076C15.7883 10.1896 16.2943 9.9776 16.8883 10.0316C17.7313 10.1106 18.5683 10.2466 19.4083 10.3596C21.0033 10.5726 22.5953 10.8036 24.1933 10.9856C24.4603 11.0156 24.8183 10.9056 25.0193 10.7306C25.9433 9.9226 26.8323 9.0736 27.7223 8.2286C28.4653 7.5236 29.5483 7.4506 30.3143 8.0766C31.1343 8.7476 31.3033 9.7906 30.6843 10.6826C29.9723 11.7086 29.1983 12.6916 28.4973 13.7246C28.3353 13.9626 28.2483 14.3566 28.3163 14.6326C28.8783 16.9136 29.4843 19.1846 30.0753 21.4586C30.3153 22.3826 30.0913 22.9306 29.3533 23.2476C28.7393 23.5126 28.1483 23.2636 27.6613 22.5116C26.7983 21.1796 25.9443 19.8416 25.0873 18.5066C24.9523 18.2966 24.8133 18.0896 24.5693 17.7156Z" fill="#F2B7EE"/>
<path fill-rule="evenodd" clip-rule="evenodd" d="M19.1858 19.3836L30.3148 8.56959C29.5488 7.94359 28.4658 8.01559 27.7228 8.72059C26.8318 9.56659 25.9438 10.4146 25.0198 11.2226C24.8188 11.3986 24.4598 11.5076 24.1938 11.4776C22.5958 11.2966 21.0028 11.0656 19.4088 10.8516C18.5688 10.7386 17.7318 10.6026 16.8888 10.5246C16.2938 10.4706 15.7888 10.6816 15.5808 11.2996C15.3868 11.8736 15.4788 12.4046 16.0168 12.7566C16.4218 13.0206 16.8548 13.2456 17.2898 13.4606C18.6678 14.1456 20.0538 14.8186 21.4738 15.5126C20.8568 16.2776 20.2328 16.9476 19.7308 17.6996C19.2328 18.4466 18.6548 18.7456 17.7768 18.4926C17.4148 18.3896 17.0218 18.3956 16.6428 18.3546C15.7498 18.2566 15.1068 18.6426 14.9238 19.3816C14.7628 20.0416 15.1188 20.6686 15.9978 20.9096C15.9978 20.9096 18.0008 21.3116 19.1858 19.3836Z" fill="white"/>
<path d="M12.3311 25.0496L14.9771 21.8456" stroke="#3F4A54" stroke-linecap="round" stroke-linejoin="round"/>
<path d="M11.595 21.0818C10.336 20.7568 9.05201 21.5128 8.72601 22.7708C8.56601 23.3908 8.66701 24.0168 8.96201 24.5308C9.26601 25.0618 9.77601 25.4748 10.415 25.6408" stroke="#3F4A54" stroke-linecap="round" stroke-linejoin="round"/>
<path d="M19.416 14.0154C18.702 13.6664 17.995 13.3194 17.289 12.9684C16.854 12.7524 16.422 12.5284 16.017 12.2644C15.478 11.9124 15.387 11.3814 15.58 10.8074C15.788 10.1894 16.294 9.97741 16.889 10.0324C17.731 10.1104 18.568 10.2464 19.408 10.3594C21.003 10.5734 22.596 10.8034 24.193 10.9854C24.46 11.0154 24.818 10.9064 25.02 10.7304C25.943 9.92241 26.832 9.07441 27.723 8.22841C28.466 7.52341 29.549 7.45141 30.314 8.07741C30.725 8.41141 30.972 8.84041 31.039 9.29641" stroke="#3F4A54" stroke-linecap="round" stroke-linejoin="round"/>
<path d="M22.4119 23.0438C22.5749 23.8248 22.2919 24.4628 21.7039 24.6988C21.0689 24.9548 20.4389 24.6868 20.0009 23.9738C19.9669 23.9188 19.9199 23.8698 19.8989 23.8128C19.2309 21.9518 17.8649 20.9278 15.9979 20.4178C15.1179 20.1768 14.7629 19.5488 14.9239 18.8898C15.1059 18.1498 15.7499 17.7648 16.6419 17.8618C17.0209 17.9028 17.4149 17.8978 17.7759 18.0008C18.6539 18.2538 19.2319 17.9538 19.7299 17.2078C20.2319 16.4558 20.8559 15.7838 21.4739 15.0208" stroke="#3F4A54" stroke-linecap="round" stroke-linejoin="round"/>
<path d="M30.3153 11.2049C29.7103 12.0459 29.0793 12.8679 28.4973 13.7249C28.3353 13.9629 28.2483 14.3559 28.3163 14.6329C28.8783 16.9139 29.4843 19.1839 30.0753 21.4589C30.3153 22.3829 30.0913 22.9309 29.3533 23.2479C28.7393 23.5129 28.1483 23.2639 27.6613 22.5119C26.7973 21.1799 25.9443 19.8419 25.0863 18.5069C24.9523 18.2969 24.8133 18.0899 24.5693 17.7159C23.7023 18.6929 22.8923 19.5859 22.1143 20.5049" stroke="#3F4A54" stroke-linecap="round" stroke-linejoin="round"/>
<path d="M16.7932 23.3611L10.6392 30.9391" stroke="#3F4A54" stroke-linecap="round" stroke-linejoin="round"/>
<path d="M18.587 25.2342L14.042 30.7422" stroke="#3F4A54" stroke-linecap="round" stroke-linejoin="round"/>
</svg>
