<svg width="40" height="40" viewBox="0 0 40 40" fill="none" xmlns="http://www.w3.org/2000/svg">
<rect width="40" height="40" fill="white" fill-opacity="0.01"/>
<path fill-rule="evenodd" clip-rule="evenodd" d="M19.7456 23.985L22.4736 20.56L25.1336 17.219C24.9696 17.057 23.4946 15.728 20.4496 16.779C16.2456 18.229 14.1036 16.779 14.1036 16.779L14.0396 16.82L19.7456 23.985Z" fill="#C2D091"/>
<path d="M23.7071 12.1959L22.4731 16.2679" stroke="#3F4A54" stroke-linecap="round" stroke-linejoin="round"/>
<path d="M28.1626 6.65001H25.3886L25.1106 7.56301L24.9496 8.09501L24.7146 8.87401L24.3186 10.178" stroke="#3F4A54" stroke-linecap="round" stroke-linejoin="round"/>
<path d="M19.4348 30.0865V31.7155" stroke="#3F4A54" stroke-linecap="round" stroke-linejoin="round"/>
<path d="M19.4348 24.0943V27.7953V28.1433" stroke="#3F4A54" stroke-linecap="round" stroke-linejoin="round"/>
<path d="M25.6663 32.5387H13.5073" stroke="#3F4A54" stroke-linecap="round" stroke-linejoin="round"/>
<path d="M23.1331 14.1002H27.2201L21.8511 20.8412" stroke="#3F4A54" stroke-linecap="round" stroke-linejoin="round"/>
<path d="M20.3459 22.732L19.4349 23.875L11.6499 14.1H21.1189" stroke="#3F4A54" stroke-linecap="round" stroke-linejoin="round"/>
</svg>
