<svg width="15" height="15" viewBox="0 0 15 15" fill="none" xmlns="http://www.w3.org/2000/svg">
<path d="M14.3714 7.5001C14.2182 7.49815 14.0697 7.55332 13.9551 7.65482C13.8405 7.75632 13.768 7.89683 13.7518 8.04885C13.6287 9.47002 13.0225 10.8065 12.0336 11.8369C11.0447 12.8672 9.7325 13.5294 8.3146 13.7137C6.89671 13.898 5.45825 13.5933 4.23771 12.8502C3.01717 12.1071 2.08786 10.9702 1.60385 9.62796C1.11983 8.2857 1.11019 6.81874 1.57651 5.47027C2.04282 4.12179 2.9571 2.97281 4.16776 2.21379C5.37842 1.45478 6.81275 1.13133 8.23295 1.29706C9.65314 1.4628 10.9739 2.10777 11.9763 3.12504H10.2521C10.086 3.12504 9.92663 3.19089 9.80913 3.3081C9.69164 3.42531 9.62563 3.58429 9.62563 3.75005C9.62563 3.91581 9.69164 4.07478 9.80913 4.192C9.92663 4.30921 10.086 4.37506 10.2521 4.37506H12.7582C13.0905 4.37506 13.4092 4.24336 13.6442 4.00894C13.8792 3.77451 14.0112 3.45657 14.0112 3.12504V0.625008C14.0112 0.459246 13.9452 0.300272 13.8277 0.183061C13.7102 0.0658489 13.5508 0 13.3847 0C13.2185 0 13.0592 0.0658489 12.9417 0.183061C12.8242 0.300272 12.7582 0.459246 12.7582 0.625008V2.1344C11.5371 0.947537 9.94774 0.21018 8.25112 0.0434166C6.5545 -0.123347 4.85147 0.290396 3.42169 1.2167C1.9919 2.14301 0.920353 3.52682 0.383011 5.14088C-0.154332 6.75495 -0.125529 8.50332 0.46469 10.0989C1.05491 11.6945 2.17146 13.0424 3.63099 13.9213C5.09051 14.8003 6.80625 15.158 8.49646 14.9357C10.1867 14.7134 11.7509 13.9243 12.9322 12.6981C14.1135 11.4718 14.8418 9.88127 14.9973 8.18761C15.0054 8.10062 14.9952 8.01291 14.9675 7.93005C14.9397 7.8472 14.895 7.77101 14.8361 7.70634C14.7773 7.64167 14.7055 7.58994 14.6255 7.55443C14.5455 7.51892 14.459 7.50042 14.3714 7.5001Z" fill="#50545D"/>
</svg>
