<svg width="40" height="40" viewBox="0 0 40 40" fill="none" xmlns="http://www.w3.org/2000/svg">
<rect width="40" height="40" fill="white" fill-opacity="0.01"/>
<path fill-rule="evenodd" clip-rule="evenodd" d="M11.0633 20.0714C12.8273 20.0714 14.2693 21.5144 14.2693 23.2774V28.2404H26.1883V23.2774C26.1883 21.5144 27.6313 20.0714 29.3943 20.0714L28.9563 17.2374C28.9563 17.2374 18.4063 14.7634 10.7043 17.9514L11.0633 20.0714Z" fill="#6D70B6"/>
<path fill-rule="evenodd" clip-rule="evenodd" d="M20.315 26.045H18.439C18.031 26.045 17.699 25.734 17.699 25.35V22.279C17.699 21.066 18.757 20.071 20.05 20.071C21.344 20.071 22.402 21.066 22.402 22.279V25.35" fill="white"/>
<path fill-rule="evenodd" clip-rule="evenodd" d="M19.786 26.045H21.662C22.071 26.045 22.402 25.734 22.402 25.35V22.279C22.402 21.066 21.345 20.071 20.051 20.071C18.758 20.071 17.699 21.066 17.699 22.279V25.35" fill="white"/>
<path d="M28.2781 12.3849C28.6751 12.9929 28.9061 13.7199 28.9061 14.4969L29.5541 19.6809" stroke="#3F4A54" stroke-linecap="round" stroke-linejoin="round"/>
<path d="M10.7039 19.6807L11.3509 14.4967C11.3509 12.3577 13.1019 10.6077 15.2409 10.6077H25.0169C25.6339 10.6077 26.2179 10.7527 26.7369 11.0107" stroke="#3F4A54" stroke-linecap="round" stroke-linejoin="round"/>
<path d="M20.0505 8.64951H21.2445C21.7335 8.64951 22.1325 8.89451 22.1325 9.19451L22.2805 9.79151" stroke="#3F4A54" stroke-linecap="round" stroke-linejoin="round"/>
<path d="M17.977 9.7911L18.125 9.1941" stroke="#3F4A54" stroke-linecap="round" stroke-linejoin="round"/>
<path d="M7.85718 27.9406V22.9776C7.85718 21.2136 9.30018 19.7716 11.0632 19.7716C12.8272 19.7716 14.2692 21.2136 14.2692 22.9776V27.9406" stroke="#3F4A54" stroke-linecap="round" stroke-linejoin="round"/>
<path d="M26.1882 27.9406V22.9776C26.1882 21.2136 27.6312 19.7716 29.3942 19.7716C31.1582 19.7716 32.6002 21.2136 32.6002 22.9776V27.9406" stroke="#3F4A54" stroke-linecap="round" stroke-linejoin="round"/>
<path d="M20.315 26.045H18.439C18.031 26.045 17.699 25.734 17.699 25.35V22.279C17.699 21.066 18.757 20.071 20.05 20.071C21.344 20.071 22.402 21.066 22.402 22.279V25.35" stroke="#3F4A54" stroke-linecap="round" stroke-linejoin="round"/>
<path d="M23.9685 28.2169H33.8075" stroke="#3F4A54" stroke-linecap="round" stroke-linejoin="round"/>
<path d="M6.65015 28.2169H21.6561" stroke="#3F4A54" stroke-linecap="round" stroke-linejoin="round"/>
<path d="M15.8367 16.9161C18.8847 16.6331 23.4247 16.6181 29.3097 17.7211" stroke="#3F4A54" stroke-linecap="round" stroke-linejoin="round"/>
<path d="M11.321 17.7207C11.321 17.7207 12.03 17.4797 13.406 17.2377" stroke="#3F4A54" stroke-linecap="round" stroke-linejoin="round"/>
<path fill-rule="evenodd" clip-rule="evenodd" d="M12.5006 23.3116C12.5006 24.1896 11.7886 24.9016 10.9106 24.9016C10.0326 24.9016 9.32056 24.1896 9.32056 23.3116C9.32056 22.4336 10.0326 21.7216 10.9106 21.7216C11.7886 21.7216 12.5006 22.4336 12.5006 23.3116Z" fill="white"/>
<path d="M31.406 31.0411H10.031" stroke="#3F4A54" stroke-linecap="round" stroke-linejoin="round"/>
<path d="M12.7216 28.2169V29.8899C12.7216 30.5079 11.9936 31.0129 11.1036 31.0129H10.6676C9.77758 31.0129 9.04858 30.5079 9.04858 29.8899V28.2169" stroke="#3F4A54" stroke-linecap="round" stroke-linejoin="round"/>
<path d="M31.0526 28.2169V29.8899C31.0526 30.5079 30.3246 31.0129 29.4346 31.0129H28.9986C28.1086 31.0129 27.3796 30.5079 27.3796 29.8899V28.2169" stroke="#3F4A54" stroke-linecap="round" stroke-linejoin="round"/>
<path d="M12.3309 22.9864C12.3549 23.0904 12.3679 23.1994 12.3679 23.3114C12.3679 24.1164 11.7159 24.7674 10.9109 24.7674C10.1059 24.7674 9.45386 24.1164 9.45386 23.3114C9.45386 22.5074 10.1059 21.8544 10.9109 21.8544" stroke="#3F4A54" stroke-linecap="round" stroke-linejoin="round"/>
<path fill-rule="evenodd" clip-rule="evenodd" d="M31.1441 23.253C31.1441 24.131 30.4321 24.843 29.5541 24.843C28.6761 24.843 27.9641 24.131 27.9641 23.253C27.9641 22.375 28.6761 21.663 29.5541 21.663C30.4321 21.663 31.1441 22.375 31.1441 23.253Z" fill="white"/>
<path d="M30.9744 22.9278C30.9984 23.0318 31.0114 23.1408 31.0114 23.2528C31.0114 24.0578 30.3594 24.7088 29.5544 24.7088C28.7494 24.7088 28.0974 24.0578 28.0974 23.2528C28.0974 22.4488 28.7494 21.7958 29.5544 21.7958" stroke="#3F4A54" stroke-linecap="round" stroke-linejoin="round"/>
</svg>
