<svg width="40" height="40" viewBox="0 0 40 40" fill="none" xmlns="http://www.w3.org/2000/svg">
<rect width="40" height="40" fill="white" fill-opacity="0.01"/>
<path fill-rule="evenodd" clip-rule="evenodd" d="M20.4632 6.62808C17.1133 6.62808 14.0729 7.96408 11.7808 10.1371L13.4847 12.1291C15.3216 10.3741 17.768 9.29308 20.4632 9.29308C26.1592 9.29308 30.7772 14.0821 30.7772 19.9891C30.7772 25.8971 26.1592 30.6861 20.4632 30.6861V33.3511C27.5787 33.3511 33.347 27.3691 33.347 19.9891C33.347 12.6101 27.5787 6.62808 20.4632 6.62808Z" fill="#7296C6"/>
<path d="M32.3129 14.8024C32.956 16.3924 33.3099 18.1354 33.3128 19.9574C33.334 27.2814 27.6091 33.2424 20.5119 33.2844C15.7792 33.3134 11.6097 30.6544 9.36865 26.6804" stroke="#3F4A54" stroke-linecap="round" stroke-linejoin="round"/>
<path d="M8.11921 23.6506C7.79907 22.4896 7.62646 21.2646 7.62646 19.9966C7.6255 12.6356 13.2463 6.67758 20.4515 6.65058C24.5574 6.63458 28.1657 8.59758 30.508 11.6436" stroke="#3F4A54" stroke-linecap="round" stroke-linejoin="round"/>
<path d="M30.764 18.5534C29.7871 10.6104 20.0874 6.60638 14.0461 11.5284" stroke="#3F4A54" stroke-linecap="round" stroke-linejoin="round"/>
<path d="M11.9513 13.8166C10.9793 15.2446 10.3468 16.9166 10.1809 18.6586" stroke="#3F4A54" stroke-linecap="round" stroke-linejoin="round"/>
<path d="M21.7482 17.2814C21.3394 17.1044 20.8891 17.0114 20.4185 17.0274C18.6027 17.0854 17.166 18.5884 17.2267 20.3644C17.246 20.9484 17.4205 21.4974 17.705 21.9684C17.8043 22.1334 17.9171 22.2884 18.0415 22.4324C18.1949 22.6114 18.3675 22.7724 18.5536 22.9134C19.1129 23.3364 19.8014 23.5774 20.5284 23.5494C22.3808 23.4774 23.7472 22.0384 23.699 20.2114C23.6826 19.5684 23.4849 18.9724 23.158 18.4744" stroke="#3F4A54" stroke-linecap="round" stroke-linejoin="round"/>
<path d="M12.2597 15.9855L11.0659 15.3915" stroke="#3F4A54" stroke-linecap="round" stroke-linejoin="round"/>
<path d="M17.6376 18.6589L13.2173 16.4619" stroke="#3F4A54" stroke-linecap="round" stroke-linejoin="round"/>
<path d="M27.6633 16.4616L29.8156 15.3916" stroke="#3F4A54" stroke-linecap="round" stroke-linejoin="round"/>
<path d="M23.2437 18.6589L26.123 17.2269" stroke="#3F4A54" stroke-linecap="round" stroke-linejoin="round"/>
<path d="M20.5288 23.6472L20.4633 30.6352" stroke="#3F4A54" stroke-linecap="round" stroke-linejoin="round"/>
<path d="M30.7158 21.7277C29.6831 33.7357 11.273 33.5237 10.2759 21.5727" stroke="#3F4A54" stroke-linecap="round" stroke-linejoin="round"/>
<path fill-rule="evenodd" clip-rule="evenodd" d="M22.0128 20.2888C22.0128 21.1768 21.3185 21.8958 20.4632 21.8958C19.6069 21.8958 18.9126 21.1768 18.9126 20.2888C18.9126 19.4008 19.6069 18.6818 20.4632 18.6818C21.3185 18.6818 22.0128 19.4008 22.0128 20.2888Z" fill="#7296C6"/>
</svg>
