<svg width="40" height="40" viewBox="0 0 40 40" fill="none" xmlns="http://www.w3.org/2000/svg">
<rect width="40" height="40" fill="white" fill-opacity="0.01"/>
<path fill-rule="evenodd" clip-rule="evenodd" d="M29.8271 24.226C29.9951 24.133 30.1301 23.994 30.1301 23.802V16.741C30.1301 16.433 29.8261 16.217 29.5351 16.317L20.5321 19.426C20.4371 19.459 20.3341 19.459 20.2391 19.426L11.2371 16.317C10.9451 16.217 10.6411 16.433 10.6411 16.741V23.802C10.6411 23.994 10.7641 24.164 10.9441 24.226C10.9441 24.226 19.9251 29.713 29.8271 24.226Z" fill="#C6B7F2"/>
<path fill-rule="evenodd" clip-rule="evenodd" d="M27.6355 18.9725V25.2745L30.1295 24.1775V18.7415V17.8645V16.7415C30.1295 16.4325 29.8255 16.2165 29.5345 16.3175L27.5215 16.9475L27.6355 18.9725Z" fill="#C6B7F2"/>
<mask id="mask0_599_2527" style="mask-type:luminance" maskUnits="userSpaceOnUse" x="7" y="9" width="27" height="23">
<path fill-rule="evenodd" clip-rule="evenodd" d="M7 31.3145H33.771V9.0005H7V31.3145Z" fill="white"/>
</mask>
<g mask="url(#mask0_599_2527)">
<path fill-rule="evenodd" clip-rule="evenodd" d="M10.376 24.4335H12.604V16.3755H10.376V24.4335Z" fill="white"/>
<path fill-rule="evenodd" clip-rule="evenodd" d="M32.735 15.0804L20.605 19.2684C20.463 19.3184 20.308 19.3184 20.166 19.2684L8.03601 15.0804C7.43201 14.8724 7.43201 14.0174 8.03601 13.8084L20.166 9.6204C20.308 9.5704 20.463 9.5704 20.605 9.6204L32.735 13.8084C33.339 14.0174 33.339 14.8724 32.735 15.0804Z" fill="white"/>
<path d="M10.6411 20.7411V23.8021C10.6411 23.9931 10.7631 24.1631 10.9441 24.2261C10.9441 24.2261 17.5961 28.2841 25.7631 25.9201" stroke="#3F4A54" stroke-linecap="round" stroke-linejoin="round"/>
<path d="M10.6411 16.3759V18.8019" stroke="#3F4A54" stroke-linecap="round" stroke-linejoin="round"/>
<path d="M29.3325 24.4896C29.4975 24.4056 29.6615 24.3176 29.8265 24.2256C29.9945 24.1336 30.1295 23.9926 30.1295 23.8026V16.7406" stroke="#3F4A54" stroke-linecap="round" stroke-linejoin="round"/>
<path d="M18.5806 10.1674L20.1656 9.6204C20.3086 9.5704 20.4626 9.5704 20.6046 9.6204L30.4296 13.0124" stroke="#3F4A54" stroke-linecap="round" stroke-linejoin="round"/>
<path d="M24.6733 17.8641L20.6053 19.2691C20.4623 19.3181 20.3083 19.3181 20.1653 19.2691L8.03526 15.0801C7.43226 14.8721 7.43226 14.0171 8.03526 13.8081L16.3243 10.9461" stroke="#3F4A54" stroke-linecap="round" stroke-linejoin="round"/>
<path d="M32.1489 13.6063L32.7349 13.8083C33.3379 14.0173 33.3379 14.8723 32.7349 15.0803L28.9829 16.3763" stroke="#3F4A54" stroke-linecap="round" stroke-linejoin="round"/>
<path d="M23.188 15.4447L27.521 16.9477V28.8367" stroke="#3F4A54" stroke-linecap="round" stroke-linejoin="round"/>
</g>
</svg>
