<svg width="30" height="30" viewBox="0 0 30 30" fill="none" xmlns="http://www.w3.org/2000/svg">
<rect width="30" height="30" fill="white" fill-opacity="0.01"/>
<path fill-rule="evenodd" clip-rule="evenodd" d="M7.80651 16.5307C8.42573 16.899 9.02868 17.3362 9.36426 18.0217C10.1238 19.572 9.44021 21.4237 7.83906 22.1587C7.82743 22.164 7.81658 22.1655 7.80496 22.1707L8.61018 23.8132L10.6895 22.8592L21.9859 17.6775L17.2266 8.96924L4.25391 14.9205L5.05836 16.563C5.06998 16.5585 5.07773 16.5502 5.08936 16.5457C5.39471 16.4055 5.71168 16.3155 6.02943 16.2735C6.02943 16.2735 7.16326 16.1475 7.80651 16.5307Z" fill="#C26DBC"/>
<path fill-rule="evenodd" clip-rule="evenodd" d="M17.6666 15.5321C17.6666 17.5511 15.974 19.1884 13.8877 19.1884C11.8014 19.1884 10.1096 17.5511 10.1096 15.5321C10.1096 13.5124 11.8014 11.8759 13.8877 11.8759C15.974 11.8759 17.6666 13.5124 17.6666 15.5321Z" fill="white"/>
<path fill-rule="evenodd" clip-rule="evenodd" d="M26.4988 13.7136L26.3888 13.4901C26.2818 13.5396 26.1694 13.5666 26.0594 13.6041C26.2012 13.6536 26.3508 13.6836 26.4988 13.7136Z" fill="white"/>
<path d="M21.5824 17.7224L21.26 17.0639" stroke="#3F4A54" stroke-width="0.8" stroke-linecap="round" stroke-linejoin="round"/>
<path d="M20.5243 15.5619L17.9497 10.3052" stroke="#3F4A54" stroke-width="0.8" stroke-linecap="round" stroke-linejoin="round" stroke-dasharray="2.22 2.22"/>
<path d="M17.5818 9.55447L17.2586 8.89597" stroke="#3F4A54" stroke-width="0.8" stroke-linecap="round" stroke-linejoin="round"/>
<path d="M7.80673 16.3912C8.4678 16.6852 9.0289 17.1967 9.36448 17.8822C10.124 19.4325 9.44043 21.2842 7.83928 22.0192C7.82765 22.0245 7.8168 22.026 7.80518 22.0312L8.6104 23.6737" stroke="#3F4A54" stroke-width="0.8" stroke-linecap="round" stroke-linejoin="round"/>
<path d="M17.2271 8.82935L4.25439 14.7806L5.05884 16.4231C5.06969 16.4186 5.07822 16.4103 5.08984 16.4058C5.39442 16.2656 5.71217 16.1763 6.02992 16.1343" stroke="#3F4A54" stroke-width="0.8" stroke-linecap="round" stroke-linejoin="round"/>
<path d="M23.9597 13.9945C22.9685 13.8265 22.0734 13.2115 21.6099 12.2643C20.8497 10.714 21.5332 8.86229 23.1351 8.12729L22.3315 6.48779L21.3945 6.91679L20.7071 7.23329L19.9235 7.59179L18.689 8.15879" stroke="#3F4A54" stroke-width="0.8" stroke-linecap="round" stroke-linejoin="round"/>
<path d="M10.6895 22.72L26.6886 15.3805L25.8841 13.741" stroke="#3F4A54" stroke-width="0.8" stroke-linecap="round" stroke-linejoin="round"/>
<path d="M15.2614 15.0985L15.9302 16.2093L14.6391 16.5085L13.7548 17.4678L13.0604 16.3713L11.8452 15.853L12.7078 14.8765L12.8419 13.597L13.2007 13.741L14.0687 14.0898L15.3668 13.8175" stroke="#3F4A54" stroke-width="0.8" stroke-linecap="round" stroke-linejoin="round"/>
</svg>
