<svg width="40" height="40" viewBox="0 0 40 40" fill="none" xmlns="http://www.w3.org/2000/svg">
<rect width="40" height="40" fill="white" fill-opacity="0.01"/>
<path fill-rule="evenodd" clip-rule="evenodd" d="M22.5466 22.165V17.651L15.5466 22.165L15.0776 33.987H15.5466H21.7916H22.5466H26.2106H29.5466V31.722V17.651L22.5466 22.165Z" fill="#64D8A9"/>
<path d="M7.7915 24.282V33.987H14.7915H15.5465H21.7915H22.5465H26.2105" stroke="#3F4A54" stroke-linecap="round" stroke-linejoin="round"/>
<path d="M22.5464 19.7405V17.6515L15.5464 22.1645" stroke="#3F4A54" stroke-linecap="round" stroke-linejoin="round"/>
<path d="M29.5464 31.7224V17.6514L22.5464 22.1644" stroke="#3F4A54" stroke-linecap="round" stroke-linejoin="round"/>
<path d="M15.2935 21.8371L13.3975 9.97108H8.48645L8.18945 13.1251L10.8545 13.0821" stroke="#3F4A54" stroke-linecap="round" stroke-linejoin="round"/>
<path d="M7.64975 22.2429L8.03775 15.6989" stroke="#3F4A54" stroke-linecap="round" stroke-linejoin="round"/>
<path d="M21.9292 8.99679C22.9392 8.88679 23.9392 9.13779 24.8402 9.58979" stroke="#3F4A54" stroke-linecap="round" stroke-linejoin="round"/>
<path d="M15.5298 9.47819C16.8238 10.4042 18.5218 10.3742 19.9128 9.65219" stroke="#3F4A54" stroke-linecap="round" stroke-linejoin="round"/>
<path fill-rule="evenodd" clip-rule="evenodd" d="M26.2105 33.74V25.907H22.4395V33.74" fill="white"/>
<path d="M26.2105 33.74V25.907H22.4395V33.74" stroke="#3F4A54" stroke-linecap="round" stroke-linejoin="round"/>
<path d="M18.6694 25.9065V28.7395" stroke="#3F4A54" stroke-linecap="round" stroke-linejoin="round"/>
<path d="M14.8979 25.9065V28.7395" stroke="#3F4A54" stroke-linecap="round" stroke-linejoin="round"/>
<path d="M31.5825 33.987H16.2065" stroke="#3F4A54" stroke-linecap="round" stroke-linejoin="round"/>
</svg>
