<svg width="29" height="29" viewBox="0 0 29 29" fill="none" xmlns="http://www.w3.org/2000/svg">
<rect width="29" height="29" fill="white" fill-opacity="0.01"/>
<path fill-rule="evenodd" clip-rule="evenodd" d="M24.7646 25.0636C24.4543 25.4714 23.9698 25.7146 23.4686 25.7146H5.47068C4.96944 25.7146 4.48492 25.4714 4.17463 25.0636C3.88224 24.6803 3.782 24.2172 3.8906 23.759C5.09237 18.7423 9.44236 15.2376 14.4702 15.2376C19.4969 15.2376 23.8469 18.7423 25.0486 23.759C25.1572 24.2172 25.057 24.6803 24.7646 25.0636ZM9.38032 8.52569C9.38032 5.63772 11.6633 3.28657 14.4702 3.28657C17.2759 3.28657 19.559 5.63772 19.559 8.52569C19.559 11.4149 17.2759 13.7636 14.4702 13.7636C11.6633 13.7636 9.38032 11.4149 9.38032 8.52569ZM26.439 23.4065C25.3601 18.9007 22.0377 15.4747 17.8703 14.2513C19.7403 13.0695 20.991 10.9456 20.991 8.52569C20.991 4.82453 18.066 1.8125 14.4702 1.8125C10.8733 1.8125 7.94822 4.82453 7.94822 8.52569C7.94822 10.9456 9.19891 13.0695 11.069 14.2513C6.90159 15.4747 3.57913 18.9007 2.50028 23.4065C2.28666 24.2995 2.48596 25.2356 3.04806 25.9714C3.63522 26.7453 4.51954 27.1875 5.47069 27.1875H23.4686C24.4197 27.1875 25.304 26.7453 25.8912 25.9714C26.4533 25.2356 26.6526 24.2995 26.439 23.4065Z" fill="#50545D"/>
<path fill-rule="evenodd" clip-rule="evenodd" d="M24.7648 25.0636C24.4545 25.4714 23.97 25.7146 23.4688 25.7146H5.47088C4.96964 25.7146 4.48512 25.4714 4.17483 25.0636C3.88244 24.6803 3.7822 24.2172 3.8908 23.759C5.09257 18.7423 9.44256 15.2376 14.4704 15.2376C19.4971 15.2376 23.8471 18.7423 25.0488 23.759C25.1574 24.2172 25.0572 24.6803 24.7648 25.0636Z" fill="#C6B7F2"/>
<path fill-rule="evenodd" clip-rule="evenodd" d="M9.38037 8.52567C9.38037 5.63771 11.6634 3.28656 14.4703 3.28656C17.276 3.28656 19.559 5.63771 19.559 8.52567C19.559 11.4149 17.276 13.7636 14.4703 13.7636C11.6634 13.7636 9.38037 11.4149 9.38037 8.52567Z" fill="#FDE897"/>
</svg>
