<svg width="40" height="40" viewBox="0 0 40 40" fill="none" xmlns="http://www.w3.org/2000/svg">
<rect width="40" height="40" fill="white" fill-opacity="0.01"/>
<path fill-rule="evenodd" clip-rule="evenodd" d="M10.4087 22.0406C11.2343 22.5316 12.0382 23.1146 12.4857 24.0286C13.4983 26.0956 12.5869 28.5646 10.4521 29.5446C10.4366 29.5516 10.4221 29.5536 10.4066 29.5606L11.4802 31.7506L14.2527 30.4786L29.3145 23.5696L22.9688 11.9586L5.67188 19.8936L6.74447 22.0836C6.75997 22.0776 6.77031 22.0666 6.78581 22.0606C7.19294 21.8736 7.61557 21.7536 8.03924 21.6976C8.03924 21.6976 9.55101 21.5296 10.4087 22.0406Z" fill="#C26DBC"/>
<path fill-rule="evenodd" clip-rule="evenodd" d="M23.5555 20.7096C23.5555 23.4016 21.2987 25.5846 18.517 25.5846C15.7353 25.5846 13.4795 23.4016 13.4795 20.7096C13.4795 18.0166 15.7353 15.8346 18.517 15.8346C21.2987 15.8346 23.5555 18.0166 23.5555 20.7096Z" fill="white"/>
<path fill-rule="evenodd" clip-rule="evenodd" d="M35.3316 18.2847L35.1849 17.9867C35.0423 18.0527 34.8924 18.0887 34.7457 18.1387C34.9348 18.2047 35.1342 18.2447 35.3316 18.2847Z" fill="white"/>
<path d="M28.7765 23.63L28.3467 22.752" stroke="#3F4A54" stroke-linecap="round" stroke-linejoin="round"/>
<path d="M27.3658 20.7492L23.9331 13.7402" stroke="#3F4A54" stroke-linecap="round" stroke-linejoin="round" stroke-dasharray="2.22 2.22"/>
<path d="M23.4426 12.7394L23.0117 11.8614" stroke="#3F4A54" stroke-linecap="round" stroke-linejoin="round"/>
<path d="M10.4088 21.8546C11.2902 22.2466 12.0384 22.9286 12.4858 23.8426C13.4985 25.9096 12.5871 28.3786 10.4522 29.3586C10.4367 29.3656 10.4222 29.3676 10.4067 29.3746L11.4804 31.5646" stroke="#3F4A54" stroke-linecap="round" stroke-linejoin="round"/>
<path d="M22.9693 11.7725L5.67236 19.7075L6.74496 21.8975C6.75943 21.8915 6.7708 21.8805 6.7863 21.8745C7.1924 21.6875 7.61606 21.5685 8.03973 21.5125" stroke="#3F4A54" stroke-linecap="round" stroke-linejoin="round"/>
<path d="M31.9462 18.6593C30.6245 18.4353 29.431 17.6153 28.8131 16.3523C27.7994 14.2853 28.7108 11.8163 30.8467 10.8363L29.7751 8.65031L28.5258 9.22231L27.6093 9.64431L26.5646 10.1223L24.9185 10.8783" stroke="#3F4A54" stroke-linecap="round" stroke-linejoin="round"/>
<path d="M14.2524 30.293L35.5846 20.507L34.512 18.321" stroke="#3F4A54" stroke-linecap="round" stroke-linejoin="round"/>
<path d="M20.3484 20.131L21.2402 21.612L19.5186 22.011L18.3396 23.29L17.4137 21.828L15.7935 21.137L16.9436 19.835L17.1223 18.129L17.6008 18.321L18.7581 18.786L20.4889 18.423" stroke="#3F4A54" stroke-linecap="round" stroke-linejoin="round"/>
</svg>
