<svg width="10" height="10" viewBox="0 0 10 10" fill="none" xmlns="http://www.w3.org/2000/svg">
<path d="M9.67711 8.11808L6.55903 5L9.67711 1.88192C9.88385 1.67518 10 1.39478 10 1.1024C10 0.810025 9.88385 0.529623 9.67711 0.322882C9.47037 0.11614 9.18997 -5.76751e-06 8.89759 -5.66297e-06C8.60521 -5.57004e-06 8.32481 0.11614 8.11807 0.322882L4.99999 3.44096L1.88191 0.322882C1.67517 0.11614 1.39477 -5.57004e-06 1.10239 -5.66297e-06C0.810018 -5.76751e-06 0.529616 0.11614 0.322875 0.322882C0.116134 0.529623 -1.23384e-05 0.810025 -1.22338e-05 1.1024C-1.21409e-05 1.39478 0.116134 1.67518 0.322875 1.88192L3.44095 5L0.322875 8.11808C0.116133 8.32482 -1.29772e-05 8.60522 -1.29772e-05 8.8976C-1.29772e-05 9.18997 0.116134 9.47037 0.322875 9.67711C0.529616 9.88386 0.810017 10 1.10239 10C1.39477 10 1.67517 9.88386 1.88191 9.67711L4.99999 6.55904L8.11807 9.67711C8.32481 9.88386 8.60521 10 8.89759 10C9.18997 10 9.47037 9.88386 9.67711 9.67711C9.88385 9.47037 10 9.18997 10 8.8976C10 8.60522 9.88385 8.32482 9.67711 8.11808Z" fill="#F85F5F"/>
</svg>
