<svg width="40" height="40" viewBox="0 0 40 40" fill="none" xmlns="http://www.w3.org/2000/svg">
<rect width="40" height="40" fill="white" fill-opacity="0.01"/>
<path fill-rule="evenodd" clip-rule="evenodd" d="M29.5439 16.0434L20.2179 20.4224L10.9729 16.0434L20.2989 11.6644L29.5439 16.0434Z" fill="#5FCAF8"/>
<path fill-rule="evenodd" clip-rule="evenodd" d="M29.5439 16.0434L20.2179 20.4224L10.9729 16.0434L20.2989 11.6644L29.5439 16.0434Z" stroke="#3F4A54" stroke-linecap="round" stroke-linejoin="round"/>
<path fill-rule="evenodd" clip-rule="evenodd" d="M20.2179 31.3432L10.9729 26.9642V16.0432L20.2179 20.4232V31.3432Z" stroke="#3F4A54" stroke-linecap="round" stroke-linejoin="round"/>
<path fill-rule="evenodd" clip-rule="evenodd" d="M6.6499 18.0574L13.5349 21.3194L14.0739 21.5744L15.8949 22.4364L20.2179 20.4074L10.9399 16.0434L6.6499 18.0574Z" fill="white"/>
<path d="M14.0741 21.5742L13.5351 21.3192L6.65015 18.0572L10.9401 16.0432L20.2181 20.4072L15.8951 22.4372" stroke="#3F4A54" stroke-linecap="round" stroke-linejoin="round"/>
<path d="M8.56346 13.1708L6.75146 14.0288L11.0425 16.0438L20.3195 11.6798L15.9975 9.64981L10.5845 12.2128" stroke="#3F4A54" stroke-linecap="round" stroke-linejoin="round"/>
<path fill-rule="evenodd" clip-rule="evenodd" d="M20.0515 31.3432L29.2955 26.9642V16.0432L20.0515 20.4232V31.3432Z" stroke="#3F4A54" stroke-linecap="round" stroke-linejoin="round"/>
<path fill-rule="evenodd" clip-rule="evenodd" d="M27.2743 21.0629L33.6183 18.0579L29.3293 16.0429L20.0513 20.4069L24.3743 22.4369L25.6133 21.8499" fill="white"/>
<path d="M27.2738 21.0629L33.6178 18.0579L29.3288 16.0429L20.0508 20.4069L24.3738 22.4369L25.6128 21.8499" stroke="#3F4A54" stroke-linecap="round" stroke-linejoin="round"/>
<path d="M27.4057 11.1342L33.5167 14.0292L29.2267 16.0432L19.9497 11.6792L24.2717 9.65021L25.4237 10.1952" stroke="#3F4A54" stroke-linecap="round" stroke-linejoin="round"/>
</svg>
