<svg width="9" height="9" viewBox="0 0 9 9" fill="none" xmlns="http://www.w3.org/2000/svg">
<g opacity="0.7" clip-path="url(#clip0_599_3884)">
<path d="M4.5 9C5.39001 9 6.26004 8.73608 7.00006 8.24161C7.74009 7.74715 8.31686 7.04434 8.65746 6.22208C8.99805 5.39981 9.08716 4.49501 8.91353 3.62209C8.7399 2.74918 8.31131 1.94735 7.68198 1.31802C7.05264 0.688682 6.25082 0.260099 5.3779 0.0864652C4.50499 -0.0871683 3.60019 0.00194692 2.77792 0.342541C1.95566 0.683136 1.25285 1.25991 0.758386 1.99993C0.263919 2.73995 -1.42488e-06 3.60998 -1.34708e-06 4.5C0.00128908 5.69308 0.475809 6.83692 1.31944 7.68056C2.16308 8.52419 3.30692 8.99871 4.5 9V9ZM4.5 0.749999C5.24168 0.749999 5.9667 0.969933 6.58339 1.38199C7.20007 1.79404 7.68072 2.37971 7.96455 3.06494C8.24837 3.75016 8.32264 4.50416 8.17794 5.23159C8.03325 5.95902 7.6761 6.6272 7.15165 7.15165C6.6272 7.6761 5.95902 8.03325 5.23159 8.17794C4.50416 8.32264 3.75016 8.24838 3.06494 7.96455C2.37971 7.68072 1.79404 7.20007 1.38199 6.58339C0.969933 5.9667 0.749999 5.24168 0.749999 4.5C0.751091 3.50577 1.14653 2.55258 1.84955 1.84956C2.55258 1.14653 3.50577 0.751091 4.5 0.749999Z" fill="#50545D"/>
<path d="M4.5 7.125C4.59946 7.125 4.69484 7.08549 4.76516 7.01516C4.83549 6.94484 4.875 6.84946 4.875 6.75L4.875 3.75C4.875 3.65054 4.83549 3.55516 4.76516 3.48483C4.69484 3.41451 4.59946 3.375 4.5 3.375C4.40054 3.375 4.30516 3.41451 4.23483 3.48483C4.16451 3.55516 4.125 3.65054 4.125 3.75L4.125 6.75C4.125 6.84946 4.16451 6.94484 4.23484 7.01517C4.30516 7.08549 4.40054 7.125 4.5 7.125Z" fill="#50545D"/>
<path d="M4.125 2.25C4.125 2.45711 4.29289 2.625 4.5 2.625C4.70711 2.625 4.875 2.45711 4.875 2.25C4.875 2.04289 4.70711 1.875 4.5 1.875C4.29289 1.875 4.125 2.04289 4.125 2.25Z" fill="#50545D"/>
</g>
<defs>
<clipPath id="clip0_599_3884">
<rect width="9" height="9" fill="white" transform="translate(9 9) rotate(180)"/>
</clipPath>
</defs>
</svg>
