<svg width="40" height="40" viewBox="0 0 40 40" fill="none" xmlns="http://www.w3.org/2000/svg">
<rect width="40" height="40" fill="white" fill-opacity="0.01"/>
<path fill-rule="evenodd" clip-rule="evenodd" d="M26.2009 22.3631C26.2009 25.7591 23.4479 28.5131 20.0519 28.5131C16.6549 28.5131 13.9009 25.7591 13.9009 22.3631C13.9009 18.9671 16.6549 16.2141 20.0519 16.2141C23.4479 16.2141 26.2009 18.9671 26.2009 22.3631Z" fill="#DD7E8D"/>
<path d="M23.0663 13.2234C23.3424 13.2234 23.5663 12.9995 23.5663 12.7234C23.5663 12.4473 23.3424 12.2234 23.0663 12.2234V13.2234ZM14.4356 12.2224C14.1595 12.2222 13.9355 12.4459 13.9353 12.7221C13.9351 12.9982 14.1588 13.2222 14.435 13.2224L14.4356 12.2224ZM12.2851 13.2224C12.5612 13.2224 12.7851 12.9985 12.7851 12.7224C12.7851 12.4462 12.5612 12.2224 12.2851 12.2224V13.2224ZM10.2811 12.7244L10.2824 13.2244L10.2825 13.2244L10.2811 12.7244ZM7.15405 15.3268C7.15374 15.603 7.37735 15.8271 7.65349 15.8274C7.92963 15.8277 8.15374 15.6041 8.15405 15.328L7.15405 15.3268ZM8.15329 17.4976C8.15339 17.2214 7.92962 16.9975 7.65348 16.9974C7.37733 16.9973 7.15339 17.2211 7.15329 17.4972L8.15329 17.4976ZM7.65529 25.5984L8.15529 25.598L8.15529 25.5976L7.65529 25.5984ZM7.68329 29.3764L7.18372 29.3971L7.18372 29.3971L7.68329 29.3764ZM9.78529 31.3944L9.78604 30.8944L9.78572 30.8944L9.78529 31.3944ZM27.8634 31.8834C28.1396 31.8822 28.3625 31.6574 28.3613 31.3812C28.3601 31.1051 28.1353 30.8822 27.8591 30.8834L27.8634 31.8834ZM29.9931 30.8724C29.717 30.8741 29.4945 31.0994 29.4963 31.3755C29.498 31.6517 29.7233 31.8741 29.9994 31.8724L29.9931 30.8724ZM31.4123 30.7864L31.7051 31.1917L31.7051 31.1917L31.4123 30.7864ZM32.1303 28.8054L31.6303 28.8045L31.6303 28.8047L32.1303 28.8054ZM32.1303 15.4114H31.6303V15.412L32.1303 15.4114ZM32.0743 14.6484L32.571 14.5917L32.571 14.5913L32.0743 14.6484ZM31.1543 13.1784L30.9341 13.6273L30.9351 13.6278L31.1543 13.1784ZM29.6153 12.7434L29.5812 13.2422L29.5819 13.2423L29.6153 12.7434ZM26.5513 12.7234L26.5415 13.2234H26.5513V12.7234ZM25.4881 12.2025C25.212 12.1971 24.9838 12.4165 24.9784 12.6926C24.973 12.9687 25.1924 13.1969 25.4685 13.2023L25.4881 12.2025ZM23.0663 12.2234C22.5942 12.2234 15.9734 12.2234 14.4356 12.2224L14.435 13.2224C15.9732 13.2234 22.5944 13.2234 23.0663 13.2234V12.2234ZM12.2851 12.2224C11.0877 12.2224 10.6362 12.2234 10.2796 12.2244L10.2825 13.2244C10.6379 13.2234 11.0884 13.2224 12.2851 13.2224V12.2224ZM10.2797 12.2244C9.31678 12.2271 8.50742 12.4491 7.94402 13.0073C7.3795 13.5666 7.15513 14.3708 7.15405 15.3268L8.15405 15.328C8.15497 14.51 8.34761 14.0152 8.64783 13.7177C8.94919 13.4191 9.45233 13.2267 10.2824 13.2244L10.2797 12.2244ZM7.15329 17.4972C7.15229 20.1742 7.15229 23.7956 7.15529 25.5992L8.15529 25.5976C8.15229 23.7951 8.15229 20.1746 8.15329 17.4976L7.15329 17.4972ZM7.15529 25.5988C7.15628 26.845 7.13116 28.1265 7.18372 29.3971L8.18286 29.3557C8.13142 28.1122 8.1563 26.8718 8.15529 25.598L7.15529 25.5988ZM7.18372 29.3971C7.2439 30.8488 8.34793 31.8932 9.78486 31.8944L9.78572 30.8944C8.88065 30.8936 8.22068 30.268 8.18286 29.3557L7.18372 29.3971ZM9.78454 31.8944C15.8095 31.9034 21.8368 31.9094 27.8634 31.8834L27.8591 30.8834C21.8357 30.9094 15.811 30.9034 9.78604 30.8944L9.78454 31.8944ZM29.9994 31.8724C30.6423 31.8683 31.2839 31.4959 31.7051 31.1917L31.1195 30.3811C30.7267 30.6648 30.3042 30.8704 29.9931 30.8724L29.9994 31.8724ZM31.7051 31.1917C32.579 30.5602 32.6293 29.5367 32.6303 28.8061L31.6303 28.8047C31.6293 29.5601 31.5436 30.0746 31.1194 30.3811L31.7051 31.1917ZM32.6303 28.8063C32.6363 25.3916 32.6343 18.827 32.6303 15.4108L31.6303 15.412C31.6343 18.8278 31.6363 25.3912 31.6303 28.8045L32.6303 28.8063ZM32.6303 15.4114C32.6303 15.1266 32.5999 14.8448 32.571 14.5917L31.5775 14.7051C31.6066 14.96 31.6303 15.1902 31.6303 15.4114H32.6303ZM32.571 14.5913C32.4862 13.8539 32.1511 13.1083 31.3735 12.729L30.9351 13.6278C31.3014 13.8065 31.5163 14.1729 31.5775 14.7055L32.571 14.5913ZM31.3745 12.7295C30.8562 12.4753 30.2498 12.2847 29.6487 12.2445L29.5819 13.2423C30.0268 13.2721 30.5064 13.4175 30.9341 13.6273L31.3745 12.7295ZM29.6494 12.2446C28.6321 12.175 27.5839 12.2234 26.5513 12.2234V13.2234C27.6487 13.2234 28.6084 13.1757 29.5812 13.2422L29.6494 12.2446ZM26.5611 12.2235L25.4881 12.2025L25.4685 13.2023L26.5415 13.2233L26.5611 12.2235Z" fill="#3F4A54"/>
<path d="M14.3442 12.45V12.45C14.3442 10.36 16.0532 8.64999 18.1432 8.64999H21.6412C23.7312 8.64999 25.4412 10.36 25.4412 12.45" stroke="#3F4A54" stroke-linecap="round" stroke-linejoin="round"/>
<path d="M17.5811 27.9969C16.8451 27.6749 16.1601 27.2019 15.5751 26.5799C13.2461 24.1079 13.3621 20.2159 15.8351 17.8869C18.3071 15.5579 22.1991 15.6739 24.5281 18.1459" stroke="#3F4A54" stroke-linecap="round" stroke-linejoin="round"/>
<path d="M25.7579 20.0652C26.6749 22.3452 26.1649 25.0522 24.2689 26.8392C23.5149 27.5492 22.6289 28.0332 21.6959 28.2912C21.4769 28.3512 21.2549 28.3992 21.0319 28.4352C20.7729 28.4762 20.5119 28.5022 20.2499 28.5092C20.1809 28.5122 20.1119 28.5132 20.0419 28.5132C19.9909 28.5122 19.9409 28.5122 19.8899 28.5102" stroke="#3F4A54" stroke-linecap="round" stroke-linejoin="round"/>
<path d="M12.3271 11.1229H11.3941" stroke="#3F4A54" stroke-linecap="round" stroke-linejoin="round"/>
<path d="M28.3271 11.1229H27.3941" stroke="#3F4A54" stroke-linecap="round" stroke-linejoin="round"/>
<path d="M25.7573 20.0652H32.1333" stroke="#3F4A54" stroke-linecap="round" stroke-linejoin="round"/>
<path d="M12.2847 20.0652H14.1337" stroke="#3F4A54" stroke-linecap="round" stroke-linejoin="round"/>
<path d="M7.75732 20.0652H10.4923" stroke="#3F4A54" stroke-linecap="round" stroke-linejoin="round"/>
<path fill-rule="evenodd" clip-rule="evenodd" d="M19.1366 18.7625H20.9036V21.1545H23.2976V22.9165H20.9076V25.3115H19.1426V22.9205H16.7466V21.1605H19.1366V18.7625Z" fill="white"/>
<path fill-rule="evenodd" clip-rule="evenodd" d="M19.1366 18.7625H20.9036V21.1545H23.2976V22.9165H20.9076V25.3115H19.1426V22.9205H16.7466V21.1605H19.1366V18.7625Z" stroke="#3F4A54" stroke-linecap="round" stroke-linejoin="round"/>
</svg>
