<svg width="40" height="40" viewBox="0 0 40 40" fill="none" xmlns="http://www.w3.org/2000/svg">
<rect width="40" height="40" fill="white" fill-opacity="0.01"/>
<path fill-rule="evenodd" clip-rule="evenodd" d="M10.4087 22.0405C11.2343 22.5315 12.0382 23.1145 12.4857 24.0285C13.4983 26.0955 12.5869 28.5645 10.4521 29.5445C10.4366 29.5515 10.4221 29.5535 10.4066 29.5605L11.4802 31.7505L14.2527 30.4785L29.3145 23.5695L22.9688 11.9585L5.67188 19.8935L6.74448 22.0835C6.75997 22.0775 6.77031 22.0665 6.78581 22.0605C7.19294 21.8735 7.61557 21.7535 8.03924 21.6975C8.03924 21.6975 9.55101 21.5295 10.4087 22.0405Z" fill="#C26DBC"/>
<path fill-rule="evenodd" clip-rule="evenodd" d="M23.5555 20.7094C23.5555 23.4014 21.2987 25.5844 18.517 25.5844C15.7353 25.5844 13.4795 23.4014 13.4795 20.7094C13.4795 18.0164 15.7353 15.8344 18.517 15.8344C21.2987 15.8344 23.5555 18.0164 23.5555 20.7094Z" fill="white"/>
<path fill-rule="evenodd" clip-rule="evenodd" d="M35.3316 18.2846L35.1849 17.9866C35.0423 18.0526 34.8924 18.0886 34.7457 18.1386C34.9348 18.2046 35.1342 18.2446 35.3316 18.2846Z" fill="white"/>
<path d="M28.7765 23.6299L28.3467 22.7519" stroke="#3F4A54" stroke-linecap="round" stroke-linejoin="round"/>
<path d="M27.3658 20.749L23.9331 13.74" stroke="#3F4A54" stroke-linecap="round" stroke-linejoin="round" stroke-dasharray="2.22 2.22"/>
<path d="M23.4426 12.7392L23.0117 11.8612" stroke="#3F4A54" stroke-linecap="round" stroke-linejoin="round"/>
<path d="M10.4088 21.8545C11.2902 22.2465 12.0384 22.9285 12.4858 23.8425C13.4985 25.9095 12.5871 28.3785 10.4522 29.3585C10.4367 29.3655 10.4222 29.3675 10.4067 29.3745L11.4804 31.5645" stroke="#3F4A54" stroke-linecap="round" stroke-linejoin="round"/>
<path d="M22.9693 11.7724L5.67236 19.7074L6.74496 21.8974C6.75943 21.8914 6.7708 21.8804 6.7863 21.8744C7.1924 21.6874 7.61606 21.5684 8.03973 21.5124" stroke="#3F4A54" stroke-linecap="round" stroke-linejoin="round"/>
<path d="M31.9462 18.6592C30.6245 18.4352 29.431 17.6152 28.8131 16.3522C27.7994 14.2852 28.7108 11.8162 30.8467 10.8362L29.7751 8.65021L28.5258 9.22221L27.6093 9.64421L26.5646 10.1222L24.9185 10.8782" stroke="#3F4A54" stroke-linecap="round" stroke-linejoin="round"/>
<path d="M14.2524 30.2929L35.5846 20.5069L34.512 18.3209" stroke="#3F4A54" stroke-linecap="round" stroke-linejoin="round"/>
<path d="M20.3484 20.1308L21.2402 21.6118L19.5186 22.0108L18.3396 23.2898L17.4137 21.8278L15.7935 21.1368L16.9436 19.8348L17.1223 18.1288L17.6008 18.3208L18.7581 18.7858L20.4889 18.4228" stroke="#3F4A54" stroke-linecap="round" stroke-linejoin="round"/>
</svg>
