<svg width="15" height="15" viewBox="0 0 15 15" fill="none" xmlns="http://www.w3.org/2000/svg">
<rect width="15" height="15" rx="7.5" fill="#72C6B1"/>
<g clip-path="url(#clip0_599_3770)">
<path d="M4.125 8.34898C4.1494 8.21386 4.18109 8.07968 4.19694 7.94363C4.2619 7.38396 4.3218 6.82335 4.38391 6.26306C4.40546 6.06968 4.43208 5.87661 4.44729 5.68293C4.4568 5.57013 4.53349 5.54905 4.62317 5.52426C4.92708 5.44059 5.22813 5.4003 5.52887 5.53697C5.68923 5.60917 5.77479 5.73468 5.7656 5.90048C5.75229 6.15087 5.72028 6.40034 5.69081 6.6495C5.65627 6.93925 5.61317 7.22839 5.57831 7.51721C5.53521 7.87297 5.49623 8.22998 5.45599 8.58543C5.42651 8.84636 5.52951 9.04315 5.7469 9.14325C5.94148 9.23219 6.17694 9.17052 6.3544 8.9883C6.59239 8.74534 6.66338 8.44164 6.69792 8.12058C6.76669 7.48932 6.84085 6.85837 6.91373 6.22711C6.93433 6.04923 6.95968 5.87197 6.98092 5.69408C6.99169 5.60545 7.02528 5.55463 7.12637 5.52581C7.39416 5.44957 7.66194 5.4192 7.93352 5.48149C8.1788 5.53759 8.29986 5.68913 8.29289 5.93333C8.28559 6.11781 8.26877 6.30181 8.2425 6.48463C8.1563 7.13542 8.05553 7.78248 7.98454 8.43358C7.96445 8.61644 7.99283 8.80129 8.06694 8.97032C8.22539 9.30532 8.7562 9.30315 9.01923 8.98396C9.23789 8.71807 9.35007 8.4029 9.41092 8.07658C9.48951 7.65512 9.53482 7.22777 9.5925 6.80259C9.5958 6.75999 9.5958 6.7172 9.5925 6.6746C9.38113 6.61603 9.18053 6.58752 9.00528 6.50602C8.73338 6.37958 8.62342 6.11493 8.66747 5.79325C8.69916 5.57291 8.89532 5.35939 9.16532 5.28223C9.61405 5.15269 10.1753 5.40805 10.3131 5.85616C10.3521 5.98167 10.4291 6.03249 10.5698 5.98012C10.656 5.94758 10.7533 5.94355 10.8725 5.92186C10.8725 6.07681 10.8791 6.2175 10.8677 6.35572C10.8649 6.38856 10.8043 6.43164 10.7641 6.44435C10.6701 6.46833 10.5749 6.48727 10.4789 6.50106C10.4748 6.53577 10.469 6.56985 10.4662 6.60394C10.4313 7.03253 10.4282 7.46639 10.355 7.88847C10.2409 8.54669 9.9956 9.15905 9.48285 9.63133C9.21952 9.87503 8.88384 10.0306 8.52423 10.0757C8.18482 10.1228 7.85873 10.1182 7.53739 9.98276C7.31673 9.88901 7.12743 9.73653 6.99106 9.5427C6.96127 9.50211 6.92958 9.46306 6.89218 9.41441C6.6919 9.70199 6.44599 9.91055 6.12465 10.0131C5.45599 10.227 4.79049 10.1687 4.35285 9.53589C4.25778 9.3986 4.20011 9.23714 4.125 9.08684V8.34898ZM9.54148 6.07712C9.48729 5.9482 9.46352 5.81897 9.29651 5.85554C9.26799 5.86174 9.22616 5.94138 9.23757 5.96803C9.29049 6.09044 9.39539 6.1109 9.54148 6.07712Z" fill="white"/>
</g>
<defs>
<clipPath id="clip0_599_3770">
<rect width="6.75" height="4.875" fill="white" transform="translate(4.125 5.25)"/>
</clipPath>
</defs>
</svg>
