<svg width="30" height="30" viewBox="0 0 30 30" fill="none" xmlns="http://www.w3.org/2000/svg">
<rect width="30" height="30" fill="white" fill-opacity="0.01"/>
<path fill-rule="evenodd" clip-rule="evenodd" d="M15.3476 4.9718C12.8352 4.9718 10.5549 5.9738 8.83578 7.60355L10.1137 9.09755C11.4914 7.7813 13.3262 6.97055 15.3476 6.97055C19.6196 6.97055 23.0831 10.5623 23.0831 14.9926C23.0831 19.4236 19.6196 23.0153 15.3476 23.0153V25.0141C20.6842 25.0141 25.0105 20.5276 25.0105 14.9926C25.0105 9.4583 20.6842 4.9718 15.3476 4.9718Z" fill="#7296C6"/>
<path fill-rule="evenodd" clip-rule="evenodd" d="M22.3252 11.5478L24.0493 10.6576C22.4893 7.2968 19.1843 4.9718 15.3476 4.9718C12.8352 4.9718 10.5549 5.9738 8.83578 7.60355L10.113 9.09755C11.4914 7.7813 13.3262 6.97055 15.3476 6.97055C18.4285 6.97055 21.0812 8.84405 22.3252 11.5478Z" fill="#7296C6"/>
<path d="M24.2349 11.1022C24.7172 12.2947 24.9827 13.6019 24.9848 14.9684C25.0007 20.4614 20.707 24.9322 15.3842 24.9637C11.8346 24.9854 8.70745 22.9912 7.0267 20.0107" stroke="#3F4A54" stroke-width="0.8" stroke-linecap="round" stroke-linejoin="round"/>
<path d="M6.08978 17.7384C5.84967 16.8677 5.72021 15.9489 5.72021 14.9979C5.71949 9.4772 9.93511 5.0087 15.339 4.98845C18.4184 4.97645 21.1247 6.4487 22.8814 8.7332" stroke="#3F4A54" stroke-width="0.8" stroke-linecap="round" stroke-linejoin="round"/>
<path d="M23.0734 13.9164C22.3408 7.95917 15.0659 4.95617 10.535 8.64767" stroke="#3F4A54" stroke-width="0.8" stroke-linecap="round" stroke-linejoin="round"/>
<path d="M8.96332 10.3643C8.23432 11.4353 7.75989 12.6893 7.6355 13.9958" stroke="#3F4A54" stroke-width="0.8" stroke-linecap="round" stroke-linejoin="round"/>
<path d="M16.3116 12.9622C16.0049 12.8294 15.6672 12.7597 15.3143 12.7717C13.9525 12.8152 12.8749 13.9424 12.9204 15.2744C12.9349 15.7124 13.0658 16.1242 13.2791 16.4774C13.3536 16.6012 13.4383 16.7174 13.5315 16.8254C13.6465 16.9597 13.776 17.0804 13.9156 17.1862C14.335 17.5034 14.8514 17.6842 15.3967 17.6632C16.786 17.6092 17.8108 16.5299 17.7746 15.1597C17.7624 14.6774 17.6141 14.2304 17.3689 13.8569" stroke="#3F4A54" stroke-width="0.8" stroke-linecap="round" stroke-linejoin="round"/>
<path d="M9.19551 11.9892L8.30017 11.5437" stroke="#3F4A54" stroke-width="0.8" stroke-linecap="round" stroke-linejoin="round"/>
<path d="M13.2285 13.995L9.91333 12.3473" stroke="#3F4A54" stroke-width="0.8" stroke-linecap="round" stroke-linejoin="round"/>
<path d="M20.7477 12.3478L22.3619 11.5453" stroke="#3F4A54" stroke-width="0.8" stroke-linecap="round" stroke-linejoin="round"/>
<path d="M17.4335 13.9962L19.593 12.9222" stroke="#3F4A54" stroke-width="0.8" stroke-linecap="round" stroke-linejoin="round"/>
<path d="M15.3972 17.7362L15.348 22.9772" stroke="#3F4A54" stroke-width="0.8" stroke-linecap="round" stroke-linejoin="round"/>
<path d="M23.0369 16.2978C22.2623 25.3038 8.45471 25.1448 7.70691 16.1815" stroke="#3F4A54" stroke-width="0.8" stroke-linecap="round" stroke-linejoin="round"/>
<path fill-rule="evenodd" clip-rule="evenodd" d="M16.5103 15.2171C16.5103 15.8831 15.9896 16.4223 15.3481 16.4223C14.7059 16.4223 14.1852 15.8831 14.1852 15.2171C14.1852 14.5511 14.7059 14.0118 15.3481 14.0118C15.9896 14.0118 16.5103 14.5511 16.5103 15.2171Z" fill="#7296C6"/>
</svg>
