<svg width="40" height="40" viewBox="0 0 40 40" fill="none" xmlns="http://www.w3.org/2000/svg">
<rect width="40" height="40" fill="white" fill-opacity="0.01"/>
<path fill-rule="evenodd" clip-rule="evenodd" d="M20.4629 6.62836C17.113 6.62836 14.0726 7.96436 11.7805 10.1374L13.4844 12.1294C15.3214 10.3744 17.7678 9.29336 20.4629 9.29336C26.159 9.29336 30.7769 14.0824 30.7769 19.9894C30.7769 25.8974 26.159 30.6864 20.4629 30.6864V33.3514C27.5784 33.3514 33.3468 27.3694 33.3468 19.9894C33.3468 12.6104 27.5784 6.62836 20.4629 6.62836Z" fill="#7296C6"/>
<path d="M32.3131 14.8026C32.9563 16.3926 33.3102 18.1356 33.3131 19.9576C33.3343 27.2816 27.6093 33.2426 20.5122 33.2846C15.7795 33.3136 11.6099 30.6546 9.3689 26.6806" stroke="#3F4A54" stroke-linecap="round" stroke-linejoin="round"/>
<path d="M8.11946 23.6506C7.79932 22.4896 7.62671 21.2646 7.62671 19.9966C7.62574 12.6356 13.2466 6.67758 20.4517 6.65058C24.5576 6.63458 28.166 8.59758 30.5082 11.6436" stroke="#3F4A54" stroke-linecap="round" stroke-linejoin="round"/>
<path d="M30.764 18.5537C29.7871 10.6107 20.0874 6.60669 14.0461 11.5287" stroke="#3F4A54" stroke-linecap="round" stroke-linejoin="round"/>
<path d="M11.9513 13.8165C10.9793 15.2445 10.3468 16.9165 10.1809 18.6585" stroke="#3F4A54" stroke-linecap="round" stroke-linejoin="round"/>
<path d="M21.748 17.2813C21.3391 17.1043 20.8888 17.0113 20.4183 17.0273C18.6025 17.0853 17.1657 18.5883 17.2265 20.3643C17.2458 20.9483 17.4203 21.4973 17.7048 21.9683C17.8041 22.1333 17.9169 22.2883 18.0413 22.4323C18.1946 22.6113 18.3672 22.7723 18.5533 22.9133C19.1126 23.3363 19.8011 23.5773 20.5282 23.5493C22.3806 23.4773 23.747 22.0383 23.6988 20.2113C23.6824 19.5683 23.4847 18.9723 23.1578 18.4743" stroke="#3F4A54" stroke-linecap="round" stroke-linejoin="round"/>
<path d="M12.2599 15.9854L11.0662 15.3914" stroke="#3F4A54" stroke-linecap="round" stroke-linejoin="round"/>
<path d="M17.6378 18.6589L13.2175 16.4619" stroke="#3F4A54" stroke-linecap="round" stroke-linejoin="round"/>
<path d="M27.6633 16.4616L29.8156 15.3916" stroke="#3F4A54" stroke-linecap="round" stroke-linejoin="round"/>
<path d="M23.2439 18.6589L26.1233 17.2269" stroke="#3F4A54" stroke-linecap="round" stroke-linejoin="round"/>
<path d="M20.5286 23.6472L20.463 30.6352" stroke="#3F4A54" stroke-linecap="round" stroke-linejoin="round"/>
<path d="M30.7161 21.728C29.6833 33.736 11.2732 33.524 10.2761 21.573" stroke="#3F4A54" stroke-linecap="round" stroke-linejoin="round"/>
<path fill-rule="evenodd" clip-rule="evenodd" d="M22.013 20.2887C22.013 21.1767 21.3187 21.8957 20.4634 21.8957C19.6071 21.8957 18.9128 21.1767 18.9128 20.2887C18.9128 19.4007 19.6071 18.6817 20.4634 18.6817C21.3187 18.6817 22.013 19.4007 22.013 20.2887Z" fill="#7296C6"/>
</svg>
