<svg width="15" height="15" viewBox="0 0 15 15" fill="none" xmlns="http://www.w3.org/2000/svg">
<g clip-path="url(#clip0_599_4876)">
<path d="M7.5 15C8.98336 15 10.4334 14.5601 11.6668 13.736C12.9001 12.9119 13.8614 11.7406 14.4291 10.3701C14.9967 8.99968 15.1453 7.49168 14.8559 6.03682C14.5665 4.58196 13.8522 3.24559 12.8033 2.1967C11.7544 1.14781 10.418 0.433501 8.96317 0.144111C7.50831 -0.145277 6.00031 0.00324709 4.62987 0.570905C3.25942 1.13856 2.08808 2.09986 1.26397 3.33322C0.439863 4.56659 -4.60005e-06 6.01664 -4.47037e-06 7.5C0.00214624 9.48846 0.793013 11.3949 2.19907 12.8009C3.60513 14.207 5.51153 14.9978 7.5 15V15ZM7.49999 1.25C8.73613 1.25 9.9445 1.61656 10.9723 2.30332C12.0001 2.99007 12.8012 3.96619 13.2742 5.10823C13.7473 6.25027 13.8711 7.50693 13.6299 8.71931C13.3887 9.93169 12.7935 11.0453 11.9194 11.9194C11.0453 12.7935 9.93169 13.3887 8.71931 13.6299C7.50693 13.8711 6.25026 13.7473 5.10822 13.2742C3.96619 12.8012 2.99007 12.0001 2.30331 10.9723C1.61655 9.94451 1.25 8.73613 1.25 7.5C1.25181 5.84296 1.91088 4.2543 3.08259 3.08259C4.2543 1.91089 5.84295 1.25182 7.49999 1.25Z" fill="#72C6B1"/>
<path d="M7.5 11.875C7.66576 11.875 7.82473 11.8092 7.94194 11.6919C8.05915 11.5747 8.125 11.4158 8.125 11.25L8.125 6.25C8.125 6.08424 8.05915 5.92527 7.94194 5.80806C7.82473 5.69085 7.66576 5.625 7.5 5.625C7.33424 5.625 7.17527 5.69085 7.05806 5.80806C6.94085 5.92527 6.875 6.08424 6.875 6.25L6.875 11.25C6.875 11.4158 6.94085 11.5747 7.05806 11.6919C7.17527 11.8092 7.33424 11.875 7.5 11.875Z" fill="#72C6B1"/>
<path d="M6.875 3.75C6.875 4.09518 7.15482 4.375 7.5 4.375C7.84518 4.375 8.125 4.09518 8.125 3.75C8.125 3.40482 7.84518 3.125 7.5 3.125C7.15482 3.125 6.875 3.40482 6.875 3.75Z" fill="#72C6B1"/>
</g>
<defs>
<clipPath id="clip0_599_4876">
<rect width="15" height="15" fill="white" transform="translate(15 15) rotate(180)"/>
</clipPath>
</defs>
</svg>
