<svg width="26" height="26" viewBox="0 0 26 26" fill="none" xmlns="http://www.w3.org/2000/svg">
<rect width="26" height="26" fill="white" fill-opacity="0.01"/>
<path fill-rule="evenodd" clip-rule="evenodd" d="M6.76569 14.3263C7.30235 14.6454 7.82491 15.0244 8.11574 15.6185C8.77397 16.962 8.18156 18.5669 6.7939 19.2039C6.78382 19.2084 6.77442 19.2097 6.76434 19.2143L7.46221 20.6378L9.26429 19.811L19.0545 15.3201L14.9298 7.77299L3.68677 12.9307L4.38396 14.3542C4.39403 14.3503 4.40075 14.3432 4.41082 14.3393C4.67546 14.2177 4.95017 14.1397 5.22556 14.1033C5.22556 14.1033 6.2082 13.9941 6.76569 14.3263Z" fill="#C26DBC"/>
<path fill-rule="evenodd" clip-rule="evenodd" d="M15.3111 13.4611C15.3111 15.2109 13.8442 16.6298 12.0361 16.6298C10.228 16.6298 8.76172 15.2109 8.76172 13.4611C8.76172 11.7106 10.228 10.2923 12.0361 10.2923C13.8442 10.2923 15.3111 11.7106 15.3111 13.4611Z" fill="white"/>
<path fill-rule="evenodd" clip-rule="evenodd" d="M22.9657 11.885L22.8703 11.6913C22.7776 11.7342 22.6802 11.7576 22.5849 11.7901C22.7078 11.833 22.8374 11.859 22.9657 11.885Z" fill="white"/>
<path d="M18.7048 15.3594L18.4254 14.7887" stroke="#3F4A54" stroke-width="0.8" stroke-linecap="round" stroke-linejoin="round"/>
<path d="M17.7879 13.4868L15.5566 8.93096" stroke="#3F4A54" stroke-width="0.8" stroke-linecap="round" stroke-linejoin="round" stroke-dasharray="2.22 2.22"/>
<path d="M15.2378 8.28046L14.9578 7.70976" stroke="#3F4A54" stroke-width="0.8" stroke-linecap="round" stroke-linejoin="round"/>
<path d="M6.76575 14.2054C7.33868 14.4602 7.82497 14.9035 8.1158 15.4976C8.77403 16.8411 8.18162 18.446 6.79396 19.083C6.78388 19.0875 6.77448 19.0888 6.7644 19.0934L7.46227 20.5169" stroke="#3F4A54" stroke-width="0.8" stroke-linecap="round" stroke-linejoin="round"/>
<path d="M14.93 7.65207L3.68701 12.8098L4.3842 14.2333C4.39361 14.2294 4.40099 14.2223 4.41107 14.2184C4.67503 14.0968 4.95042 14.0195 5.2258 13.9831" stroke="#3F4A54" stroke-width="0.8" stroke-linecap="round" stroke-linejoin="round"/>
<path d="M20.765 12.1285C19.906 11.9829 19.1302 11.4499 18.7285 10.6289C18.0696 9.28537 18.662 7.68052 20.0504 7.04352L19.3539 5.62262L18.5418 5.99442L17.946 6.26872L17.267 6.57942L16.197 7.07082" stroke="#3F4A54" stroke-width="0.8" stroke-linecap="round" stroke-linejoin="round"/>
<path d="M9.26416 19.6904L23.13 13.3295L22.4329 11.9086" stroke="#3F4A54" stroke-width="0.8" stroke-linecap="round" stroke-linejoin="round"/>
<path d="M13.2266 13.085L13.8062 14.0477L12.6872 14.307L11.9209 15.1384L11.319 14.1881L10.2659 13.7389L11.0134 12.8926L11.1296 11.7837L11.4406 11.9085L12.1929 12.2108L13.3179 11.9748" stroke="#3F4A54" stroke-width="0.8" stroke-linecap="round" stroke-linejoin="round"/>
</svg>
