<svg width="26" height="26" viewBox="0 0 26 26" fill="none" xmlns="http://www.w3.org/2000/svg">
<rect width="26" height="26" fill="white" fill-opacity="0.01"/>
<path fill-rule="evenodd" clip-rule="evenodd" d="M6.76566 14.3263C7.30232 14.6454 7.82488 15.0244 8.11571 15.6185C8.77394 16.962 8.18153 18.5669 6.79387 19.2039C6.78379 19.2084 6.77439 19.2097 6.76431 19.2143L7.46218 20.6378L9.26426 19.811L19.0545 15.3201L14.9298 7.77299L3.68674 12.9307L4.38393 14.3542C4.394 14.3503 4.40072 14.3432 4.41079 14.3393C4.67543 14.2177 4.95014 14.1397 5.22553 14.1033C5.22553 14.1033 6.20817 13.9941 6.76566 14.3263Z" fill="#C26DBC"/>
<path fill-rule="evenodd" clip-rule="evenodd" d="M15.3111 13.4611C15.3111 15.2109 13.8442 16.6298 12.0361 16.6298C10.2279 16.6298 8.76169 15.2109 8.76169 13.4611C8.76169 11.7106 10.2279 10.2923 12.0361 10.2923C13.8442 10.2923 15.3111 11.7106 15.3111 13.4611Z" fill="white"/>
<path fill-rule="evenodd" clip-rule="evenodd" d="M22.9656 11.885L22.8702 11.6913C22.7775 11.7342 22.6801 11.7576 22.5847 11.7901C22.7076 11.833 22.8373 11.859 22.9656 11.885Z" fill="white"/>
<path d="M18.7048 15.3594L18.4253 14.7887" stroke="#3F4A54" stroke-width="0.8" stroke-linecap="round" stroke-linejoin="round"/>
<path d="M17.7878 13.4868L15.5565 8.93096" stroke="#3F4A54" stroke-width="0.8" stroke-linecap="round" stroke-linejoin="round" stroke-dasharray="2.22 2.22"/>
<path d="M15.2377 8.28045L14.9576 7.70975" stroke="#3F4A54" stroke-width="0.8" stroke-linecap="round" stroke-linejoin="round"/>
<path d="M6.76573 14.2054C7.33866 14.4602 7.82495 14.9035 8.11578 15.4976C8.77402 16.8411 8.18161 18.446 6.79394 19.083C6.78387 19.0875 6.77446 19.0888 6.76439 19.0934L7.46225 20.5169" stroke="#3F4A54" stroke-width="0.8" stroke-linecap="round" stroke-linejoin="round"/>
<path d="M14.9301 7.65207L3.68706 12.8098L4.38425 14.2333C4.39365 14.2294 4.40104 14.2223 4.41111 14.2184C4.67508 14.0968 4.95046 14.0195 5.22585 13.9831" stroke="#3F4A54" stroke-width="0.8" stroke-linecap="round" stroke-linejoin="round"/>
<path d="M20.765 12.1285C19.9059 11.9829 19.1302 11.4499 18.7285 10.6289C18.0696 9.28537 18.662 7.68052 20.0504 7.04352L19.3538 5.62262L18.5418 5.99442L17.946 6.26872L17.267 6.57942L16.197 7.07082" stroke="#3F4A54" stroke-width="0.8" stroke-linecap="round" stroke-linejoin="round"/>
<path d="M9.2641 19.6904L23.13 13.3295L22.4328 11.9086" stroke="#3F4A54" stroke-width="0.8" stroke-linecap="round" stroke-linejoin="round"/>
<path d="M13.2265 13.085L13.8061 14.0477L12.6871 14.307L11.9207 15.1384L11.3189 14.1881L10.2658 13.7389L11.0133 12.8926L11.1295 11.7837L11.4405 11.9085L12.1928 12.2108L13.3178 11.9748" stroke="#3F4A54" stroke-width="0.8" stroke-linecap="round" stroke-linejoin="round"/>
</svg>
