<svg width="40" height="40" viewBox="0 0 40 40" fill="none" xmlns="http://www.w3.org/2000/svg">
<rect width="40" height="40" fill="white" fill-opacity="0.01"/>
<path fill-rule="evenodd" clip-rule="evenodd" d="M7.6499 18.396C7.6499 18.396 9.7179 20.536 11.6449 18.544C11.8179 18.366 12.0119 18.229 12.2179 18.144C12.5919 17.988 13.1559 17.891 13.7049 18.324C13.7549 18.365 13.8019 18.414 13.8469 18.466C14.1479 18.816 15.5659 20.291 16.8459 18.603C16.9989 18.401 17.1759 18.238 17.3729 18.132C17.7359 17.934 18.2859 17.822 18.8089 18.45C20.1169 20.376 21.6089 18.826 21.9179 18.466C21.9629 18.414 22.0089 18.365 22.0599 18.325C22.6089 17.891 23.1719 17.988 23.5459 18.144C23.7529 18.229 23.9469 18.366 24.1199 18.544C26.0459 20.536 28.1149 18.396 28.1149 18.396L27.2649 30.41C27.2649 30.41 27.2649 33.148 25.0639 33.094L10.7009 33.093C8.4999 33.147 8.4999 30.41 8.4999 30.41L8.0279 22.625" fill="#229F93"/>
<path d="M15.5085 16.6983L13.9445 11.8113C13.5145 10.8533 11.3265 11.2503 10.3685 11.6803C9.41048 12.1103 7.66048 13.4813 8.09048 14.4393L9.42748 16.8683" stroke="#3F4A54" stroke-linecap="round" stroke-linejoin="round"/>
<path d="M9.28174 15.5317L11.4557 14.5557" stroke="#3F4A54" stroke-linecap="round" stroke-linejoin="round"/>
<path d="M13.186 15.8438L14.894 15.0768" stroke="#3F4A54" stroke-linecap="round" stroke-linejoin="round"/>
<path d="M9.30811 10.6724L10.3691 11.6804L10.3391 9.24039" stroke="#3F4A54" stroke-linecap="round" stroke-linejoin="round"/>
<path d="M25.8082 17.4507L26.3632 15.3837C26.8592 13.9247 26.4422 12.3777 25.4392 11.3327L25.9512 9.82869L22.5122 8.65869L22.0002 10.1617C20.5682 10.3777 19.2932 11.3477 18.7962 12.8067L17.3472 16.6267" stroke="#3F4A54" stroke-linecap="round" stroke-linejoin="round"/>
<path d="M18.3989 14.77C18.9509 15.014 19.5419 15.263 20.1379 15.171C20.5949 15.101 20.9969 14.839 21.4209 14.656C21.4209 14.656 23.8859 12.846 25.8689 16.04" stroke="#3F4A54" stroke-linecap="round" stroke-linejoin="round"/>
<path fill-rule="evenodd" clip-rule="evenodd" d="M26.1202 9.875L22.3512 8.592C21.8742 8.429 21.6162 7.905 21.7782 7.428L21.8322 7.271C21.9952 6.794 22.5182 6.536 22.9962 6.699L26.7652 7.982C27.2422 8.145 27.4992 8.668 27.3372 9.146L27.2832 9.302C27.1212 9.78 26.5982 10.038 26.1202 9.875Z" stroke="#3F4A54" stroke-linecap="round" stroke-linejoin="round"/>
<path d="M7.6499 18.396C7.6499 18.396 9.7179 20.536 11.6449 18.544C11.8179 18.366 12.0119 18.229 12.2179 18.144C12.5919 17.988 13.1559 17.891 13.7049 18.324C13.7549 18.365 13.8019 18.414 13.8469 18.466C14.1479 18.816 15.5659 20.291 16.8459 18.603C16.9989 18.401 17.1759 18.238 17.3729 18.132C17.7359 17.934 18.2859 17.822 18.8089 18.45C20.1169 20.376 21.6089 18.826 21.9179 18.466C21.9629 18.414 22.0089 18.365 22.0599 18.325C22.6089 17.891 23.1719 17.988 23.5459 18.144C23.7529 18.229 23.9469 18.366 24.1199 18.544C26.0459 20.536 28.1149 18.396 28.1149 18.396L27.2649 30.41C27.2649 30.41 27.2649 33.148 25.0639 33.094L10.7009 33.093C8.4999 33.147 8.4999 30.41 8.4999 30.41L8.0279 22.625" stroke="#3F4A54" stroke-linecap="round" stroke-linejoin="round"/>
<path d="M29.1851 33.0947H13.8091" stroke="#3F4A54" stroke-linecap="round" stroke-linejoin="round"/>
<path d="M23.5067 23.6289L22.9547 32.8369" stroke="#3F4A54" stroke-linecap="round" stroke-linejoin="round"/>
</svg>
