<svg width="26" height="26" viewBox="0 0 26 26" fill="none" xmlns="http://www.w3.org/2000/svg">
<path d="M5.39014 8.87807L6.34136 7.60977L8.15703 7.30716L9.19501 7.60977L10.1462 10.7805L11.0975 11.0976L11.7316 9.82929L12.6828 7.60977L14.2682 6.65856L14.5853 5.70734L13.9511 4.75612L14.5853 4.43904L17.1218 5.07319L17.756 6.02441L16.4877 6.97563L17.4389 8.87807L16.8048 12.3659L14.2682 12.0488L12.9999 12.3659L11.4145 11.7317L10.4633 12.6829H6.34136L5.70721 10.4634L5.39014 8.87807Z" fill="white"/>
<rect width="26" height="26" fill="white" fill-opacity="0.01"/>
<path fill-rule="evenodd" clip-rule="evenodd" d="M4.97217 11.9565C4.97217 11.9565 6.31637 13.3475 7.56892 12.0527C7.68137 11.937 7.80747 11.848 7.94137 11.7927C8.18447 11.6913 8.55107 11.6283 8.90792 11.9097C8.94042 11.9364 8.97097 11.9682 9.00022 12.002C9.19587 12.2295 10.1176 13.1883 10.9496 12.0911C11.049 11.9598 11.1641 11.8538 11.2921 11.7849C11.5281 11.6562 11.8856 11.5834 12.2255 11.9916C13.0757 13.2435 14.0455 12.236 14.2464 12.002C14.2756 11.9682 14.3055 11.9364 14.3387 11.9104C14.6955 11.6283 15.0615 11.6913 15.3046 11.7927C15.4391 11.848 15.5652 11.937 15.6777 12.0527C16.9296 13.3475 18.2744 11.9565 18.2744 11.9565L17.7219 19.7656C17.7219 19.7656 17.7219 21.5453 16.2913 21.5102L6.95532 21.5096C5.52467 21.5447 5.52467 19.7656 5.52467 19.7656L5.21787 14.7054" fill="#229F93"/>
<path fill-rule="evenodd" clip-rule="evenodd" d="M14.7991 21.4469V18.6064V17.6119C14.7991 15.1348 16.3552 12.4769 18.2746 12.4769V11.8269L17.1963 20.8223C17.1501 21.183 16.9083 21.4469 16.6256 21.4469H14.7991Z" fill="#229F93"/>
<path d="M10.0807 10.8529L9.06409 7.67631C8.78459 7.05361 7.36239 7.31166 6.73969 7.59116C6.11699 7.87066 4.97949 8.76181 5.25899 9.38451L6.12804 10.9634" stroke="#3F4A54" stroke-width="0.8" stroke-linecap="round" stroke-linejoin="round"/>
<path d="M6.03296 10.0951L7.44606 9.46068" stroke="#3F4A54" stroke-width="0.8" stroke-linecap="round" stroke-linejoin="round"/>
<path d="M8.5708 10.2983L9.681 9.79978" stroke="#3F4A54" stroke-width="0.8" stroke-linecap="round" stroke-linejoin="round"/>
<path d="M6.05029 6.93767L6.73994 7.59287L6.72044 6.00687" stroke="#3F4A54" stroke-width="0.8" stroke-linecap="round" stroke-linejoin="round"/>
<path d="M16.775 11.3428L17.1358 9.99929C17.4582 9.05094 17.1871 8.04539 16.5352 7.36614L16.868 6.38854L14.6326 5.62804L14.2998 6.60499C13.369 6.74539 12.5403 7.37589 12.2172 8.32424L11.2754 10.8072" stroke="#3F4A54" stroke-width="0.8" stroke-linecap="round" stroke-linejoin="round"/>
<path d="M11.9592 9.59954C12.318 9.75814 12.7022 9.91999 13.0896 9.86019C13.3866 9.81469 13.6479 9.64439 13.9235 9.52544C13.9235 9.52544 15.5258 8.34894 16.8147 10.425" stroke="#3F4A54" stroke-width="0.8" stroke-linecap="round" stroke-linejoin="round"/>
<path fill-rule="evenodd" clip-rule="evenodd" d="M16.978 6.41788L14.5282 5.58393C14.2181 5.47798 14.0504 5.13738 14.1557 4.82733L14.1908 4.72528C14.2968 4.41523 14.6367 4.24753 14.9474 4.35348L17.3973 5.18743C17.7073 5.29338 17.8744 5.63333 17.7691 5.94403L17.734 6.04543C17.6287 6.35613 17.2887 6.52383 16.978 6.41788Z" stroke="#3F4A54" stroke-width="0.8" stroke-linecap="round" stroke-linejoin="round"/>
<path d="M4.97217 11.9565C4.97217 11.9565 6.31637 13.3475 7.56892 12.0527C7.68137 11.937 7.80747 11.848 7.94137 11.7927C8.18447 11.6913 8.55107 11.6283 8.90792 11.9097C8.94042 11.9364 8.97097 11.9682 9.00022 12.002C9.19587 12.2295 10.1176 13.1883 10.9496 12.0911C11.049 11.9598 11.1641 11.8538 11.2921 11.7849C11.5281 11.6562 11.8856 11.5834 12.2255 11.9916C13.0757 13.2435 14.0455 12.236 14.2464 12.002C14.2756 11.9682 14.3055 11.9364 14.3387 11.9104C14.6955 11.6283 15.0615 11.6913 15.3046 11.7927C15.4391 11.848 15.5652 11.937 15.6777 12.0527C16.9296 13.3475 18.2744 11.9565 18.2744 11.9565L17.7219 19.7656C17.7219 19.7656 17.7219 21.5453 16.2913 21.5102L6.95532 21.5096C5.52467 21.5447 5.52467 19.7656 5.52467 19.7656L5.21787 14.7054" stroke="#3F4A54" stroke-width="0.8" stroke-linecap="round" stroke-linejoin="round"/>
<path d="M18.9702 21.5104H8.97583" stroke="#3F4A54" stroke-width="0.8" stroke-linecap="round" stroke-linejoin="round"/>
<path d="M15.2795 15.3582L14.9207 21.3434" stroke="#3F4A54" stroke-width="0.8" stroke-linecap="round" stroke-linejoin="round"/>
</svg>
