<svg width="26" height="26" viewBox="0 0 26 26" fill="none" xmlns="http://www.w3.org/2000/svg">
<rect width="26" height="26" fill="white" fill-opacity="0.01"/>
<path fill-rule="evenodd" clip-rule="evenodd" d="M13.3013 4.3089C11.1238 4.3089 9.14758 5.1773 7.65771 6.58975L8.76525 7.88455C9.95927 6.7438 11.5494 6.04115 13.3013 6.04115C17.0037 6.04115 20.0054 9.154 20.0054 12.9935C20.0054 16.8337 17.0037 19.9466 13.3013 19.9466V21.6789C17.9263 21.6789 21.6758 17.7906 21.6758 12.9935C21.6758 8.1972 17.9263 4.3089 13.3013 4.3089Z" fill="#7296C6"/>
<path fill-rule="evenodd" clip-rule="evenodd" d="M19.3485 10.0081L20.8428 9.23655C19.4908 6.3239 16.6264 4.3089 13.3013 4.3089C11.1238 4.3089 9.14758 5.1773 7.65771 6.58975L8.76462 7.88455C9.95927 6.7438 11.5494 6.04115 13.3013 6.04115C15.9714 6.04115 18.2705 7.66485 19.3485 10.0081Z" fill="#7296C6"/>
<path d="M21.0036 9.62189C21.4216 10.6554 21.6517 11.7883 21.6536 12.9726C21.6673 17.7332 17.9461 21.6079 13.333 21.6352C10.2567 21.654 7.54649 19.9257 6.08984 17.3426" stroke="#3F4A54" stroke-width="0.8" stroke-linecap="round" stroke-linejoin="round"/>
<path d="M5.27781 15.3734C5.06971 14.6187 4.95752 13.8225 4.95752 12.9983C4.95689 8.21362 8.61043 4.34092 13.2938 4.32337C15.9626 4.31297 18.3081 5.58892 19.8305 7.56882" stroke="#3F4A54" stroke-width="0.8" stroke-linecap="round" stroke-linejoin="round"/>
<path d="M19.997 12.0609C19.362 6.89799 13.0572 4.29539 9.13037 7.49469" stroke="#3F4A54" stroke-width="0.8" stroke-linecap="round" stroke-linejoin="round"/>
<path d="M7.76821 8.98248C7.13641 9.91068 6.72524 10.9975 6.61743 12.1298" stroke="#3F4A54" stroke-width="0.8" stroke-linecap="round" stroke-linejoin="round"/>
<path d="M14.1367 11.2339C13.871 11.1189 13.5783 11.0584 13.2724 11.0688C12.0922 11.1065 11.1583 12.0835 11.1977 13.2379C11.2103 13.6175 11.3237 13.9743 11.5086 14.2805C11.5732 14.3877 11.6465 14.4885 11.7274 14.5821C11.827 14.6984 11.9392 14.8031 12.0602 14.8947C12.4237 15.1697 12.8713 15.3263 13.3439 15.3081C14.5479 15.2613 15.4361 14.326 15.4047 13.1384C15.3941 12.7205 15.2656 12.3331 15.0531 12.0094" stroke="#3F4A54" stroke-width="0.8" stroke-linecap="round" stroke-linejoin="round"/>
<path d="M7.96944 10.3907L7.19348 10.0046" stroke="#3F4A54" stroke-width="0.8" stroke-linecap="round" stroke-linejoin="round"/>
<path d="M11.4647 12.129L8.59155 10.701" stroke="#3F4A54" stroke-width="0.8" stroke-linecap="round" stroke-linejoin="round"/>
<path d="M17.9813 10.7014L19.3803 10.0059" stroke="#3F4A54" stroke-width="0.8" stroke-linecap="round" stroke-linejoin="round"/>
<path d="M15.109 12.1301L16.9806 11.1993" stroke="#3F4A54" stroke-width="0.8" stroke-linecap="round" stroke-linejoin="round"/>
<path d="M13.3442 15.3714L13.3016 19.9136" stroke="#3F4A54" stroke-width="0.8" stroke-linecap="round" stroke-linejoin="round"/>
<path d="M19.9653 14.1247C19.294 21.9299 7.32742 21.7921 6.67932 14.024" stroke="#3F4A54" stroke-width="0.8" stroke-linecap="round" stroke-linejoin="round"/>
<path fill-rule="evenodd" clip-rule="evenodd" d="M14.3089 13.1882C14.3089 13.7654 13.8577 14.2327 13.3017 14.2327C12.7451 14.2327 12.2938 13.7654 12.2938 13.1882C12.2938 12.611 12.7451 12.1436 13.3017 12.1436C13.8577 12.1436 14.3089 12.611 14.3089 13.1882Z" fill="#7296C6"/>
</svg>
