<svg width="26" height="26" viewBox="0 0 26 26" fill="none" xmlns="http://www.w3.org/2000/svg">
<rect width="26" height="26" fill="white" fill-opacity="0.01"/>
<path fill-rule="evenodd" clip-rule="evenodd" d="M19.3876 15.7469C19.4968 15.6864 19.5846 15.5961 19.5846 15.4713V10.8816C19.5846 10.6814 19.387 10.541 19.1978 10.606L13.3459 12.6269C13.2841 12.6483 13.2172 12.6483 13.1554 12.6269L7.30415 10.606C7.11435 10.541 6.91675 10.6814 6.91675 10.8816V15.4713C6.91675 15.5961 6.9967 15.7066 7.1137 15.7469C7.1137 15.7469 12.9513 19.3134 19.3876 15.7469Z" fill="#C6B7F2"/>
<path fill-rule="evenodd" clip-rule="evenodd" d="M17.9631 12.332V16.4283L19.5842 15.7153V12.1819V11.6118V10.8819C19.5842 10.681 19.3866 10.5406 19.1975 10.6063L17.889 11.0158L17.9631 12.332Z" fill="#C6B7F2"/>
<mask id="mask0_599_4570" style="mask-type:luminance" maskUnits="userSpaceOnUse" x="4" y="5" width="18" height="16">
<path fill-rule="evenodd" clip-rule="evenodd" d="M4.55005 20.3544H21.9512V5.85031H4.55005V20.3544Z" fill="white"/>
</mask>
<g mask="url(#mask0_599_4570)">
<path fill-rule="evenodd" clip-rule="evenodd" d="M6.74438 15.8817H8.19258V10.644H6.74438V15.8817Z" fill="white"/>
<path fill-rule="evenodd" clip-rule="evenodd" d="M21.2778 9.8022L13.3933 12.5244C13.301 12.5569 13.2002 12.5569 13.1079 12.5244L5.22341 9.8022C4.83081 9.667 4.83081 9.11125 5.22341 8.9754L13.1079 6.2532C13.2002 6.2207 13.301 6.2207 13.3933 6.2532L21.2778 8.9754C21.6704 9.11125 21.6704 9.667 21.2778 9.8022Z" fill="white"/>
<path d="M6.91675 13.4817V15.4713C6.91675 15.5955 6.99605 15.706 7.1137 15.7469C7.1137 15.7469 11.4375 18.3846 16.746 16.848" stroke="#3F4A54" stroke-width="0.8" stroke-linecap="round" stroke-linejoin="round"/>
<path d="M6.9168 10.6443V12.2212" stroke="#3F4A54" stroke-width="0.8" stroke-linecap="round" stroke-linejoin="round"/>
<path d="M19.0662 15.9182C19.1735 15.8636 19.2801 15.8064 19.3873 15.7466C19.4965 15.6868 19.5843 15.5951 19.5843 15.4716V10.8813" stroke="#3F4A54" stroke-width="0.8" stroke-linecap="round" stroke-linejoin="round"/>
<path d="M12.0774 6.60875L13.1076 6.2532C13.2006 6.2207 13.3007 6.2207 13.393 6.2532L19.7792 8.458" stroke="#3F4A54" stroke-width="0.8" stroke-linecap="round" stroke-linejoin="round"/>
<path d="M16.0376 11.6117L13.3934 12.5249C13.3005 12.5568 13.2004 12.5568 13.1074 12.5249L5.22292 9.80206C4.83097 9.66686 4.83097 9.11111 5.22292 8.97526L10.6108 7.11496" stroke="#3F4A54" stroke-width="0.8" stroke-linecap="round" stroke-linejoin="round"/>
<path d="M20.8969 8.84406L21.2778 8.97536C21.6697 9.11121 21.6697 9.66696 21.2778 9.80216L18.839 10.6446" stroke="#3F4A54" stroke-width="0.8" stroke-linecap="round" stroke-linejoin="round"/>
<path d="M15.0723 10.039L17.8887 11.016V18.7438" stroke="#3F4A54" stroke-width="0.8" stroke-linecap="round" stroke-linejoin="round"/>
</g>
</svg>
