<svg width="40" height="40" viewBox="0 0 40 40" fill="none" xmlns="http://www.w3.org/2000/svg">
<rect width="40" height="40" fill="white" fill-opacity="0.01"/>
<path fill-rule="evenodd" clip-rule="evenodd" d="M24.6048 28.4061L20.5728 29.7991C20.4308 29.8471 20.2778 29.8471 20.1368 29.7991L8.1138 25.6461C7.5148 25.4401 7.5148 24.5931 8.1138 24.3851L16.3308 21.5491L18.5658 20.7771L20.1368 20.2341C20.2778 20.1851 20.4308 20.1851 20.5728 20.2341L30.3108 23.5971L32.0148 24.1851L32.5948 24.3851C33.1938 24.5931 33.1938 25.4401 32.5948 25.6461L28.8768 26.9301L24.6048 28.4061Z" fill="#85C680"/>
<path d="M18.5815 21.1669L20.1665 20.6199C20.3085 20.5709 20.4635 20.5709 20.6045 20.6199L30.4305 24.0129" stroke="#3F4A54" stroke-linecap="round" stroke-linejoin="round"/>
<path d="M24.673 28.8641L20.605 30.2691C20.463 30.3181 20.308 30.3181 20.166 30.2691L8.03601 26.0801C7.43201 25.8721 7.43201 25.0171 8.03601 24.8081L16.325 21.9461" stroke="#3F4A54" stroke-linecap="round" stroke-linejoin="round"/>
<path d="M32.1489 24.6063L32.7349 24.8083C33.3389 25.0173 33.3389 25.8723 32.7349 26.0803L28.9839 27.3763" stroke="#3F4A54" stroke-linecap="round" stroke-linejoin="round"/>
<path fill-rule="evenodd" clip-rule="evenodd" d="M24.6048 23.4061L20.5728 24.7991C20.4308 24.8471 20.2778 24.8471 20.1368 24.7991L8.1138 20.6461C7.5148 20.4401 7.5148 19.5931 8.1138 19.3851L16.3308 16.5491L18.5658 15.7771L20.1368 15.2341C20.2778 15.1851 20.4308 15.1851 20.5728 15.2341L30.3108 18.5971L32.0148 19.1851L32.5948 19.3851C33.1938 19.5931 33.1938 20.4401 32.5948 20.6461L28.8768 21.9301L24.6048 23.4061Z" fill="#85C680"/>
<path d="M18.5815 16.1669L20.1665 15.6199C20.3085 15.5709 20.4635 15.5709 20.6045 15.6199L30.4305 19.0129" stroke="#3F4A54" stroke-linecap="round" stroke-linejoin="round"/>
<path d="M24.673 23.8641L20.605 25.2691C20.463 25.3181 20.308 25.3181 20.166 25.2691L8.03601 21.0801C7.43201 20.8721 7.43201 20.0171 8.03601 19.8081L16.325 16.9461" stroke="#3F4A54" stroke-linecap="round" stroke-linejoin="round"/>
<path d="M32.1489 19.6063L32.7349 19.8083C33.3389 20.0173 33.3389 20.8723 32.7349 21.0803L28.9839 22.3763" stroke="#3F4A54" stroke-linecap="round" stroke-linejoin="round"/>
<path fill-rule="evenodd" clip-rule="evenodd" d="M24.6048 18.4061L20.5728 19.7991C20.4308 19.8471 20.2778 19.8471 20.1368 19.7991L8.1138 15.6461C7.5148 15.4401 7.5148 14.5931 8.1138 14.3851L16.3308 11.5491L18.5658 10.7771L20.1368 10.2341C20.2778 10.1851 20.4308 10.1851 20.5728 10.2341L30.3108 13.5971L32.0148 14.1851L32.5948 14.3851C33.1938 14.5931 33.1938 15.4401 32.5948 15.6461L28.8768 16.9301L24.6048 18.4061Z" fill="white"/>
<path d="M18.5815 11.1669L20.1665 10.6199C20.3085 10.5709 20.4635 10.5709 20.6045 10.6199L30.4305 14.0129" stroke="#3F4A54" stroke-linecap="round" stroke-linejoin="round"/>
<path d="M32.1488 14.6063L32.7348 14.8083C33.3388 15.0173 33.3388 15.8723 32.7348 16.0803L28.9838 17.3763L24.6728 18.8643L20.6048 20.2693C20.4628 20.3183 20.3078 20.3183 20.1668 20.2693L8.03676 16.0803C7.43176 15.8723 7.43176 15.0173 8.03676 14.8083L16.3258 11.9463" stroke="#3F4A54" stroke-linecap="round" stroke-linejoin="round"/>
</svg>
