<svg width="93" height="41" viewBox="0 0 93 41" fill="none" xmlns="http://www.w3.org/2000/svg">
<path fill-rule="evenodd" clip-rule="evenodd" d="M38.4773 13.874C36.8287 13.874 35.5215 14.5008 34.5557 15.7536C33.5899 17.0069 33.0162 18.873 32.8363 21.3531C32.8104 21.5856 32.7977 21.8053 32.7977 22.0117C32.7977 23.2778 33.1002 24.2857 33.7056 25.0347C34.3105 25.7842 35.09 26.1584 36.0434 26.1584C37.6661 26.1584 38.889 25.0092 39.7137 22.7096L40.6409 14.3391C39.8937 14.029 39.1728 13.874 38.4773 13.874ZM44.7037 29.6846C42.3337 29.6846 40.7628 28.8582 39.9902 27.2042C38.6505 28.8842 36.931 29.7233 34.8322 29.7233C32.7325 29.7233 30.9684 29.013 29.5388 27.5919C28.1093 26.1714 27.3945 24.2981 27.3945 21.973C27.3945 18.5889 28.3857 15.8887 30.3696 13.8737C32.3525 11.8587 34.8641 10.8511 37.9037 10.8511H38.1355C39.4231 10.8511 40.6082 11.0708 41.69 11.5099C42.3855 11.0708 43.229 10.8511 44.2207 10.8511C45.2121 10.8511 45.9269 10.9807 46.365 11.2388C46.1336 13.1507 45.8883 15.0303 45.631 16.877C45.3733 18.7246 45.1928 20.0354 45.0901 20.8103C44.8583 22.5675 44.7423 23.833 44.7423 24.6079C44.7423 25.6416 45.154 26.1581 45.9787 26.1581C46.6224 26.1581 47.3052 25.7259 48.0263 24.86C48.7474 23.9947 49.379 22.6316 49.9196 20.7716C50.6666 21.4438 51.1816 22.1927 51.4655 23.0194C50.7179 25.4741 49.713 27.1984 48.4515 28.1927C47.1889 29.1874 45.9401 29.6846 44.7037 29.6846Z" fill="#72C6B1"/>
<path fill-rule="evenodd" clip-rule="evenodd" d="M55.3559 12.2475C57.7256 9.6386 58.9105 7.30051 58.9105 5.23326C58.9105 3.99346 58.4467 3.37329 57.5195 3.37329C56.9268 3.42525 56.5338 3.81272 56.3412 4.53598C56.1481 5.25952 55.9673 6.43464 55.7998 8.06219C55.6325 9.68973 55.5231 10.6974 55.4716 11.0848L55.3559 12.2475ZM53.8687 29.7617C52.2843 29.7617 51.0416 29.3162 50.14 28.4247C49.2381 27.5334 48.7876 26.3126 48.7876 24.7628C48.7876 24.3499 49.4836 18.2136 50.874 6.35568C51.2347 3.3076 52.2008 1.38268 53.7717 0.581483C54.4928 0.194012 55.3561 0 56.3605 0C59.7605 0 61.4607 1.57642 61.4607 4.72814C61.4607 4.98655 61.4472 5.25794 61.4221 5.54177C61.1642 9.00414 59.0008 12.5303 54.9309 16.1209C54.8017 17.3873 54.6609 18.6144 54.5058 19.8025C54.1969 22.4636 54.0423 23.9361 54.0423 24.2203C54.0423 25.5637 54.6221 26.2353 55.7813 26.2353C57.0428 26.2353 58.2213 25.5056 59.3161 24.0456C60.4108 22.5866 61.254 20.7197 61.8473 18.4463C62.079 18.5237 62.4003 18.7368 62.8131 19.0856C63.225 19.4343 63.5085 19.7381 63.6629 19.9962C63.2506 22.1408 62.3234 24.1945 60.8812 26.1579C60.1601 27.1652 59.245 27.9927 58.1381 28.638C56.8755 29.3875 55.4526 29.7617 53.8687 29.7617Z" fill="#72C6B1"/>
<path fill-rule="evenodd" clip-rule="evenodd" d="M67.1893 12.2475C69.559 9.6386 70.7439 7.30051 70.7439 5.23326C70.7439 3.99346 70.2802 3.37329 69.3529 3.37329C68.7602 3.42525 68.3673 3.81272 68.1747 4.53598C67.9815 5.25952 67.8008 6.43464 67.6332 8.06219C67.466 9.68973 67.3566 10.6974 67.305 11.0848L67.1893 12.2475ZM65.7022 29.7617C64.1178 29.7617 62.875 29.3162 61.9734 28.4247C61.0716 27.5334 60.621 26.3126 60.621 24.7628C60.621 24.3499 61.3171 18.2136 62.7075 6.35568C63.0682 3.3076 64.0343 1.38268 65.6052 0.581483C66.3263 0.194012 67.1896 0 68.194 0C71.594 0 73.2941 1.57642 73.2941 4.72814C73.2941 4.98655 73.2806 5.25794 73.2556 5.54177C72.9977 9.00414 70.8343 12.5303 66.7644 16.1209C66.6352 17.3873 66.4944 18.6144 66.3393 19.8025C66.0304 22.4636 65.8758 23.9361 65.8758 24.2203C65.8758 25.5637 66.4555 26.2353 67.6148 26.2353C68.8763 26.2353 70.0548 25.5056 71.1495 24.0456C72.2443 22.5866 73.0875 20.7197 73.6807 18.4463C73.9125 18.5237 74.2338 18.7368 74.6465 19.0856C75.0585 19.4343 75.342 19.7381 75.4963 19.9962C75.0841 22.1408 74.1569 24.1945 72.7147 26.1579C71.9936 27.1652 71.0784 27.9927 69.9716 28.638C68.709 29.3875 67.2861 29.7617 65.7022 29.7617Z" fill="#72C6B1"/>
<path fill-rule="evenodd" clip-rule="evenodd" d="M77.2296 36.9312C77.6413 37.3441 78.1891 37.5511 78.8722 37.5511C79.5542 37.5511 80.0755 37.2667 80.4367 36.6985C80.7972 36.1303 81.0804 34.9936 81.2871 33.2884L81.7891 29.0259C78.4142 30.7822 76.6887 32.7845 76.6118 35.0323C76.6118 35.8849 76.8174 36.5178 77.2296 36.9312ZM75.1856 39.6629C74.1286 38.7716 73.6012 37.4735 73.6012 35.7683C73.6012 33.6759 74.6571 31.6347 76.7695 29.6456C75.2754 29.516 74.0776 29.0257 73.176 28.1731C72.2747 27.3205 71.8242 26.1191 71.8242 24.5693C71.8242 23.846 71.914 22.7612 72.0945 21.3139C72.2747 19.8674 72.4673 18.3048 72.674 16.6247C72.8801 14.9458 73.0991 13.1635 73.3311 11.2772C74.1286 10.9931 74.8632 10.8511 75.5333 10.8511C76.2029 10.8511 76.705 10.877 77.0398 10.9284C77.3746 10.9807 77.697 11.1744 78.0059 11.5099C78.3153 11.8457 78.4696 12.3236 78.4696 12.9435L77.1946 22.8254C77.1426 23.2388 77.1172 23.5226 77.1172 23.6777C77.1172 25.2024 77.8127 25.9641 79.2037 25.9641C80.4651 25.9641 81.496 25.3702 82.2945 24.1815C82.3719 23.5876 82.5654 21.8757 82.8743 19.0468C83.1832 16.2182 83.4403 14.0158 83.6469 12.4399C83.8789 11.9491 84.3617 11.5619 85.0958 11.2772C85.8298 10.9931 86.4289 10.8511 86.8923 10.8511C87.7162 10.8511 88.4633 10.9544 89.1334 11.1609L87.3175 25.4603C90.3312 26.0028 92.1336 28.0827 92.7268 31.6993C92.6235 32.1899 92.1336 32.9648 91.2584 34.0244C90.7429 30.7948 89.3266 28.8317 87.0086 28.1344L86.39 32.9781C86.1065 35.3032 85.3724 37.2218 84.1878 38.7329C83.0027 40.2441 81.264 41 78.9719 41C77.5035 41 76.241 40.5542 75.1856 39.6629Z" fill="#72C6B1"/>
<path fill-rule="evenodd" clip-rule="evenodd" d="M21.485 13.4478C20.7377 13.4478 20.3646 13.2286 20.3646 12.7889C20.3646 12.531 20.5443 12.4014 20.9055 12.4014C21.2659 12.4014 21.5363 12.7502 21.7167 13.4478H21.485ZM32.0129 11.508C30.6122 11.7694 29.2604 12.1793 27.8826 12.5311C26.921 12.7765 25.9552 12.9597 24.9819 13.1032L24.9593 12.9827C24.2892 11.0196 23.0015 10.0374 21.0956 10.0374C20.2196 10.0374 19.4855 10.3091 18.8931 10.8513C18.4037 11.3424 18.159 11.9886 18.159 12.7889C18.159 13.5901 18.4682 14.2747 19.0865 14.8429C19.6787 15.3338 20.5161 15.5792 21.5979 15.5792H21.9456C21.9456 17.5168 21.6365 19.6739 21.0181 22.0507C20.7346 23.2131 20.3094 24.182 19.7432 24.9573C19.1764 25.7319 18.5321 26.1197 17.8113 26.1197H17.6956C16.1241 26.1197 15.3388 25.1894 15.3388 23.3294C15.3388 22.9165 15.5959 20.9015 16.1114 17.2841C16.4718 14.7266 16.6523 13.2151 16.6523 12.7503C16.6523 11.4845 15.8149 10.8513 14.141 10.8513C13.2137 10.8513 12.3375 11.0064 11.5136 11.3164L10.1615 22.9033C9.92945 23.7559 9.5558 24.4794 9.0408 25.073C8.52525 25.6678 7.9397 25.9646 7.28279 25.9646C6.62588 25.9646 6.12383 25.7455 5.77608 25.3058C5.42834 24.8666 5.25447 24.4211 5.25447 23.9687C5.25447 23.5174 5.49888 21.4692 5.98853 17.8266C6.37485 14.9336 6.56801 13.2414 6.56801 12.7503C6.56801 11.4845 5.65346 10.8513 3.82491 10.8513C3.12942 10.8513 2.31793 11.0064 1.3907 11.3164C1.02973 14.7785 0.579482 18.7566 0.038577 23.252C0.0123998 23.6141 0 23.9239 0 24.182C0 25.6808 0.495439 26.9789 1.48714 28.0766C2.47857 29.1749 3.74776 29.7235 5.29304 29.7235C7.89423 29.7235 9.82639 28.7548 11.0887 26.8172C12.1958 28.7294 13.8764 29.6848 16.1307 29.6848C18.3844 29.6848 20.2196 28.9746 21.6365 27.5535C24.0318 25.151 25.2809 21.2754 25.3842 15.928C25.3842 15.5538 25.3716 15.2666 25.3479 15.0607C25.4465 15.045 25.5151 15.0339 25.541 15.0298C27.3222 14.7393 29.0375 14.2211 30.7599 13.6731C31.5061 13.4354 32.3019 13.3323 33.0186 13.0048C33.3429 12.8567 33.6336 12.5659 33.9197 12.3515C34.6962 11.77 35.5826 11.3214 36.4682 10.9306C34.9753 11.0542 33.4857 11.2333 32.0129 11.508Z" fill="#72C6B1"/>
</svg>
