<svg width="30" height="30" viewBox="0 0 30 30" fill="none" xmlns="http://www.w3.org/2000/svg">
<rect width="30" height="30" fill="white" fill-opacity="0.01"/>
<path fill-rule="evenodd" clip-rule="evenodd" d="M7.80651 16.5307C8.42573 16.899 9.02868 17.3362 9.36426 18.0217C10.1238 19.572 9.44021 21.4237 7.83906 22.1587C7.82743 22.164 7.81658 22.1655 7.80496 22.1707L8.61018 23.8132L10.6895 22.8592L21.9859 17.6775L17.2266 8.96924L4.25391 14.9205L5.05836 16.563C5.06998 16.5585 5.07773 16.5502 5.08936 16.5457C5.39471 16.4055 5.71168 16.3155 6.02943 16.2735C6.02943 16.2735 7.16326 16.1475 7.80651 16.5307Z" fill="#C26DBC"/>
<path fill-rule="evenodd" clip-rule="evenodd" d="M17.6666 15.5321C17.6666 17.5511 15.974 19.1884 13.8877 19.1884C11.8014 19.1884 10.1096 17.5511 10.1096 15.5321C10.1096 13.5124 11.8014 11.8759 13.8877 11.8759C15.974 11.8759 17.6666 13.5124 17.6666 15.5321Z" fill="white"/>
<path fill-rule="evenodd" clip-rule="evenodd" d="M26.4987 13.7136L26.3886 13.4901C26.2817 13.5396 26.1693 13.5666 26.0593 13.6041C26.2011 13.6536 26.3507 13.6836 26.4987 13.7136Z" fill="white"/>
<path d="M21.5824 17.7224L21.26 17.0639" stroke="#3F4A54" stroke-width="0.8" stroke-linecap="round" stroke-linejoin="round"/>
<path d="M20.5244 15.5619L17.9498 10.3052" stroke="#3F4A54" stroke-width="0.8" stroke-linecap="round" stroke-linejoin="round" stroke-dasharray="2.22 2.22"/>
<path d="M17.5819 9.55447L17.2587 8.89597" stroke="#3F4A54" stroke-width="0.8" stroke-linecap="round" stroke-linejoin="round"/>
<path d="M7.8066 16.3912C8.46768 16.6852 9.02878 17.1967 9.36435 17.8822C10.1239 19.4325 9.4403 21.2842 7.83915 22.0192C7.82753 22.0245 7.81668 22.026 7.80505 22.0312L8.61028 23.6737" stroke="#3F4A54" stroke-width="0.8" stroke-linecap="round" stroke-linejoin="round"/>
<path d="M17.227 8.82935L4.25427 14.7806L5.05872 16.4231C5.06957 16.4186 5.0781 16.4103 5.08972 16.4058C5.3943 16.2656 5.71205 16.1763 6.0298 16.1343" stroke="#3F4A54" stroke-width="0.8" stroke-linecap="round" stroke-linejoin="round"/>
<path d="M23.9596 13.9945C22.9684 13.8265 22.0733 13.2115 21.6098 12.2643C20.8495 10.714 21.5331 8.86229 23.135 8.12729L22.3313 6.48779L21.3944 6.91679L20.7069 7.23329L19.9234 7.59179L18.6888 8.15879" stroke="#3F4A54" stroke-width="0.8" stroke-linecap="round" stroke-linejoin="round"/>
<path d="M10.6893 22.72L26.6884 15.3805L25.884 13.741" stroke="#3F4A54" stroke-width="0.8" stroke-linecap="round" stroke-linejoin="round"/>
<path d="M15.2613 15.0985L15.9301 16.2093L14.639 16.5085L13.7547 17.4678L13.0603 16.3713L11.8451 15.853L12.7077 14.8765L12.8417 13.597L13.2006 13.741L14.0686 14.0898L15.3667 13.8175" stroke="#3F4A54" stroke-width="0.8" stroke-linecap="round" stroke-linejoin="round"/>
</svg>
